<?xml version="1.0" encoding="utf-8"?>
<svg xmlns="http://www.w3.org/2000/svg" xmlns:xlink="http://www.w3.org/1999/xlink" width="600" height="400" viewBox="0 0 2400 1600">
<defs>
  <clipPath id="clip270">
    <rect x="0" y="0" width="2400" height="1600"/>
  </clipPath>
</defs>
<path clip-path="url(#clip270)" d="
M0 1600 L2400 1600 L2400 0 L0 0  Z
  " fill="#ffffff" fill-rule="evenodd" fill-opacity="1"/>
<defs>
  <clipPath id="clip271">
    <rect x="480" y="0" width="1681" height="1600"/>
  </clipPath>
</defs>
<path clip-path="url(#clip270)" d="
M86.9921 1521.01 L2352.76 1521.01 L2352.76 47.2441 L86.9921 47.2441  Z
  " fill="#ffffff" fill-rule="evenodd" fill-opacity="1"/>
<defs>
  <clipPath id="clip272">
    <rect x="86" y="47" width="2267" height="1475"/>
  </clipPath>
</defs>
<polyline clip-path="url(#clip272)" style="stroke:#000000; stroke-linecap:butt; stroke-linejoin:round; stroke-width:2; stroke-opacity:0.1; fill:none" points="
  601.12,1521.01 601.12,47.2441 
  "/>
<polyline clip-path="url(#clip272)" style="stroke:#000000; stroke-linecap:butt; stroke-linejoin:round; stroke-width:2; stroke-opacity:0.1; fill:none" points="
  1163.62,1521.01 1163.62,47.2441 
  "/>
<polyline clip-path="url(#clip272)" style="stroke:#000000; stroke-linecap:butt; stroke-linejoin:round; stroke-width:2; stroke-opacity:0.1; fill:none" points="
  1726.13,1521.01 1726.13,47.2441 
  "/>
<polyline clip-path="url(#clip272)" style="stroke:#000000; stroke-linecap:butt; stroke-linejoin:round; stroke-width:2; stroke-opacity:0.1; fill:none" points="
  2288.63,1521.01 2288.63,47.2441 
  "/>
<polyline clip-path="url(#clip270)" style="stroke:#000000; stroke-linecap:butt; stroke-linejoin:round; stroke-width:4; stroke-opacity:1; fill:none" points="
  86.9921,1521.01 2352.76,1521.01 
  "/>
<polyline clip-path="url(#clip270)" style="stroke:#000000; stroke-linecap:butt; stroke-linejoin:round; stroke-width:4; stroke-opacity:1; fill:none" points="
  601.12,1521.01 601.12,1503.32 
  "/>
<polyline clip-path="url(#clip270)" style="stroke:#000000; stroke-linecap:butt; stroke-linejoin:round; stroke-width:4; stroke-opacity:1; fill:none" points="
  1163.62,1521.01 1163.62,1503.32 
  "/>
<polyline clip-path="url(#clip270)" style="stroke:#000000; stroke-linecap:butt; stroke-linejoin:round; stroke-width:4; stroke-opacity:1; fill:none" points="
  1726.13,1521.01 1726.13,1503.32 
  "/>
<polyline clip-path="url(#clip270)" style="stroke:#000000; stroke-linecap:butt; stroke-linejoin:round; stroke-width:4; stroke-opacity:1; fill:none" points="
  2288.63,1521.01 2288.63,1503.32 
  "/>
<path clip-path="url(#clip270)" d="M591.398 1547.12 L609.754 1547.12 L609.754 1551.06 L595.68 1551.06 L595.68 1559.53 Q596.699 1559.18 597.717 1559.02 Q598.736 1558.83 599.755 1558.83 Q605.542 1558.83 608.921 1562 Q612.301 1565.18 612.301 1570.59 Q612.301 1576.17 608.829 1579.27 Q605.356 1582.35 599.037 1582.35 Q596.861 1582.35 594.593 1581.98 Q592.347 1581.61 589.94 1580.87 L589.94 1576.17 Q592.023 1577.3 594.245 1577.86 Q596.467 1578.42 598.944 1578.42 Q602.949 1578.42 605.287 1576.31 Q607.625 1574.2 607.625 1570.59 Q607.625 1566.98 605.287 1564.87 Q602.949 1562.77 598.944 1562.77 Q597.069 1562.77 595.194 1563.18 Q593.343 1563.6 591.398 1564.48 L591.398 1547.12 Z" fill="#000000" fill-rule="evenodd" fill-opacity="1" /><path clip-path="url(#clip270)" d="M1138.31 1577.74 L1145.95 1577.74 L1145.95 1551.38 L1137.64 1553.05 L1137.64 1548.79 L1145.9 1547.12 L1150.58 1547.12 L1150.58 1577.74 L1158.22 1577.74 L1158.22 1581.68 L1138.31 1581.68 L1138.31 1577.74 Z" fill="#000000" fill-rule="evenodd" fill-opacity="1" /><path clip-path="url(#clip270)" d="M1177.66 1550.2 Q1174.05 1550.2 1172.22 1553.76 Q1170.42 1557.31 1170.42 1564.43 Q1170.42 1571.54 1172.22 1575.11 Q1174.05 1578.65 1177.66 1578.65 Q1181.3 1578.65 1183.1 1575.11 Q1184.93 1571.54 1184.93 1564.43 Q1184.93 1557.31 1183.1 1553.76 Q1181.3 1550.2 1177.66 1550.2 M1177.66 1546.49 Q1183.47 1546.49 1186.53 1551.1 Q1189.61 1555.68 1189.61 1564.43 Q1189.61 1573.16 1186.53 1577.77 Q1183.47 1582.35 1177.66 1582.35 Q1171.85 1582.35 1168.77 1577.77 Q1165.72 1573.16 1165.72 1564.43 Q1165.72 1555.68 1168.77 1551.1 Q1171.85 1546.49 1177.66 1546.49 Z" fill="#000000" fill-rule="evenodd" fill-opacity="1" /><path clip-path="url(#clip270)" d="M1701.31 1577.74 L1708.95 1577.74 L1708.95 1551.38 L1700.64 1553.05 L1700.64 1548.79 L1708.9 1547.12 L1713.58 1547.12 L1713.58 1577.74 L1721.22 1577.74 L1721.22 1581.68 L1701.31 1581.68 L1701.31 1577.74 Z" fill="#000000" fill-rule="evenodd" fill-opacity="1" /><path clip-path="url(#clip270)" d="M1730.71 1547.12 L1749.07 1547.12 L1749.07 1551.06 L1734.99 1551.06 L1734.99 1559.53 Q1736.01 1559.18 1737.03 1559.02 Q1738.05 1558.83 1739.07 1558.83 Q1744.85 1558.83 1748.23 1562 Q1751.61 1565.18 1751.61 1570.59 Q1751.61 1576.17 1748.14 1579.27 Q1744.67 1582.35 1738.35 1582.35 Q1736.17 1582.35 1733.9 1581.98 Q1731.66 1581.61 1729.25 1580.87 L1729.25 1576.17 Q1731.34 1577.3 1733.56 1577.86 Q1735.78 1578.42 1738.26 1578.42 Q1742.26 1578.42 1744.6 1576.31 Q1746.94 1574.2 1746.94 1570.59 Q1746.94 1566.98 1744.6 1564.87 Q1742.26 1562.77 1738.26 1562.77 Q1736.38 1562.77 1734.51 1563.18 Q1732.65 1563.6 1730.71 1564.48 L1730.71 1547.12 Z" fill="#000000" fill-rule="evenodd" fill-opacity="1" /><path clip-path="url(#clip270)" d="M2267.4 1577.74 L2283.72 1577.74 L2283.72 1581.68 L2261.78 1581.68 L2261.78 1577.74 Q2264.44 1574.99 2269.02 1570.36 Q2273.63 1565.71 2274.81 1564.37 Q2277.06 1561.84 2277.94 1560.11 Q2278.84 1558.35 2278.84 1556.66 Q2278.84 1553.9 2276.89 1552.17 Q2274.97 1550.43 2271.87 1550.43 Q2269.67 1550.43 2267.22 1551.19 Q2264.79 1551.96 2262.01 1553.51 L2262.01 1548.79 Q2264.83 1547.65 2267.29 1547.07 Q2269.74 1546.49 2271.78 1546.49 Q2277.15 1546.49 2280.34 1549.18 Q2283.54 1551.87 2283.54 1556.36 Q2283.54 1558.49 2282.73 1560.41 Q2281.94 1562.3 2279.83 1564.9 Q2279.26 1565.57 2276.15 1568.79 Q2273.05 1571.98 2267.4 1577.74 Z" fill="#000000" fill-rule="evenodd" fill-opacity="1" /><path clip-path="url(#clip270)" d="M2303.54 1550.2 Q2299.93 1550.2 2298.1 1553.76 Q2296.29 1557.31 2296.29 1564.43 Q2296.29 1571.54 2298.1 1575.11 Q2299.93 1578.65 2303.54 1578.65 Q2307.17 1578.65 2308.98 1575.11 Q2310.81 1571.54 2310.81 1564.43 Q2310.81 1557.31 2308.98 1553.76 Q2307.17 1550.2 2303.54 1550.2 M2303.54 1546.49 Q2309.35 1546.49 2312.4 1551.1 Q2315.48 1555.68 2315.48 1564.43 Q2315.48 1573.16 2312.4 1577.77 Q2309.35 1582.35 2303.54 1582.35 Q2297.73 1582.35 2294.65 1577.77 Q2291.59 1573.16 2291.59 1564.43 Q2291.59 1555.68 2294.65 1551.1 Q2297.73 1546.49 2303.54 1546.49 Z" fill="#000000" fill-rule="evenodd" fill-opacity="1" /><polyline clip-path="url(#clip272)" style="stroke:#000000; stroke-linecap:butt; stroke-linejoin:round; stroke-width:2; stroke-opacity:0.1; fill:none" points="
  86.9921,1479.3 2352.76,1479.3 
  "/>
<polyline clip-path="url(#clip272)" style="stroke:#000000; stroke-linecap:butt; stroke-linejoin:round; stroke-width:2; stroke-opacity:0.1; fill:none" points="
  86.9921,1173.73 2352.76,1173.73 
  "/>
<polyline clip-path="url(#clip272)" style="stroke:#000000; stroke-linecap:butt; stroke-linejoin:round; stroke-width:2; stroke-opacity:0.1; fill:none" points="
  86.9921,868.158 2352.76,868.158 
  "/>
<polyline clip-path="url(#clip272)" style="stroke:#000000; stroke-linecap:butt; stroke-linejoin:round; stroke-width:2; stroke-opacity:0.1; fill:none" points="
  86.9921,562.588 2352.76,562.588 
  "/>
<polyline clip-path="url(#clip272)" style="stroke:#000000; stroke-linecap:butt; stroke-linejoin:round; stroke-width:2; stroke-opacity:0.1; fill:none" points="
  86.9921,257.018 2352.76,257.018 
  "/>
<polyline clip-path="url(#clip270)" style="stroke:#000000; stroke-linecap:butt; stroke-linejoin:round; stroke-width:4; stroke-opacity:1; fill:none" points="
  86.9921,1521.01 86.9921,47.2441 
  "/>
<polyline clip-path="url(#clip270)" style="stroke:#000000; stroke-linecap:butt; stroke-linejoin:round; stroke-width:4; stroke-opacity:1; fill:none" points="
  86.9921,1479.3 114.181,1479.3 
  "/>
<polyline clip-path="url(#clip270)" style="stroke:#000000; stroke-linecap:butt; stroke-linejoin:round; stroke-width:4; stroke-opacity:1; fill:none" points="
  86.9921,1173.73 114.181,1173.73 
  "/>
<polyline clip-path="url(#clip270)" style="stroke:#000000; stroke-linecap:butt; stroke-linejoin:round; stroke-width:4; stroke-opacity:1; fill:none" points="
  86.9921,868.158 114.181,868.158 
  "/>
<polyline clip-path="url(#clip270)" style="stroke:#000000; stroke-linecap:butt; stroke-linejoin:round; stroke-width:4; stroke-opacity:1; fill:none" points="
  86.9921,562.588 114.181,562.588 
  "/>
<polyline clip-path="url(#clip270)" style="stroke:#000000; stroke-linecap:butt; stroke-linejoin:round; stroke-width:4; stroke-opacity:1; fill:none" points="
  86.9921,257.018 114.181,257.018 
  "/>
<path clip-path="url(#clip270)" d="M39.0477 1465.1 Q35.4367 1465.1 33.608 1468.66 Q31.8024 1472.2 31.8024 1479.33 Q31.8024 1486.44 33.608 1490 Q35.4367 1493.55 39.0477 1493.55 Q42.682 1493.55 44.4875 1490 Q46.3162 1486.44 46.3162 1479.33 Q46.3162 1472.2 44.4875 1468.66 Q42.682 1465.1 39.0477 1465.1 M39.0477 1461.39 Q44.8579 1461.39 47.9134 1466 Q50.9921 1470.58 50.9921 1479.33 Q50.9921 1488.06 47.9134 1492.67 Q44.8579 1497.25 39.0477 1497.25 Q33.2376 1497.25 30.1589 1492.67 Q27.1034 1488.06 27.1034 1479.33 Q27.1034 1470.58 30.1589 1466 Q33.2376 1461.39 39.0477 1461.39 Z" fill="#000000" fill-rule="evenodd" fill-opacity="1" /><path clip-path="url(#clip270)" d="M2.91368 1187.07 L19.233 1187.07 L19.233 1191.01 L-2.71129 1191.01 L-2.71129 1187.07 Q-0.0492672 1184.32 4.53404 1179.69 Q9.1405 1175.04 10.321 1173.69 Q12.5664 1171.17 13.446 1169.43 Q14.3488 1167.67 14.3488 1165.98 Q14.3488 1163.23 12.4044 1161.49 Q10.4831 1159.76 7.38125 1159.76 Q5.18219 1159.76 2.7285 1160.52 Q0.297953 1161.29 -2.47981 1162.84 L-2.47981 1158.11 Q0.344249 1156.98 2.79794 1156.4 Q5.25163 1155.82 7.28866 1155.82 Q12.659 1155.82 15.8534 1158.51 Q19.0479 1161.19 19.0479 1165.68 Q19.0479 1167.81 18.2377 1169.73 Q17.4506 1171.63 15.3442 1174.23 Q14.7655 1174.9 11.6636 1178.11 Q8.5618 1181.31 2.91368 1187.07 Z" fill="#000000" fill-rule="evenodd" fill-opacity="1" /><path clip-path="url(#clip270)" d="M39.0477 1159.53 Q35.4367 1159.53 33.608 1163.09 Q31.8024 1166.63 31.8024 1173.76 Q31.8024 1180.87 33.608 1184.43 Q35.4367 1187.98 39.0477 1187.98 Q42.682 1187.98 44.4875 1184.43 Q46.3162 1180.87 46.3162 1173.76 Q46.3162 1166.63 44.4875 1163.09 Q42.682 1159.53 39.0477 1159.53 M39.0477 1155.82 Q44.8579 1155.82 47.9134 1160.43 Q50.9921 1165.01 50.9921 1173.76 Q50.9921 1182.49 47.9134 1187.1 Q44.8579 1191.68 39.0477 1191.68 Q33.2376 1191.68 30.1589 1187.1 Q27.1034 1182.49 27.1034 1173.76 Q27.1034 1165.01 30.1589 1160.43 Q33.2376 1155.82 39.0477 1155.82 Z" fill="#000000" fill-rule="evenodd" fill-opacity="1" /><path clip-path="url(#clip270)" d="M11.7331 854.952 L-0.0724152 873.401 L11.7331 873.401 L11.7331 854.952 M10.5062 850.878 L16.3858 850.878 L16.3858 873.401 L21.3164 873.401 L21.3164 877.29 L16.3858 877.29 L16.3858 885.438 L11.7331 885.438 L11.7331 877.29 L-3.86869 877.29 L-3.86869 872.776 L10.5062 850.878 Z" fill="#000000" fill-rule="evenodd" fill-opacity="1" /><path clip-path="url(#clip270)" d="M39.0477 853.956 Q35.4367 853.956 33.608 857.521 Q31.8024 861.063 31.8024 868.192 Q31.8024 875.299 33.608 878.864 Q35.4367 882.405 39.0477 882.405 Q42.682 882.405 44.4875 878.864 Q46.3162 875.299 46.3162 868.192 Q46.3162 861.063 44.4875 857.521 Q42.682 853.956 39.0477 853.956 M39.0477 850.253 Q44.8579 850.253 47.9134 854.859 Q50.9921 859.442 50.9921 868.192 Q50.9921 876.919 47.9134 881.526 Q44.8579 886.109 39.0477 886.109 Q33.2376 886.109 30.1589 881.526 Q27.1034 876.919 27.1034 868.192 Q27.1034 859.442 30.1589 854.859 Q33.2376 850.253 39.0477 850.253 Z" fill="#000000" fill-rule="evenodd" fill-opacity="1" /><path clip-path="url(#clip270)" d="M9.46457 560.724 Q6.31644 560.724 4.4646 562.877 Q2.6359 565.03 2.6359 568.78 Q2.6359 572.507 4.4646 574.683 Q6.31644 576.835 9.46457 576.835 Q12.6127 576.835 14.4414 574.683 Q16.2932 572.507 16.2932 568.78 Q16.2932 565.03 14.4414 562.877 Q12.6127 560.724 9.46457 560.724 M18.7469 546.072 L18.7469 550.331 Q16.9877 549.498 15.1821 549.058 Q13.3997 548.618 11.6405 548.618 Q7.01088 548.618 4.55719 551.743 Q2.12665 554.868 1.77943 561.187 Q3.14516 559.173 5.20533 558.109 Q7.26551 557.021 9.74235 557.021 Q14.9507 557.021 17.9599 560.192 Q20.9923 563.34 20.9923 568.78 Q20.9923 574.104 17.8442 577.322 Q14.696 580.539 9.46457 580.539 Q3.46923 580.539 0.297953 575.956 Q-2.87333 571.349 -2.87333 562.623 Q-2.87333 554.428 1.01554 549.567 Q4.90441 544.683 11.4553 544.683 Q13.2146 544.683 14.9969 545.03 Q16.8025 545.377 18.7469 546.072 Z" fill="#000000" fill-rule="evenodd" fill-opacity="1" /><path clip-path="url(#clip270)" d="M39.0477 548.386 Q35.4367 548.386 33.608 551.951 Q31.8024 555.493 31.8024 562.623 Q31.8024 569.729 33.608 573.294 Q35.4367 576.835 39.0477 576.835 Q42.682 576.835 44.4875 573.294 Q46.3162 569.729 46.3162 562.623 Q46.3162 555.493 44.4875 551.951 Q42.682 548.386 39.0477 548.386 M39.0477 544.683 Q44.8579 544.683 47.9134 549.289 Q50.9921 553.873 50.9921 562.623 Q50.9921 571.349 47.9134 575.956 Q44.8579 580.539 39.0477 580.539 Q33.2376 580.539 30.1589 575.956 Q27.1034 571.349 27.1034 562.623 Q27.1034 553.873 30.1589 549.289 Q33.2376 544.683 39.0477 544.683 Z" fill="#000000" fill-rule="evenodd" fill-opacity="1" /><path clip-path="url(#clip270)" d="M8.88587 257.886 Q5.55255 257.886 3.63127 259.668 Q1.73313 261.451 1.73313 264.576 Q1.73313 267.701 3.63127 269.483 Q5.55255 271.265 8.88587 271.265 Q12.2192 271.265 14.1405 269.483 Q16.0618 267.678 16.0618 264.576 Q16.0618 261.451 14.1405 259.668 Q12.2423 257.886 8.88587 257.886 M4.20997 255.895 Q1.20073 255.154 -0.48908 253.094 Q-2.15574 251.034 -2.15574 248.071 Q-2.15574 243.928 0.784062 241.52 Q3.74701 239.113 8.88587 239.113 Q14.0479 239.113 16.9877 241.52 Q19.9275 243.928 19.9275 248.071 Q19.9275 251.034 18.2377 253.094 Q16.571 255.154 13.5849 255.895 Q16.9645 256.682 18.8395 258.974 Q20.7377 261.266 20.7377 264.576 Q20.7377 269.599 17.659 272.284 Q14.6034 274.969 8.88587 274.969 Q3.16831 274.969 0.089621 272.284 Q-2.96592 269.599 -2.96592 264.576 Q-2.96592 261.266 -1.06778 258.974 Q0.830358 256.682 4.20997 255.895 M2.49702 248.511 Q2.49702 251.196 4.16367 252.701 Q5.85348 254.205 8.88587 254.205 Q11.8951 254.205 13.5849 252.701 Q15.2979 251.196 15.2979 248.511 Q15.2979 245.826 13.5849 244.321 Q11.8951 242.817 8.88587 242.817 Q5.85348 242.817 4.16367 244.321 Q2.49702 245.826 2.49702 248.511 Z" fill="#000000" fill-rule="evenodd" fill-opacity="1" /><path clip-path="url(#clip270)" d="M39.0477 242.817 Q35.4367 242.817 33.608 246.381 Q31.8024 249.923 31.8024 257.053 Q31.8024 264.159 33.608 267.724 Q35.4367 271.265 39.0477 271.265 Q42.682 271.265 44.4875 267.724 Q46.3162 264.159 46.3162 257.053 Q46.3162 249.923 44.4875 246.381 Q42.682 242.817 39.0477 242.817 M39.0477 239.113 Q44.8579 239.113 47.9134 243.719 Q50.9921 248.303 50.9921 257.053 Q50.9921 265.779 47.9134 270.386 Q44.8579 274.969 39.0477 274.969 Q33.2376 274.969 30.1589 270.386 Q27.1034 265.779 27.1034 257.053 Q27.1034 248.303 30.1589 243.719 Q33.2376 239.113 39.0477 239.113 Z" fill="#000000" fill-rule="evenodd" fill-opacity="1" /><polyline clip-path="url(#clip272)" style="stroke:#009af9; stroke-linecap:butt; stroke-linejoin:round; stroke-width:2; stroke-opacity:1; fill:none" points="
  151.118,1479.3 263.618,1479.3 376.119,1464.02 488.62,1448.74 601.12,1433.46 713.621,1433.46 826.122,1433.46 938.622,1418.18 1051.12,1402.91 1163.62,1372.35 
  1276.12,1357.07 1388.63,1341.79 1501.13,1341.79 1613.63,1234.84 1726.13,1265.4 1838.63,1280.68 1951.13,1265.4 2063.63,1250.12 2176.13,1234.84 2288.63,1173.73 
  
  "/>
<polyline clip-path="url(#clip272)" style="stroke:#e26f46; stroke-linecap:butt; stroke-linejoin:round; stroke-width:2; stroke-opacity:1; fill:none" points="
  151.118,1479.3 263.618,1479.3 376.119,1433.46 488.62,1372.35 601.12,1280.68 713.621,1234.84 826.122,1097.34 938.622,1036.22 1051.12,1020.94 1163.62,975.107 
  1276.12,975.107 1388.63,913.993 1501.13,776.487 1613.63,730.651 1726.13,730.651 1838.63,669.537 1951.13,577.866 2063.63,547.309 2176.13,501.474 2288.63,501.474 
  
  "/>
<polyline clip-path="url(#clip272)" style="stroke:#3da44d; stroke-linecap:butt; stroke-linejoin:round; stroke-width:2; stroke-opacity:1; fill:none" points="
  151.118,1479.3 263.618,1479.3 376.119,1433.46 488.62,1418.18 601.12,1265.4 713.621,1189.01 826.122,1036.22 938.622,929.272 1051.12,791.765 1163.62,776.487 
  1276.12,654.259 1388.63,654.259 1501.13,593.145 1613.63,501.474 1726.13,470.917 1838.63,409.803 1951.13,409.803 2063.63,363.967 2176.13,379.246 2288.63,318.132 
  
  "/>
<polyline clip-path="url(#clip272)" style="stroke:#c271d2; stroke-linecap:butt; stroke-linejoin:round; stroke-width:2; stroke-opacity:1; fill:none" points="
  151.118,1479.3 263.618,1479.3 376.119,1357.07 488.62,1189.01 601.12,975.107 713.621,776.487 826.122,715.373 938.622,684.816 1051.12,654.259 1163.62,486.195 
  1276.12,440.36 1388.63,409.803 1501.13,425.081 1613.63,318.132 1726.13,318.132 1838.63,226.461 1951.13,226.461 2063.63,272.296 2176.13,241.739 2288.63,257.018 
  
  "/>
<polyline clip-path="url(#clip272)" style="stroke:#ac8d18; stroke-linecap:butt; stroke-linejoin:round; stroke-width:2; stroke-opacity:1; fill:none" points="
  151.118,1479.3 263.618,1479.3 376.119,1020.94 488.62,837.601 601.12,608.423 713.621,409.803 826.122,348.689 938.622,348.689 1051.12,302.853 1163.62,302.853 
  1276.12,272.296 1388.63,287.575 1501.13,241.739 1613.63,257.018 1726.13,287.575 1838.63,318.132 1951.13,318.132 2063.63,272.296 2176.13,211.182 2288.63,257.018 
  
  "/>
<polyline clip-path="url(#clip272)" style="stroke:#00a9ad; stroke-linecap:butt; stroke-linejoin:round; stroke-width:2; stroke-opacity:1; fill:none" points="
  151.118,1479.3 263.618,1479.3 376.119,1051.5 488.62,852.879 601.12,791.765 713.621,669.537 826.122,577.866 938.622,455.638 1051.12,318.132 1163.62,287.575 
  1276.12,134.79 1388.63,150.068 1501.13,119.511 1613.63,134.79 1726.13,134.79 1838.63,104.233 1951.13,88.9544 2063.63,134.79 2176.13,150.068 2288.63,180.625 
  
  "/>
<polyline clip-path="url(#clip272)" style="stroke:#ed5d92; stroke-linecap:butt; stroke-linejoin:round; stroke-width:2; stroke-opacity:1; fill:none" points="
  151.118,1479.3 263.618,1479.3 376.119,1020.94 488.62,730.651 601.12,547.309 713.621,379.246 826.122,302.853 938.622,257.018 1051.12,241.739 1163.62,226.461 
  1276.12,287.575 1388.63,257.018 1501.13,241.739 1613.63,241.739 1726.13,226.461 1838.63,257.018 1951.13,272.296 2063.63,226.461 2176.13,195.904 2288.63,180.625 
  
  "/>
<polyline clip-path="url(#clip272)" style="stroke:#c68125; stroke-linecap:butt; stroke-linejoin:round; stroke-width:2; stroke-opacity:1; fill:none" points="
  151.118,1479.3 263.618,1479.3 376.119,1295.96 488.62,1051.5 601.12,822.322 713.621,547.309 826.122,486.195 938.622,409.803 1051.12,333.41 1163.62,363.967 
  1276.12,363.967 1388.63,287.575 1501.13,257.018 1613.63,241.739 1726.13,195.904 1838.63,241.739 1951.13,287.575 2063.63,241.739 2176.13,226.461 2288.63,180.625 
  
  "/>
<polyline clip-path="url(#clip272)" style="stroke:#00a98d; stroke-linecap:butt; stroke-linejoin:round; stroke-width:2; stroke-opacity:1; fill:none" points="
  151.118,1479.3 263.618,1479.3 376.119,1173.73 488.62,944.55 601.12,669.537 713.621,455.638 826.122,409.803 938.622,363.967 1051.12,287.575 1163.62,257.018 
  1276.12,241.739 1388.63,241.739 1501.13,272.296 1613.63,241.739 1726.13,241.739 1838.63,211.182 1951.13,180.625 2063.63,226.461 2176.13,241.739 2288.63,180.625 
  
  "/>
<path clip-path="url(#clip270)" d="
M1926.85 701.17 L2277.23 701.17 L2277.23 96.3696 L1926.85 96.3696  Z
  " fill="#ffffff" fill-rule="evenodd" fill-opacity="1"/>
<polyline clip-path="url(#clip270)" style="stroke:#000000; stroke-linecap:butt; stroke-linejoin:round; stroke-width:4; stroke-opacity:1; fill:none" points="
  1926.85,701.17 2277.23,701.17 2277.23,96.3696 1926.85,96.3696 1926.85,701.17 
  "/>
<polyline clip-path="url(#clip270)" style="stroke:#009af9; stroke-linecap:butt; stroke-linejoin:round; stroke-width:4; stroke-opacity:1; fill:none" points="
  1952.02,156.85 2103.07,156.85 
  "/>
<path clip-path="url(#clip270)" d="M2140.19 142.648 Q2136.58 142.648 2134.75 146.213 Q2132.95 149.755 2132.95 156.884 Q2132.95 163.991 2134.75 167.556 Q2136.58 171.097 2140.19 171.097 Q2143.83 171.097 2145.63 167.556 Q2147.46 163.991 2147.46 156.884 Q2147.46 149.755 2145.63 146.213 Q2143.83 142.648 2140.19 142.648 M2140.19 138.945 Q2146 138.945 2149.06 143.551 Q2152.14 148.134 2152.14 156.884 Q2152.14 165.611 2149.06 170.218 Q2146 174.801 2140.19 174.801 Q2134.38 174.801 2131.3 170.218 Q2128.25 165.611 2128.25 156.884 Q2128.25 148.134 2131.3 143.551 Q2134.38 138.945 2140.19 138.945 Z" fill="#000000" fill-rule="evenodd" fill-opacity="1" /><path clip-path="url(#clip270)" d="M2160.35 168.25 L2165.24 168.25 L2165.24 174.13 L2160.35 174.13 L2160.35 168.25 Z" fill="#000000" fill-rule="evenodd" fill-opacity="1" /><path clip-path="url(#clip270)" d="M2185.42 142.648 Q2181.81 142.648 2179.98 146.213 Q2178.18 149.755 2178.18 156.884 Q2178.18 163.991 2179.98 167.556 Q2181.81 171.097 2185.42 171.097 Q2189.06 171.097 2190.86 167.556 Q2192.69 163.991 2192.69 156.884 Q2192.69 149.755 2190.86 146.213 Q2189.06 142.648 2185.42 142.648 M2185.42 138.945 Q2191.23 138.945 2194.29 143.551 Q2197.37 148.134 2197.37 156.884 Q2197.37 165.611 2194.29 170.218 Q2191.23 174.801 2185.42 174.801 Q2179.61 174.801 2176.53 170.218 Q2173.48 165.611 2173.48 156.884 Q2173.48 148.134 2176.53 143.551 Q2179.61 138.945 2185.42 138.945 Z" fill="#000000" fill-rule="evenodd" fill-opacity="1" /><path clip-path="url(#clip270)" d="M2206.39 170.194 L2214.03 170.194 L2214.03 143.829 L2205.72 145.495 L2205.72 141.236 L2213.99 139.57 L2218.66 139.57 L2218.66 170.194 L2226.3 170.194 L2226.3 174.13 L2206.39 174.13 L2206.39 170.194 Z" fill="#000000" fill-rule="evenodd" fill-opacity="1" /><polyline clip-path="url(#clip270)" style="stroke:#e26f46; stroke-linecap:butt; stroke-linejoin:round; stroke-width:4; stroke-opacity:1; fill:none" points="
  1952.02,217.33 2103.07,217.33 
  "/>
<path clip-path="url(#clip270)" d="M2140.19 203.128 Q2136.58 203.128 2134.75 206.693 Q2132.95 210.235 2132.95 217.364 Q2132.95 224.471 2134.75 228.036 Q2136.58 231.577 2140.19 231.577 Q2143.83 231.577 2145.63 228.036 Q2147.46 224.471 2147.46 217.364 Q2147.46 210.235 2145.63 206.693 Q2143.83 203.128 2140.19 203.128 M2140.19 199.425 Q2146 199.425 2149.06 204.031 Q2152.14 208.614 2152.14 217.364 Q2152.14 226.091 2149.06 230.698 Q2146 235.281 2140.19 235.281 Q2134.38 235.281 2131.3 230.698 Q2128.25 226.091 2128.25 217.364 Q2128.25 208.614 2131.3 204.031 Q2134.38 199.425 2140.19 199.425 Z" fill="#000000" fill-rule="evenodd" fill-opacity="1" /><path clip-path="url(#clip270)" d="M2160.35 228.73 L2165.24 228.73 L2165.24 234.61 L2160.35 234.61 L2160.35 228.73 Z" fill="#000000" fill-rule="evenodd" fill-opacity="1" /><path clip-path="url(#clip270)" d="M2185.42 203.128 Q2181.81 203.128 2179.98 206.693 Q2178.18 210.235 2178.18 217.364 Q2178.18 224.471 2179.98 228.036 Q2181.81 231.577 2185.42 231.577 Q2189.06 231.577 2190.86 228.036 Q2192.69 224.471 2192.69 217.364 Q2192.69 210.235 2190.86 206.693 Q2189.06 203.128 2185.42 203.128 M2185.42 199.425 Q2191.23 199.425 2194.29 204.031 Q2197.37 208.614 2197.37 217.364 Q2197.37 226.091 2194.29 230.698 Q2191.23 235.281 2185.42 235.281 Q2179.61 235.281 2176.53 230.698 Q2173.48 226.091 2173.48 217.364 Q2173.48 208.614 2176.53 204.031 Q2179.61 199.425 2185.42 199.425 Z" fill="#000000" fill-rule="evenodd" fill-opacity="1" /><path clip-path="url(#clip270)" d="M2205.63 200.05 L2223.99 200.05 L2223.99 203.985 L2209.91 203.985 L2209.91 212.457 Q2210.93 212.11 2211.95 211.948 Q2212.97 211.762 2213.99 211.762 Q2219.77 211.762 2223.15 214.934 Q2226.53 218.105 2226.53 223.522 Q2226.53 229.1 2223.06 232.202 Q2219.59 235.281 2213.27 235.281 Q2211.09 235.281 2208.82 234.91 Q2206.58 234.54 2204.17 233.799 L2204.17 229.1 Q2206.26 230.235 2208.48 230.79 Q2210.7 231.346 2213.18 231.346 Q2217.18 231.346 2219.52 229.239 Q2221.86 227.133 2221.86 223.522 Q2221.86 219.911 2219.52 217.804 Q2217.18 215.698 2213.18 215.698 Q2211.3 215.698 2209.43 216.114 Q2207.57 216.531 2205.63 217.411 L2205.63 200.05 Z" fill="#000000" fill-rule="evenodd" fill-opacity="1" /><polyline clip-path="url(#clip270)" style="stroke:#3da44d; stroke-linecap:butt; stroke-linejoin:round; stroke-width:4; stroke-opacity:1; fill:none" points="
  1952.02,277.81 2103.07,277.81 
  "/>
<path clip-path="url(#clip270)" d="M2140.19 263.608 Q2136.58 263.608 2134.75 267.173 Q2132.95 270.715 2132.95 277.844 Q2132.95 284.951 2134.75 288.516 Q2136.58 292.057 2140.19 292.057 Q2143.83 292.057 2145.63 288.516 Q2147.46 284.951 2147.46 277.844 Q2147.46 270.715 2145.63 267.173 Q2143.83 263.608 2140.19 263.608 M2140.19 259.905 Q2146 259.905 2149.06 264.511 Q2152.14 269.094 2152.14 277.844 Q2152.14 286.571 2149.06 291.178 Q2146 295.761 2140.19 295.761 Q2134.38 295.761 2131.3 291.178 Q2128.25 286.571 2128.25 277.844 Q2128.25 269.094 2131.3 264.511 Q2134.38 259.905 2140.19 259.905 Z" fill="#000000" fill-rule="evenodd" fill-opacity="1" /><path clip-path="url(#clip270)" d="M2160.35 289.21 L2165.24 289.21 L2165.24 295.09 L2160.35 295.09 L2160.35 289.21 Z" fill="#000000" fill-rule="evenodd" fill-opacity="1" /><path clip-path="url(#clip270)" d="M2176.23 291.154 L2183.87 291.154 L2183.87 264.789 L2175.56 266.455 L2175.56 262.196 L2183.82 260.53 L2188.5 260.53 L2188.5 291.154 L2196.14 291.154 L2196.14 295.09 L2176.23 295.09 L2176.23 291.154 Z" fill="#000000" fill-rule="evenodd" fill-opacity="1" /><polyline clip-path="url(#clip270)" style="stroke:#c271d2; stroke-linecap:butt; stroke-linejoin:round; stroke-width:4; stroke-opacity:1; fill:none" points="
  1952.02,338.29 2103.07,338.29 
  "/>
<path clip-path="url(#clip270)" d="M2140.19 324.088 Q2136.58 324.088 2134.75 327.653 Q2132.95 331.195 2132.95 338.324 Q2132.95 345.431 2134.75 348.996 Q2136.58 352.537 2140.19 352.537 Q2143.83 352.537 2145.63 348.996 Q2147.46 345.431 2147.46 338.324 Q2147.46 331.195 2145.63 327.653 Q2143.83 324.088 2140.19 324.088 M2140.19 320.385 Q2146 320.385 2149.06 324.991 Q2152.14 329.574 2152.14 338.324 Q2152.14 347.051 2149.06 351.658 Q2146 356.241 2140.19 356.241 Q2134.38 356.241 2131.3 351.658 Q2128.25 347.051 2128.25 338.324 Q2128.25 329.574 2131.3 324.991 Q2134.38 320.385 2140.19 320.385 Z" fill="#000000" fill-rule="evenodd" fill-opacity="1" /><path clip-path="url(#clip270)" d="M2160.35 349.69 L2165.24 349.69 L2165.24 355.57 L2160.35 355.57 L2160.35 349.69 Z" fill="#000000" fill-rule="evenodd" fill-opacity="1" /><path clip-path="url(#clip270)" d="M2179.45 351.634 L2195.77 351.634 L2195.77 355.57 L2173.82 355.57 L2173.82 351.634 Q2176.49 348.88 2181.07 344.25 Q2185.68 339.597 2186.86 338.255 Q2189.1 335.732 2189.98 333.996 Q2190.88 332.236 2190.88 330.547 Q2190.88 327.792 2188.94 326.056 Q2187.02 324.32 2183.92 324.32 Q2181.72 324.32 2179.26 325.084 Q2176.83 325.847 2174.06 327.398 L2174.06 322.676 Q2176.88 321.542 2179.33 320.963 Q2181.79 320.385 2183.82 320.385 Q2189.2 320.385 2192.39 323.07 Q2195.58 325.755 2195.58 330.246 Q2195.58 332.375 2194.77 334.297 Q2193.99 336.195 2191.88 338.787 Q2191.3 339.459 2188.2 342.676 Q2185.1 345.871 2179.45 351.634 Z" fill="#000000" fill-rule="evenodd" fill-opacity="1" /><polyline clip-path="url(#clip270)" style="stroke:#ac8d18; stroke-linecap:butt; stroke-linejoin:round; stroke-width:4; stroke-opacity:1; fill:none" points="
  1952.02,398.77 2103.07,398.77 
  "/>
<path clip-path="url(#clip270)" d="M2140.19 384.568 Q2136.58 384.568 2134.75 388.133 Q2132.95 391.675 2132.95 398.804 Q2132.95 405.911 2134.75 409.476 Q2136.58 413.017 2140.19 413.017 Q2143.83 413.017 2145.63 409.476 Q2147.46 405.911 2147.46 398.804 Q2147.46 391.675 2145.63 388.133 Q2143.83 384.568 2140.19 384.568 M2140.19 380.865 Q2146 380.865 2149.06 385.471 Q2152.14 390.054 2152.14 398.804 Q2152.14 407.531 2149.06 412.138 Q2146 416.721 2140.19 416.721 Q2134.38 416.721 2131.3 412.138 Q2128.25 407.531 2128.25 398.804 Q2128.25 390.054 2131.3 385.471 Q2134.38 380.865 2140.19 380.865 Z" fill="#000000" fill-rule="evenodd" fill-opacity="1" /><path clip-path="url(#clip270)" d="M2160.35 410.17 L2165.24 410.17 L2165.24 416.05 L2160.35 416.05 L2160.35 410.17 Z" fill="#000000" fill-rule="evenodd" fill-opacity="1" /><path clip-path="url(#clip270)" d="M2186 396.906 Q2182.85 396.906 2181 399.059 Q2179.17 401.212 2179.17 404.962 Q2179.17 408.688 2181 410.864 Q2182.85 413.017 2186 413.017 Q2189.15 413.017 2190.98 410.864 Q2192.83 408.688 2192.83 404.962 Q2192.83 401.212 2190.98 399.059 Q2189.15 396.906 2186 396.906 M2195.28 382.253 L2195.28 386.513 Q2193.52 385.679 2191.72 385.24 Q2189.94 384.8 2188.18 384.8 Q2183.55 384.8 2181.09 387.925 Q2178.66 391.05 2178.32 397.369 Q2179.68 395.355 2181.74 394.29 Q2183.8 393.202 2186.28 393.202 Q2191.49 393.202 2194.5 396.374 Q2197.53 399.522 2197.53 404.962 Q2197.53 410.286 2194.38 413.503 Q2191.23 416.721 2186 416.721 Q2180.01 416.721 2176.83 412.138 Q2173.66 407.531 2173.66 398.804 Q2173.66 390.61 2177.55 385.749 Q2181.44 380.865 2187.99 380.865 Q2189.75 380.865 2191.53 381.212 Q2193.34 381.559 2195.28 382.253 Z" fill="#000000" fill-rule="evenodd" fill-opacity="1" /><polyline clip-path="url(#clip270)" style="stroke:#00a9ad; stroke-linecap:butt; stroke-linejoin:round; stroke-width:4; stroke-opacity:1; fill:none" points="
  1952.02,459.25 2103.07,459.25 
  "/>
<path clip-path="url(#clip270)" d="M2140.19 445.048 Q2136.58 445.048 2134.75 448.613 Q2132.95 452.155 2132.95 459.284 Q2132.95 466.391 2134.75 469.956 Q2136.58 473.497 2140.19 473.497 Q2143.83 473.497 2145.63 469.956 Q2147.46 466.391 2147.46 459.284 Q2147.46 452.155 2145.63 448.613 Q2143.83 445.048 2140.19 445.048 M2140.19 441.345 Q2146 441.345 2149.06 445.951 Q2152.14 450.534 2152.14 459.284 Q2152.14 468.011 2149.06 472.618 Q2146 477.201 2140.19 477.201 Q2134.38 477.201 2131.3 472.618 Q2128.25 468.011 2128.25 459.284 Q2128.25 450.534 2131.3 445.951 Q2134.38 441.345 2140.19 441.345 Z" fill="#000000" fill-rule="evenodd" fill-opacity="1" /><path clip-path="url(#clip270)" d="M2160.35 470.65 L2165.24 470.65 L2165.24 476.53 L2160.35 476.53 L2160.35 470.65 Z" fill="#000000" fill-rule="evenodd" fill-opacity="1" /><path clip-path="url(#clip270)" d="M2174.24 441.97 L2196.46 441.97 L2196.46 443.96 L2183.92 476.53 L2179.03 476.53 L2190.84 445.905 L2174.24 445.905 L2174.24 441.97 Z" fill="#000000" fill-rule="evenodd" fill-opacity="1" /><polyline clip-path="url(#clip270)" style="stroke:#ed5d92; stroke-linecap:butt; stroke-linejoin:round; stroke-width:4; stroke-opacity:1; fill:none" points="
  1952.02,519.73 2103.07,519.73 
  "/>
<path clip-path="url(#clip270)" d="M2128.92 533.074 L2136.56 533.074 L2136.56 506.709 L2128.25 508.375 L2128.25 504.116 L2136.51 502.45 L2141.19 502.45 L2141.19 533.074 L2148.83 533.074 L2148.83 537.01 L2128.92 537.01 L2128.92 533.074 Z" fill="#000000" fill-rule="evenodd" fill-opacity="1" /><path clip-path="url(#clip270)" d="M2158.27 531.13 L2163.15 531.13 L2163.15 537.01 L2158.27 537.01 L2158.27 531.13 Z" fill="#000000" fill-rule="evenodd" fill-opacity="1" /><path clip-path="url(#clip270)" d="M2183.34 505.528 Q2179.73 505.528 2177.9 509.093 Q2176.09 512.635 2176.09 519.764 Q2176.09 526.871 2177.9 530.436 Q2179.73 533.977 2183.34 533.977 Q2186.97 533.977 2188.78 530.436 Q2190.61 526.871 2190.61 519.764 Q2190.61 512.635 2188.78 509.093 Q2186.97 505.528 2183.34 505.528 M2183.34 501.825 Q2189.15 501.825 2192.2 506.431 Q2195.28 511.014 2195.28 519.764 Q2195.28 528.491 2192.2 533.098 Q2189.15 537.681 2183.34 537.681 Q2177.53 537.681 2174.45 533.098 Q2171.39 528.491 2171.39 519.764 Q2171.39 511.014 2174.45 506.431 Q2177.53 501.825 2183.34 501.825 Z" fill="#000000" fill-rule="evenodd" fill-opacity="1" /><polyline clip-path="url(#clip270)" style="stroke:#c68125; stroke-linecap:butt; stroke-linejoin:round; stroke-width:4; stroke-opacity:1; fill:none" points="
  1952.02,580.21 2103.07,580.21 
  "/>
<path clip-path="url(#clip270)" d="M2140.19 566.008 Q2136.58 566.008 2134.75 569.573 Q2132.95 573.115 2132.95 580.244 Q2132.95 587.351 2134.75 590.916 Q2136.58 594.457 2140.19 594.457 Q2143.83 594.457 2145.63 590.916 Q2147.46 587.351 2147.46 580.244 Q2147.46 573.115 2145.63 569.573 Q2143.83 566.008 2140.19 566.008 M2140.19 562.305 Q2146 562.305 2149.06 566.911 Q2152.14 571.494 2152.14 580.244 Q2152.14 588.971 2149.06 593.578 Q2146 598.161 2140.19 598.161 Q2134.38 598.161 2131.3 593.578 Q2128.25 588.971 2128.25 580.244 Q2128.25 571.494 2131.3 566.911 Q2134.38 562.305 2140.19 562.305 Z" fill="#000000" fill-rule="evenodd" fill-opacity="1" /><path clip-path="url(#clip270)" d="M2160.35 591.61 L2165.24 591.61 L2165.24 597.49 L2160.35 597.49 L2160.35 591.61 Z" fill="#000000" fill-rule="evenodd" fill-opacity="1" /><path clip-path="url(#clip270)" d="M2189.59 578.855 Q2192.95 579.573 2194.82 581.841 Q2196.72 584.11 2196.72 587.443 Q2196.72 592.559 2193.2 595.36 Q2189.68 598.161 2183.2 598.161 Q2181.02 598.161 2178.71 597.721 Q2176.42 597.304 2173.96 596.448 L2173.96 591.934 Q2175.91 593.068 2178.22 593.647 Q2180.54 594.226 2183.06 594.226 Q2187.46 594.226 2189.75 592.49 Q2192.07 590.753 2192.07 587.443 Q2192.07 584.388 2189.91 582.675 Q2187.78 580.939 2183.96 580.939 L2179.94 580.939 L2179.94 577.096 L2184.15 577.096 Q2187.6 577.096 2189.43 575.73 Q2191.26 574.342 2191.26 571.749 Q2191.26 569.087 2189.36 567.675 Q2187.48 566.24 2183.96 566.24 Q2182.04 566.24 2179.84 566.656 Q2177.64 567.073 2175.01 567.953 L2175.01 563.786 Q2177.67 563.045 2179.98 562.675 Q2182.32 562.305 2184.38 562.305 Q2189.7 562.305 2192.81 564.735 Q2195.91 567.142 2195.91 571.263 Q2195.91 574.133 2194.26 576.124 Q2192.62 578.092 2189.59 578.855 Z" fill="#000000" fill-rule="evenodd" fill-opacity="1" /><polyline clip-path="url(#clip270)" style="stroke:#00a98d; stroke-linecap:butt; stroke-linejoin:round; stroke-width:4; stroke-opacity:1; fill:none" points="
  1952.02,640.69 2103.07,640.69 
  "/>
<path clip-path="url(#clip270)" d="M2140.19 626.488 Q2136.58 626.488 2134.75 630.053 Q2132.95 633.595 2132.95 640.724 Q2132.95 647.831 2134.75 651.396 Q2136.58 654.937 2140.19 654.937 Q2143.83 654.937 2145.63 651.396 Q2147.46 647.831 2147.46 640.724 Q2147.46 633.595 2145.63 630.053 Q2143.83 626.488 2140.19 626.488 M2140.19 622.785 Q2146 622.785 2149.06 627.391 Q2152.14 631.974 2152.14 640.724 Q2152.14 649.451 2149.06 654.058 Q2146 658.641 2140.19 658.641 Q2134.38 658.641 2131.3 654.058 Q2128.25 649.451 2128.25 640.724 Q2128.25 631.974 2131.3 627.391 Q2134.38 622.785 2140.19 622.785 Z" fill="#000000" fill-rule="evenodd" fill-opacity="1" /><path clip-path="url(#clip270)" d="M2160.35 652.09 L2165.24 652.09 L2165.24 657.97 L2160.35 657.97 L2160.35 652.09 Z" fill="#000000" fill-rule="evenodd" fill-opacity="1" /><path clip-path="url(#clip270)" d="M2185.42 641.558 Q2182.09 641.558 2180.17 643.34 Q2178.27 645.122 2178.27 648.247 Q2178.27 651.372 2180.17 653.155 Q2182.09 654.937 2185.42 654.937 Q2188.76 654.937 2190.68 653.155 Q2192.6 651.349 2192.6 648.247 Q2192.6 645.122 2190.68 643.34 Q2188.78 641.558 2185.42 641.558 M2180.75 639.567 Q2177.74 638.826 2176.05 636.766 Q2174.38 634.706 2174.38 631.743 Q2174.38 627.599 2177.32 625.192 Q2180.28 622.785 2185.42 622.785 Q2190.58 622.785 2193.52 625.192 Q2196.46 627.599 2196.46 631.743 Q2196.46 634.706 2194.77 636.766 Q2193.11 638.826 2190.12 639.567 Q2193.5 640.354 2195.38 642.646 Q2197.27 644.937 2197.27 648.247 Q2197.27 653.271 2194.2 655.956 Q2191.14 658.641 2185.42 658.641 Q2179.7 658.641 2176.63 655.956 Q2173.57 653.271 2173.57 648.247 Q2173.57 644.937 2175.47 642.646 Q2177.37 640.354 2180.75 639.567 M2179.03 632.183 Q2179.03 634.868 2180.7 636.372 Q2182.39 637.877 2185.42 637.877 Q2188.43 637.877 2190.12 636.372 Q2191.83 634.868 2191.83 632.183 Q2191.83 629.497 2190.12 627.993 Q2188.43 626.488 2185.42 626.488 Q2182.39 626.488 2180.7 627.993 Q2179.03 629.497 2179.03 632.183 Z" fill="#000000" fill-rule="evenodd" fill-opacity="1" /><path clip-path="url(#clip270)" d="M2219.75 639.335 Q2223.11 640.053 2224.98 642.321 Q2226.88 644.59 2226.88 647.923 Q2226.88 653.039 2223.36 655.84 Q2219.84 658.641 2213.36 658.641 Q2211.19 658.641 2208.87 658.201 Q2206.58 657.784 2204.13 656.928 L2204.13 652.414 Q2206.07 653.548 2208.38 654.127 Q2210.7 654.706 2213.22 654.706 Q2217.62 654.706 2219.91 652.97 Q2222.23 651.233 2222.23 647.923 Q2222.23 644.868 2220.07 643.155 Q2217.95 641.419 2214.13 641.419 L2210.1 641.419 L2210.1 637.576 L2214.31 637.576 Q2217.76 637.576 2219.59 636.21 Q2221.42 634.822 2221.42 632.229 Q2221.42 629.567 2219.52 628.155 Q2217.64 626.72 2214.13 626.72 Q2212.2 626.72 2210.01 627.136 Q2207.81 627.553 2205.17 628.433 L2205.17 624.266 Q2207.83 623.525 2210.14 623.155 Q2212.48 622.785 2214.54 622.785 Q2219.87 622.785 2222.97 625.215 Q2226.07 627.622 2226.07 631.743 Q2226.07 634.613 2224.43 636.604 Q2222.78 638.572 2219.75 639.335 Z" fill="#000000" fill-rule="evenodd" fill-opacity="1" /></svg>
