<?xml version="1.0" encoding="utf-8"?>
<svg xmlns="http://www.w3.org/2000/svg" xmlns:xlink="http://www.w3.org/1999/xlink" width="600" height="400" viewBox="0 0 2400 1600">
<defs>
  <clipPath id="clip490">
    <rect x="0" y="0" width="2400" height="1600"/>
  </clipPath>
</defs>
<path clip-path="url(#clip490)" d="
M0 1600 L2400 1600 L2400 0 L0 0  Z
  " fill="#ffffff" fill-rule="evenodd" fill-opacity="1"/>
<defs>
  <clipPath id="clip491">
    <rect x="480" y="0" width="1681" height="1600"/>
  </clipPath>
</defs>
<path clip-path="url(#clip490)" d="
M86.9921 1521.01 L2352.76 1521.01 L2352.76 47.2441 L86.9921 47.2441  Z
  " fill="#ffffff" fill-rule="evenodd" fill-opacity="1"/>
<defs>
  <clipPath id="clip492">
    <rect x="86" y="47" width="2267" height="1475"/>
  </clipPath>
</defs>
<polyline clip-path="url(#clip492)" style="stroke:#000000; stroke-linecap:butt; stroke-linejoin:round; stroke-width:2; stroke-opacity:0.1; fill:none" points="
  601.12,1521.01 601.12,47.2441 
  "/>
<polyline clip-path="url(#clip492)" style="stroke:#000000; stroke-linecap:butt; stroke-linejoin:round; stroke-width:2; stroke-opacity:0.1; fill:none" points="
  1163.62,1521.01 1163.62,47.2441 
  "/>
<polyline clip-path="url(#clip492)" style="stroke:#000000; stroke-linecap:butt; stroke-linejoin:round; stroke-width:2; stroke-opacity:0.1; fill:none" points="
  1726.13,1521.01 1726.13,47.2441 
  "/>
<polyline clip-path="url(#clip492)" style="stroke:#000000; stroke-linecap:butt; stroke-linejoin:round; stroke-width:2; stroke-opacity:0.1; fill:none" points="
  2288.63,1521.01 2288.63,47.2441 
  "/>
<polyline clip-path="url(#clip490)" style="stroke:#000000; stroke-linecap:butt; stroke-linejoin:round; stroke-width:4; stroke-opacity:1; fill:none" points="
  86.9921,1521.01 2352.76,1521.01 
  "/>
<polyline clip-path="url(#clip490)" style="stroke:#000000; stroke-linecap:butt; stroke-linejoin:round; stroke-width:4; stroke-opacity:1; fill:none" points="
  601.12,1521.01 601.12,1503.32 
  "/>
<polyline clip-path="url(#clip490)" style="stroke:#000000; stroke-linecap:butt; stroke-linejoin:round; stroke-width:4; stroke-opacity:1; fill:none" points="
  1163.62,1521.01 1163.62,1503.32 
  "/>
<polyline clip-path="url(#clip490)" style="stroke:#000000; stroke-linecap:butt; stroke-linejoin:round; stroke-width:4; stroke-opacity:1; fill:none" points="
  1726.13,1521.01 1726.13,1503.32 
  "/>
<polyline clip-path="url(#clip490)" style="stroke:#000000; stroke-linecap:butt; stroke-linejoin:round; stroke-width:4; stroke-opacity:1; fill:none" points="
  2288.63,1521.01 2288.63,1503.32 
  "/>
<path clip-path="url(#clip490)" d="M591.398 1547.12 L609.754 1547.12 L609.754 1551.06 L595.68 1551.06 L595.68 1559.53 Q596.699 1559.18 597.717 1559.02 Q598.736 1558.83 599.755 1558.83 Q605.542 1558.83 608.921 1562 Q612.301 1565.18 612.301 1570.59 Q612.301 1576.17 608.829 1579.27 Q605.356 1582.35 599.037 1582.35 Q596.861 1582.35 594.593 1581.98 Q592.347 1581.61 589.94 1580.87 L589.94 1576.17 Q592.023 1577.3 594.245 1577.86 Q596.467 1578.42 598.944 1578.42 Q602.949 1578.42 605.287 1576.31 Q607.625 1574.2 607.625 1570.59 Q607.625 1566.98 605.287 1564.87 Q602.949 1562.77 598.944 1562.77 Q597.069 1562.77 595.194 1563.18 Q593.343 1563.6 591.398 1564.48 L591.398 1547.12 Z" fill="#000000" fill-rule="evenodd" fill-opacity="1" /><path clip-path="url(#clip490)" d="M1138.31 1577.74 L1145.95 1577.74 L1145.95 1551.38 L1137.64 1553.05 L1137.64 1548.79 L1145.9 1547.12 L1150.58 1547.12 L1150.58 1577.74 L1158.22 1577.74 L1158.22 1581.68 L1138.31 1581.68 L1138.31 1577.74 Z" fill="#000000" fill-rule="evenodd" fill-opacity="1" /><path clip-path="url(#clip490)" d="M1177.66 1550.2 Q1174.05 1550.2 1172.22 1553.76 Q1170.42 1557.31 1170.42 1564.43 Q1170.42 1571.54 1172.22 1575.11 Q1174.05 1578.65 1177.66 1578.65 Q1181.3 1578.65 1183.1 1575.11 Q1184.93 1571.54 1184.93 1564.43 Q1184.93 1557.31 1183.1 1553.76 Q1181.3 1550.2 1177.66 1550.2 M1177.66 1546.49 Q1183.47 1546.49 1186.53 1551.1 Q1189.61 1555.68 1189.61 1564.43 Q1189.61 1573.16 1186.53 1577.77 Q1183.47 1582.35 1177.66 1582.35 Q1171.85 1582.35 1168.77 1577.77 Q1165.72 1573.16 1165.72 1564.43 Q1165.72 1555.68 1168.77 1551.1 Q1171.85 1546.49 1177.66 1546.49 Z" fill="#000000" fill-rule="evenodd" fill-opacity="1" /><path clip-path="url(#clip490)" d="M1701.31 1577.74 L1708.95 1577.74 L1708.95 1551.38 L1700.64 1553.05 L1700.64 1548.79 L1708.9 1547.12 L1713.58 1547.12 L1713.58 1577.74 L1721.22 1577.74 L1721.22 1581.68 L1701.31 1581.68 L1701.31 1577.74 Z" fill="#000000" fill-rule="evenodd" fill-opacity="1" /><path clip-path="url(#clip490)" d="M1730.71 1547.12 L1749.07 1547.12 L1749.07 1551.06 L1734.99 1551.06 L1734.99 1559.53 Q1736.01 1559.18 1737.03 1559.02 Q1738.05 1558.83 1739.07 1558.83 Q1744.85 1558.83 1748.23 1562 Q1751.61 1565.18 1751.61 1570.59 Q1751.61 1576.17 1748.14 1579.27 Q1744.67 1582.35 1738.35 1582.35 Q1736.17 1582.35 1733.9 1581.98 Q1731.66 1581.61 1729.25 1580.87 L1729.25 1576.17 Q1731.34 1577.3 1733.56 1577.86 Q1735.78 1578.42 1738.26 1578.42 Q1742.26 1578.42 1744.6 1576.31 Q1746.94 1574.2 1746.94 1570.59 Q1746.94 1566.98 1744.6 1564.87 Q1742.26 1562.77 1738.26 1562.77 Q1736.38 1562.77 1734.51 1563.18 Q1732.65 1563.6 1730.71 1564.48 L1730.71 1547.12 Z" fill="#000000" fill-rule="evenodd" fill-opacity="1" /><path clip-path="url(#clip490)" d="M2267.4 1577.74 L2283.72 1577.74 L2283.72 1581.68 L2261.78 1581.68 L2261.78 1577.74 Q2264.44 1574.99 2269.02 1570.36 Q2273.63 1565.71 2274.81 1564.37 Q2277.06 1561.84 2277.94 1560.11 Q2278.84 1558.35 2278.84 1556.66 Q2278.84 1553.9 2276.89 1552.17 Q2274.97 1550.43 2271.87 1550.43 Q2269.67 1550.43 2267.22 1551.19 Q2264.79 1551.96 2262.01 1553.51 L2262.01 1548.79 Q2264.83 1547.65 2267.29 1547.07 Q2269.74 1546.49 2271.78 1546.49 Q2277.15 1546.49 2280.34 1549.18 Q2283.54 1551.87 2283.54 1556.36 Q2283.54 1558.49 2282.73 1560.41 Q2281.94 1562.3 2279.83 1564.9 Q2279.26 1565.57 2276.15 1568.79 Q2273.05 1571.98 2267.4 1577.74 Z" fill="#000000" fill-rule="evenodd" fill-opacity="1" /><path clip-path="url(#clip490)" d="M2303.54 1550.2 Q2299.93 1550.2 2298.1 1553.76 Q2296.29 1557.31 2296.29 1564.43 Q2296.29 1571.54 2298.1 1575.11 Q2299.93 1578.65 2303.54 1578.65 Q2307.17 1578.65 2308.98 1575.11 Q2310.81 1571.54 2310.81 1564.43 Q2310.81 1557.31 2308.98 1553.76 Q2307.17 1550.2 2303.54 1550.2 M2303.54 1546.49 Q2309.35 1546.49 2312.4 1551.1 Q2315.48 1555.68 2315.48 1564.43 Q2315.48 1573.16 2312.4 1577.77 Q2309.35 1582.35 2303.54 1582.35 Q2297.73 1582.35 2294.65 1577.77 Q2291.59 1573.16 2291.59 1564.43 Q2291.59 1555.68 2294.65 1551.1 Q2297.73 1546.49 2303.54 1546.49 Z" fill="#000000" fill-rule="evenodd" fill-opacity="1" /><polyline clip-path="url(#clip492)" style="stroke:#000000; stroke-linecap:butt; stroke-linejoin:round; stroke-width:2; stroke-opacity:0.1; fill:none" points="
  86.9921,1425.78 2352.76,1425.78 
  "/>
<polyline clip-path="url(#clip492)" style="stroke:#000000; stroke-linecap:butt; stroke-linejoin:round; stroke-width:2; stroke-opacity:0.1; fill:none" points="
  86.9921,1173.44 2352.76,1173.44 
  "/>
<polyline clip-path="url(#clip492)" style="stroke:#000000; stroke-linecap:butt; stroke-linejoin:round; stroke-width:2; stroke-opacity:0.1; fill:none" points="
  86.9921,921.105 2352.76,921.105 
  "/>
<polyline clip-path="url(#clip492)" style="stroke:#000000; stroke-linecap:butt; stroke-linejoin:round; stroke-width:2; stroke-opacity:0.1; fill:none" points="
  86.9921,668.768 2352.76,668.768 
  "/>
<polyline clip-path="url(#clip492)" style="stroke:#000000; stroke-linecap:butt; stroke-linejoin:round; stroke-width:2; stroke-opacity:0.1; fill:none" points="
  86.9921,416.431 2352.76,416.431 
  "/>
<polyline clip-path="url(#clip492)" style="stroke:#000000; stroke-linecap:butt; stroke-linejoin:round; stroke-width:2; stroke-opacity:0.1; fill:none" points="
  86.9921,164.095 2352.76,164.095 
  "/>
<polyline clip-path="url(#clip490)" style="stroke:#000000; stroke-linecap:butt; stroke-linejoin:round; stroke-width:4; stroke-opacity:1; fill:none" points="
  86.9921,1521.01 86.9921,47.2441 
  "/>
<polyline clip-path="url(#clip490)" style="stroke:#000000; stroke-linecap:butt; stroke-linejoin:round; stroke-width:4; stroke-opacity:1; fill:none" points="
  86.9921,1425.78 114.181,1425.78 
  "/>
<polyline clip-path="url(#clip490)" style="stroke:#000000; stroke-linecap:butt; stroke-linejoin:round; stroke-width:4; stroke-opacity:1; fill:none" points="
  86.9921,1173.44 114.181,1173.44 
  "/>
<polyline clip-path="url(#clip490)" style="stroke:#000000; stroke-linecap:butt; stroke-linejoin:round; stroke-width:4; stroke-opacity:1; fill:none" points="
  86.9921,921.105 114.181,921.105 
  "/>
<polyline clip-path="url(#clip490)" style="stroke:#000000; stroke-linecap:butt; stroke-linejoin:round; stroke-width:4; stroke-opacity:1; fill:none" points="
  86.9921,668.768 114.181,668.768 
  "/>
<polyline clip-path="url(#clip490)" style="stroke:#000000; stroke-linecap:butt; stroke-linejoin:round; stroke-width:4; stroke-opacity:1; fill:none" points="
  86.9921,416.431 114.181,416.431 
  "/>
<polyline clip-path="url(#clip490)" style="stroke:#000000; stroke-linecap:butt; stroke-linejoin:round; stroke-width:4; stroke-opacity:1; fill:none" points="
  86.9921,164.095 114.181,164.095 
  "/>
<path clip-path="url(#clip490)" d="M-65.5119 1411.58 Q-69.123 1411.58 -70.9517 1415.14 Q-72.7572 1418.68 -72.7572 1425.81 Q-72.7572 1432.92 -70.9517 1436.48 Q-69.123 1440.03 -65.5119 1440.03 Q-61.8776 1440.03 -60.0721 1436.48 Q-58.2434 1432.92 -58.2434 1425.81 Q-58.2434 1418.68 -60.0721 1415.14 Q-61.8776 1411.58 -65.5119 1411.58 M-65.5119 1407.87 Q-59.7017 1407.87 -56.6462 1412.48 Q-53.5675 1417.06 -53.5675 1425.81 Q-53.5675 1434.54 -56.6462 1439.15 Q-59.7017 1443.73 -65.5119 1443.73 Q-71.322 1443.73 -74.4007 1439.15 Q-77.4563 1434.54 -77.4563 1425.81 Q-77.4563 1417.06 -74.4007 1412.48 Q-71.322 1407.87 -65.5119 1407.87 Z" fill="#000000" fill-rule="evenodd" fill-opacity="1" /><path clip-path="url(#clip490)" d="M-45.35 1437.18 L-40.4657 1437.18 L-40.4657 1443.06 L-45.35 1443.06 L-45.35 1437.18 Z" fill="#000000" fill-rule="evenodd" fill-opacity="1" /><path clip-path="url(#clip490)" d="M-29.4704 1439.12 L-21.8316 1439.12 L-21.8316 1412.76 L-30.1417 1414.42 L-30.1417 1410.17 L-21.8779 1408.5 L-17.202 1408.5 L-17.202 1439.12 L-9.56311 1439.12 L-9.56311 1443.06 L-29.4704 1443.06 L-29.4704 1439.12 Z" fill="#000000" fill-rule="evenodd" fill-opacity="1" /><path clip-path="url(#clip490)" d="M3.90904 1439.12 L20.2284 1439.12 L20.2284 1443.06 L-1.71592 1443.06 L-1.71592 1439.12 Q0.946098 1436.37 5.52941 1431.74 Q10.1359 1427.09 11.3164 1425.74 Q13.5618 1423.22 14.4414 1421.48 Q15.3442 1419.73 15.3442 1418.04 Q15.3442 1415.28 13.3997 1413.54 Q11.4784 1411.81 8.37661 1411.81 Q6.17755 1411.81 3.72386 1412.57 Q1.29332 1413.34 -1.48444 1414.89 L-1.48444 1410.17 Q1.33961 1409.03 3.7933 1408.45 Q6.247 1407.87 8.28402 1407.87 Q13.6544 1407.87 16.8488 1410.56 Q20.0432 1413.24 20.0432 1417.73 Q20.0432 1419.86 19.233 1421.79 Q18.446 1423.68 16.3395 1426.28 Q15.7608 1426.95 12.659 1430.17 Q9.55716 1433.36 3.90904 1439.12 Z" fill="#000000" fill-rule="evenodd" fill-opacity="1" /><path clip-path="url(#clip490)" d="M30.0895 1408.5 L48.4458 1408.5 L48.4458 1412.43 L34.3718 1412.43 L34.3718 1420.91 Q35.3904 1420.56 36.4089 1420.4 Q37.4274 1420.21 38.4459 1420.21 Q44.2329 1420.21 47.6125 1423.38 Q50.9921 1426.55 50.9921 1431.97 Q50.9921 1437.55 47.5199 1440.65 Q44.0477 1443.73 37.7283 1443.73 Q35.5524 1443.73 33.2839 1443.36 Q31.0385 1442.99 28.6311 1442.25 L28.6311 1437.55 Q30.7145 1438.68 32.9367 1439.24 Q35.1589 1439.79 37.6357 1439.79 Q41.6403 1439.79 43.9783 1437.69 Q46.3162 1435.58 46.3162 1431.97 Q46.3162 1428.36 43.9783 1426.25 Q41.6403 1424.15 37.6357 1424.15 Q35.7607 1424.15 33.8857 1424.56 Q32.0339 1424.98 30.0895 1425.86 L30.0895 1408.5 Z" fill="#000000" fill-rule="evenodd" fill-opacity="1" /><path clip-path="url(#clip490)" d="M-66.5072 1159.24 Q-70.1183 1159.24 -71.947 1162.81 Q-73.7526 1166.35 -73.7526 1173.48 Q-73.7526 1180.58 -71.947 1184.15 Q-70.1183 1187.69 -66.5072 1187.69 Q-62.873 1187.69 -61.0675 1184.15 Q-59.2388 1180.58 -59.2388 1173.48 Q-59.2388 1166.35 -61.0675 1162.81 Q-62.873 1159.24 -66.5072 1159.24 M-66.5072 1155.54 Q-60.6971 1155.54 -57.6416 1160.14 Q-54.5629 1164.73 -54.5629 1173.48 Q-54.5629 1182.2 -57.6416 1186.81 Q-60.6971 1191.39 -66.5072 1191.39 Q-72.3174 1191.39 -75.3961 1186.81 Q-78.4516 1182.2 -78.4516 1173.48 Q-78.4516 1164.73 -75.3961 1160.14 Q-72.3174 1155.54 -66.5072 1155.54 Z" fill="#000000" fill-rule="evenodd" fill-opacity="1" /><path clip-path="url(#clip490)" d="M-46.3453 1184.84 L-41.4611 1184.84 L-41.4611 1190.72 L-46.3453 1190.72 L-46.3453 1184.84 Z" fill="#000000" fill-rule="evenodd" fill-opacity="1" /><path clip-path="url(#clip490)" d="M-30.4658 1186.79 L-22.8269 1186.79 L-22.8269 1160.42 L-31.1371 1162.09 L-31.1371 1157.83 L-22.8732 1156.16 L-18.1973 1156.16 L-18.1973 1186.79 L-10.5585 1186.79 L-10.5585 1190.72 L-30.4658 1190.72 L-30.4658 1186.79 Z" fill="#000000" fill-rule="evenodd" fill-opacity="1" /><path clip-path="url(#clip490)" d="M-1.06778 1156.16 L17.2886 1156.16 L17.2886 1160.1 L3.2146 1160.1 L3.2146 1168.57 Q4.23312 1168.22 5.25163 1168.06 Q6.27014 1167.87 7.28866 1167.87 Q13.0757 1167.87 16.4553 1171.05 Q19.8349 1174.22 19.8349 1179.63 Q19.8349 1185.21 16.3627 1188.31 Q12.8905 1191.39 6.57107 1191.39 Q4.39515 1191.39 2.12665 1191.02 Q-0.118711 1190.65 -2.52611 1189.91 L-2.52611 1185.21 Q-0.442784 1186.35 1.77943 1186.9 Q4.00164 1187.46 6.47848 1187.46 Q10.4831 1187.46 12.821 1185.35 Q15.159 1183.24 15.159 1179.63 Q15.159 1176.02 12.821 1173.92 Q10.4831 1171.81 6.47848 1171.81 Q4.60349 1171.81 2.7285 1172.23 Q0.876654 1172.64 -1.06778 1173.52 L-1.06778 1156.16 Z" fill="#000000" fill-rule="evenodd" fill-opacity="1" /><path clip-path="url(#clip490)" d="M39.0477 1159.24 Q35.4367 1159.24 33.608 1162.81 Q31.8024 1166.35 31.8024 1173.48 Q31.8024 1180.58 33.608 1184.15 Q35.4367 1187.69 39.0477 1187.69 Q42.682 1187.69 44.4875 1184.15 Q46.3162 1180.58 46.3162 1173.48 Q46.3162 1166.35 44.4875 1162.81 Q42.682 1159.24 39.0477 1159.24 M39.0477 1155.54 Q44.8579 1155.54 47.9134 1160.14 Q50.9921 1164.73 50.9921 1173.48 Q50.9921 1182.2 47.9134 1186.81 Q44.8579 1191.39 39.0477 1191.39 Q33.2376 1191.39 30.1589 1186.81 Q27.1034 1182.2 27.1034 1173.48 Q27.1034 1164.73 30.1589 1160.14 Q33.2376 1155.54 39.0477 1155.54 Z" fill="#000000" fill-rule="evenodd" fill-opacity="1" /><path clip-path="url(#clip490)" d="M-65.5119 906.904 Q-69.123 906.904 -70.9517 910.468 Q-72.7572 914.01 -72.7572 921.14 Q-72.7572 928.246 -70.9517 931.811 Q-69.123 935.353 -65.5119 935.353 Q-61.8776 935.353 -60.0721 931.811 Q-58.2434 928.246 -58.2434 921.14 Q-58.2434 914.01 -60.0721 910.468 Q-61.8776 906.904 -65.5119 906.904 M-65.5119 903.2 Q-59.7017 903.2 -56.6462 907.806 Q-53.5675 912.39 -53.5675 921.14 Q-53.5675 929.866 -56.6462 934.473 Q-59.7017 939.056 -65.5119 939.056 Q-71.322 939.056 -74.4007 934.473 Q-77.4563 929.866 -77.4563 921.14 Q-77.4563 912.39 -74.4007 907.806 Q-71.322 903.2 -65.5119 903.2 Z" fill="#000000" fill-rule="evenodd" fill-opacity="1" /><path clip-path="url(#clip490)" d="M-45.35 932.505 L-40.4657 932.505 L-40.4657 938.385 L-45.35 938.385 L-45.35 932.505 Z" fill="#000000" fill-rule="evenodd" fill-opacity="1" /><path clip-path="url(#clip490)" d="M-29.4704 934.45 L-21.8316 934.45 L-21.8316 908.084 L-30.1417 909.751 L-30.1417 905.492 L-21.8779 903.825 L-17.202 903.825 L-17.202 934.45 L-9.56311 934.45 L-9.56311 938.385 L-29.4704 938.385 L-29.4704 934.45 Z" fill="#000000" fill-rule="evenodd" fill-opacity="1" /><path clip-path="url(#clip490)" d="M-1.29926 903.825 L20.9228 903.825 L20.9228 905.816 L8.37661 938.385 L3.49238 938.385 L15.2979 907.76 L-1.29926 907.76 L-1.29926 903.825 Z" fill="#000000" fill-rule="evenodd" fill-opacity="1" /><path clip-path="url(#clip490)" d="M30.0895 903.825 L48.4458 903.825 L48.4458 907.76 L34.3718 907.76 L34.3718 916.232 Q35.3904 915.885 36.4089 915.723 Q37.4274 915.538 38.4459 915.538 Q44.2329 915.538 47.6125 918.709 Q50.9921 921.88 50.9921 927.297 Q50.9921 932.876 47.5199 935.978 Q44.0477 939.056 37.7283 939.056 Q35.5524 939.056 33.2839 938.686 Q31.0385 938.316 28.6311 937.575 L28.6311 932.876 Q30.7145 934.01 32.9367 934.566 Q35.1589 935.121 37.6357 935.121 Q41.6403 935.121 43.9783 933.015 Q46.3162 930.908 46.3162 927.297 Q46.3162 923.686 43.9783 921.579 Q41.6403 919.473 37.6357 919.473 Q35.7607 919.473 33.8857 919.89 Q32.0339 920.306 30.0895 921.186 L30.0895 903.825 Z" fill="#000000" fill-rule="evenodd" fill-opacity="1" /><path clip-path="url(#clip490)" d="M-66.5072 654.567 Q-70.1183 654.567 -71.947 658.132 Q-73.7526 661.673 -73.7526 668.803 Q-73.7526 675.909 -71.947 679.474 Q-70.1183 683.016 -66.5072 683.016 Q-62.873 683.016 -61.0675 679.474 Q-59.2388 675.909 -59.2388 668.803 Q-59.2388 661.673 -61.0675 658.132 Q-62.873 654.567 -66.5072 654.567 M-66.5072 650.863 Q-60.6971 650.863 -57.6416 655.47 Q-54.5629 660.053 -54.5629 668.803 Q-54.5629 677.53 -57.6416 682.136 Q-60.6971 686.719 -66.5072 686.719 Q-72.3174 686.719 -75.3961 682.136 Q-78.4516 677.53 -78.4516 668.803 Q-78.4516 660.053 -75.3961 655.47 Q-72.3174 650.863 -66.5072 650.863 Z" fill="#000000" fill-rule="evenodd" fill-opacity="1" /><path clip-path="url(#clip490)" d="M-46.3453 680.169 L-41.4611 680.169 L-41.4611 686.048 L-46.3453 686.048 L-46.3453 680.169 Z" fill="#000000" fill-rule="evenodd" fill-opacity="1" /><path clip-path="url(#clip490)" d="M-27.2482 682.113 L-10.9288 682.113 L-10.9288 686.048 L-32.8732 686.048 L-32.8732 682.113 Q-30.2111 679.358 -25.6278 674.729 Q-21.0214 670.076 -19.8408 668.733 Q-17.5955 666.21 -16.7158 664.474 Q-15.8131 662.715 -15.8131 661.025 Q-15.8131 658.271 -17.7575 656.534 Q-19.6788 654.798 -22.7806 654.798 Q-24.9797 654.798 -27.4334 655.562 Q-29.8639 656.326 -32.6417 657.877 L-32.6417 653.155 Q-29.8176 652.021 -27.3639 651.442 Q-24.9102 650.863 -22.8732 650.863 Q-17.5029 650.863 -14.3085 653.548 Q-11.114 656.234 -11.114 660.724 Q-11.114 662.854 -11.9242 664.775 Q-12.7112 666.673 -14.8177 669.266 Q-15.3964 669.937 -18.4982 673.155 Q-21.6001 676.349 -27.2482 682.113 Z" fill="#000000" fill-rule="evenodd" fill-opacity="1" /><path clip-path="url(#clip490)" d="M8.88587 654.567 Q5.27478 654.567 3.44608 658.132 Q1.64054 661.673 1.64054 668.803 Q1.64054 675.909 3.44608 679.474 Q5.27478 683.016 8.88587 683.016 Q12.5201 683.016 14.3257 679.474 Q16.1543 675.909 16.1543 668.803 Q16.1543 661.673 14.3257 658.132 Q12.5201 654.567 8.88587 654.567 M8.88587 650.863 Q14.696 650.863 17.7516 655.47 Q20.8303 660.053 20.8303 668.803 Q20.8303 677.53 17.7516 682.136 Q14.696 686.719 8.88587 686.719 Q3.07572 686.719 -0.00297114 682.136 Q-3.05851 677.53 -3.05851 668.803 Q-3.05851 660.053 -0.00297114 655.47 Q3.07572 650.863 8.88587 650.863 Z" fill="#000000" fill-rule="evenodd" fill-opacity="1" /><path clip-path="url(#clip490)" d="M39.0477 654.567 Q35.4367 654.567 33.608 658.132 Q31.8024 661.673 31.8024 668.803 Q31.8024 675.909 33.608 679.474 Q35.4367 683.016 39.0477 683.016 Q42.682 683.016 44.4875 679.474 Q46.3162 675.909 46.3162 668.803 Q46.3162 661.673 44.4875 658.132 Q42.682 654.567 39.0477 654.567 M39.0477 650.863 Q44.8579 650.863 47.9134 655.47 Q50.9921 660.053 50.9921 668.803 Q50.9921 677.53 47.9134 682.136 Q44.8579 686.719 39.0477 686.719 Q33.2376 686.719 30.1589 682.136 Q27.1034 677.53 27.1034 668.803 Q27.1034 660.053 30.1589 655.47 Q33.2376 650.863 39.0477 650.863 Z" fill="#000000" fill-rule="evenodd" fill-opacity="1" /><path clip-path="url(#clip490)" d="M-65.5119 402.23 Q-69.123 402.23 -70.9517 405.795 Q-72.7572 409.337 -72.7572 416.466 Q-72.7572 423.573 -70.9517 427.137 Q-69.123 430.679 -65.5119 430.679 Q-61.8776 430.679 -60.0721 427.137 Q-58.2434 423.573 -58.2434 416.466 Q-58.2434 409.337 -60.0721 405.795 Q-61.8776 402.23 -65.5119 402.23 M-65.5119 398.526 Q-59.7017 398.526 -56.6462 403.133 Q-53.5675 407.716 -53.5675 416.466 Q-53.5675 425.193 -56.6462 429.799 Q-59.7017 434.383 -65.5119 434.383 Q-71.322 434.383 -74.4007 429.799 Q-77.4563 425.193 -77.4563 416.466 Q-77.4563 407.716 -74.4007 403.133 Q-71.322 398.526 -65.5119 398.526 Z" fill="#000000" fill-rule="evenodd" fill-opacity="1" /><path clip-path="url(#clip490)" d="M-45.35 427.832 L-40.4657 427.832 L-40.4657 433.711 L-45.35 433.711 L-45.35 427.832 Z" fill="#000000" fill-rule="evenodd" fill-opacity="1" /><path clip-path="url(#clip490)" d="M-26.2528 429.776 L-9.93347 429.776 L-9.93347 433.711 L-31.8778 433.711 L-31.8778 429.776 Q-29.2158 427.022 -24.6325 422.392 Q-20.026 417.739 -18.8455 416.397 Q-16.6001 413.874 -15.7205 412.137 Q-14.8177 410.378 -14.8177 408.688 Q-14.8177 405.934 -16.7621 404.198 Q-18.6834 402.462 -21.7853 402.462 Q-23.9843 402.462 -26.438 403.225 Q-28.8686 403.989 -31.6463 405.54 L-31.6463 400.818 Q-28.8223 399.684 -26.3686 399.105 Q-23.9149 398.526 -21.8779 398.526 Q-16.5075 398.526 -13.3131 401.212 Q-10.1187 403.897 -10.1187 408.387 Q-10.1187 410.517 -10.9288 412.438 Q-11.7159 414.337 -13.8223 416.929 Q-14.401 417.6 -17.5029 420.818 Q-20.6047 424.012 -26.2528 429.776 Z" fill="#000000" fill-rule="evenodd" fill-opacity="1" /><path clip-path="url(#clip490)" d="M3.90904 429.776 L20.2284 429.776 L20.2284 433.711 L-1.71592 433.711 L-1.71592 429.776 Q0.946098 427.022 5.52941 422.392 Q10.1359 417.739 11.3164 416.397 Q13.5618 413.874 14.4414 412.137 Q15.3442 410.378 15.3442 408.688 Q15.3442 405.934 13.3997 404.198 Q11.4784 402.462 8.37661 402.462 Q6.17755 402.462 3.72386 403.225 Q1.29332 403.989 -1.48444 405.54 L-1.48444 400.818 Q1.33961 399.684 3.7933 399.105 Q6.247 398.526 8.28402 398.526 Q13.6544 398.526 16.8488 401.212 Q20.0432 403.897 20.0432 408.387 Q20.0432 410.517 19.233 412.438 Q18.446 414.337 16.3395 416.929 Q15.7608 417.6 12.659 420.818 Q9.55716 424.012 3.90904 429.776 Z" fill="#000000" fill-rule="evenodd" fill-opacity="1" /><path clip-path="url(#clip490)" d="M30.0895 399.151 L48.4458 399.151 L48.4458 403.087 L34.3718 403.087 L34.3718 411.559 Q35.3904 411.212 36.4089 411.05 Q37.4274 410.864 38.4459 410.864 Q44.2329 410.864 47.6125 414.036 Q50.9921 417.207 50.9921 422.624 Q50.9921 428.202 47.5199 431.304 Q44.0477 434.383 37.7283 434.383 Q35.5524 434.383 33.2839 434.012 Q31.0385 433.642 28.6311 432.901 L28.6311 428.202 Q30.7145 429.336 32.9367 429.892 Q35.1589 430.448 37.6357 430.448 Q41.6403 430.448 43.9783 428.341 Q46.3162 426.235 46.3162 422.624 Q46.3162 419.012 43.9783 416.906 Q41.6403 414.8 37.6357 414.8 Q35.7607 414.8 33.8857 415.216 Q32.0339 415.633 30.0895 416.512 L30.0895 399.151 Z" fill="#000000" fill-rule="evenodd" fill-opacity="1" /><path clip-path="url(#clip490)" d="M-66.5072 149.893 Q-70.1183 149.893 -71.947 153.458 Q-73.7526 157 -73.7526 164.129 Q-73.7526 171.236 -71.947 174.801 Q-70.1183 178.342 -66.5072 178.342 Q-62.873 178.342 -61.0675 174.801 Q-59.2388 171.236 -59.2388 164.129 Q-59.2388 157 -61.0675 153.458 Q-62.873 149.893 -66.5072 149.893 M-66.5072 146.19 Q-60.6971 146.19 -57.6416 150.796 Q-54.5629 155.379 -54.5629 164.129 Q-54.5629 172.856 -57.6416 177.463 Q-60.6971 182.046 -66.5072 182.046 Q-72.3174 182.046 -75.3961 177.463 Q-78.4516 172.856 -78.4516 164.129 Q-78.4516 155.379 -75.3961 150.796 Q-72.3174 146.19 -66.5072 146.19 Z" fill="#000000" fill-rule="evenodd" fill-opacity="1" /><path clip-path="url(#clip490)" d="M-46.3453 175.495 L-41.4611 175.495 L-41.4611 181.375 L-46.3453 181.375 L-46.3453 175.495 Z" fill="#000000" fill-rule="evenodd" fill-opacity="1" /><path clip-path="url(#clip490)" d="M-27.2482 177.44 L-10.9288 177.44 L-10.9288 181.375 L-32.8732 181.375 L-32.8732 177.44 Q-30.2111 174.685 -25.6278 170.055 Q-21.0214 165.403 -19.8408 164.06 Q-17.5955 161.537 -16.7158 159.801 Q-15.8131 158.041 -15.8131 156.352 Q-15.8131 153.597 -17.7575 151.861 Q-19.6788 150.125 -22.7806 150.125 Q-24.9797 150.125 -27.4334 150.889 Q-29.8639 151.653 -32.6417 153.204 L-32.6417 148.481 Q-29.8176 147.347 -27.3639 146.768 Q-24.9102 146.19 -22.8732 146.19 Q-17.5029 146.19 -14.3085 148.875 Q-11.114 151.56 -11.114 156.051 Q-11.114 158.18 -11.9242 160.102 Q-12.7112 162 -14.8177 164.592 Q-15.3964 165.264 -18.4982 168.481 Q-21.6001 171.676 -27.2482 177.44 Z" fill="#000000" fill-rule="evenodd" fill-opacity="1" /><path clip-path="url(#clip490)" d="M-1.06778 146.815 L17.2886 146.815 L17.2886 150.75 L3.2146 150.75 L3.2146 159.222 Q4.23312 158.875 5.25163 158.713 Q6.27014 158.528 7.28866 158.528 Q13.0757 158.528 16.4553 161.699 Q19.8349 164.87 19.8349 170.287 Q19.8349 175.865 16.3627 178.967 Q12.8905 182.046 6.57107 182.046 Q4.39515 182.046 2.12665 181.676 Q-0.118711 181.305 -2.52611 180.564 L-2.52611 175.865 Q-0.442784 177 1.77943 177.555 Q4.00164 178.111 6.47848 178.111 Q10.4831 178.111 12.821 176.004 Q15.159 173.898 15.159 170.287 Q15.159 166.676 12.821 164.569 Q10.4831 162.463 6.47848 162.463 Q4.60349 162.463 2.7285 162.879 Q0.876654 163.296 -1.06778 164.176 L-1.06778 146.815 Z" fill="#000000" fill-rule="evenodd" fill-opacity="1" /><path clip-path="url(#clip490)" d="M39.0477 149.893 Q35.4367 149.893 33.608 153.458 Q31.8024 157 31.8024 164.129 Q31.8024 171.236 33.608 174.801 Q35.4367 178.342 39.0477 178.342 Q42.682 178.342 44.4875 174.801 Q46.3162 171.236 46.3162 164.129 Q46.3162 157 44.4875 153.458 Q42.682 149.893 39.0477 149.893 M39.0477 146.19 Q44.8579 146.19 47.9134 150.796 Q50.9921 155.379 50.9921 164.129 Q50.9921 172.856 47.9134 177.463 Q44.8579 182.046 39.0477 182.046 Q33.2376 182.046 30.1589 177.463 Q27.1034 172.856 27.1034 164.129 Q27.1034 155.379 30.1589 150.796 Q33.2376 146.19 39.0477 146.19 Z" fill="#000000" fill-rule="evenodd" fill-opacity="1" /><polyline clip-path="url(#clip492)" style="stroke:#009af9; stroke-linecap:butt; stroke-linejoin:round; stroke-width:2; stroke-opacity:1; fill:none" points="
  151.118,169.702 263.618,187.646 376.119,178.394 488.62,201.104 601.12,228.664 713.621,210.426 826.122,287.295 938.622,296.215 1051.12,314.503 1163.62,321.472 
  1276.12,354.212 1388.63,339.182 1501.13,369.085 1613.63,397.524 1726.13,434.71 1838.63,444.908 1951.13,456.839 2063.63,467.389 2176.13,494.83 2288.63,495.739 
  
  "/>
<polyline clip-path="url(#clip492)" style="stroke:#e26f46; stroke-linecap:butt; stroke-linejoin:round; stroke-width:2; stroke-opacity:1; fill:none" points="
  151.118,133.814 263.618,178.674 376.119,180.256 488.62,213.329 601.12,273.804 713.621,322.957 826.122,379.695 938.622,375.317 1051.12,375.627 1163.62,398.473 
  1276.12,426.961 1388.63,489.372 1501.13,506.215 1613.63,531.632 1726.13,535.078 1838.63,559.905 1951.13,549.588 2063.63,600.626 2176.13,620.666 2288.63,622.352 
  
  "/>
<polyline clip-path="url(#clip492)" style="stroke:#3da44d; stroke-linecap:butt; stroke-linejoin:round; stroke-width:2; stroke-opacity:1; fill:none" points="
  151.118,156.244 263.618,231.665 376.119,239.569 488.62,317.882 601.12,369.862 713.621,459.077 826.122,516.232 938.622,540.817 1051.12,567.2 1163.62,569.04 
  1276.12,615.475 1388.63,648.085 1501.13,697.92 1613.63,734.461 1726.13,780.127 1838.63,807.686 1951.13,886.672 2063.63,936.927 2176.13,965.86 2288.63,986.687 
  
  "/>
<polyline clip-path="url(#clip492)" style="stroke:#c271d2; stroke-linecap:butt; stroke-linejoin:round; stroke-width:2; stroke-opacity:1; fill:none" points="
  151.118,230.263 263.618,305.403 376.119,380.331 488.62,459.524 601.12,549.039 713.621,619.783 826.122,675.639 938.622,739.817 1051.12,785.788 1163.62,790.099 
  1276.12,878.579 1388.63,902.11 1501.13,965.309 1613.63,1017.84 1726.13,1066.25 1838.63,1078.34 1951.13,1097.77 2063.63,1184.35 2176.13,1192 2288.63,1209.85 
  
  "/>
<polyline clip-path="url(#clip492)" style="stroke:#ac8d18; stroke-linecap:butt; stroke-linejoin:round; stroke-width:2; stroke-opacity:1; fill:none" points="
  151.118,141.665 263.618,270.917 376.119,393.383 488.62,483.79 601.12,556.349 713.621,635.322 826.122,686.303 938.622,717.373 1051.12,777.356 1163.62,836.678 
  1276.12,871.462 1388.63,907.924 1501.13,981.125 1613.63,1018.84 1726.13,1060.78 1838.63,1121.06 1951.13,1136.34 2063.63,1197.79 2176.13,1218.32 2288.63,1264.13 
  
  "/>
<polyline clip-path="url(#clip492)" style="stroke:#00a9ad; stroke-linecap:butt; stroke-linejoin:round; stroke-width:2; stroke-opacity:1; fill:none" points="
  151.118,171.945 263.618,308.207 376.119,419.953 488.62,475.595 601.12,547.252 713.621,647.705 826.122,668.598 938.622,733.582 1051.12,785.87 1163.62,872.202 
  1276.12,914.606 1388.63,944.193 1501.13,999.317 1613.63,1033.92 1726.13,1114.06 1838.63,1159.27 1951.13,1194.73 2063.63,1248.72 2176.13,1309.13 2288.63,1353.22 
  
  "/>
<polyline clip-path="url(#clip492)" style="stroke:#ed5d92; stroke-linecap:butt; stroke-linejoin:round; stroke-width:2; stroke-opacity:1; fill:none" points="
  151.118,201.104 263.618,344.095 376.119,406.594 488.62,491.655 601.12,566.528 713.621,613.273 826.122,681.111 938.622,732.845 1051.12,805.646 1163.62,861.127 
  1276.12,917.831 1388.63,978.248 1501.13,1056.53 1613.63,1099.89 1726.13,1124.84 1838.63,1130.16 1951.13,1194.94 2063.63,1226.52 2176.13,1251.91 2288.63,1300.76 
  
  "/>
<polyline clip-path="url(#clip492)" style="stroke:#c68125; stroke-linecap:butt; stroke-linejoin:round; stroke-width:2; stroke-opacity:1; fill:none" points="
  151.118,88.9544 263.618,284.095 376.119,370.066 488.62,501.273 601.12,557.256 713.621,633.421 826.122,707.998 938.622,753.413 1051.12,796.889 1163.62,872.729 
  1276.12,945.692 1388.63,974.631 1501.13,1047.09 1613.63,1123.9 1726.13,1176.89 1838.63,1204.82 1951.13,1235.23 2063.63,1278.97 2176.13,1316.99 2288.63,1330.4 
  
  "/>
<polyline clip-path="url(#clip492)" style="stroke:#00a98d; stroke-linecap:butt; stroke-linejoin:round; stroke-width:2; stroke-opacity:1; fill:none" points="
  151.118,119.235 263.618,302.6 376.119,394.384 488.62,456.499 601.12,557.578 713.621,618.456 826.122,664.211 938.622,785.125 1051.12,836.811 1163.62,906.989 
  1276.12,970.436 1388.63,1007.86 1501.13,1090.92 1613.63,1166.97 1726.13,1207.48 1838.63,1273.34 1951.13,1330.35 2063.63,1388.45 2176.13,1424.16 2288.63,1479.3 
  
  "/>
<polyline clip-path="url(#clip492)" style="stroke:#8e971d; stroke-linecap:butt; stroke-linejoin:round; stroke-width:2; stroke-opacity:1; fill:none" points="
  151.118,151.758 263.618,325.31 376.119,440.571 488.62,547.217 601.12,613.185 713.621,693.703 826.122,779.788 938.622,854.526 1051.12,933.78 1163.62,994.629 
  1276.12,1029.7 1388.63,1086.46 1501.13,1138.09 1613.63,1175.04 1726.13,1197.54 1838.63,1266.87 1951.13,1290.34 2063.63,1337.39 2176.13,1358.39 2288.63,1381.6 
  
  "/>
<polyline clip-path="url(#clip492)" style="stroke:#00a8cb; stroke-linecap:butt; stroke-linejoin:round; stroke-width:2; stroke-opacity:1; fill:none" points="
  151.118,141.665 263.618,337.646 376.119,461.885 488.62,524.984 601.12,581.393 713.621,631.184 826.122,682.319 938.622,735.755 1051.12,758.096 1163.62,841.342 
  1276.12,905.465 1388.63,975.435 1501.13,1031.24 1613.63,1102.12 1726.13,1132.56 1838.63,1214.76 1951.13,1236.73 2063.63,1278.39 2176.13,1326.53 2288.63,1368.78 
  
  "/>
<polyline clip-path="url(#clip492)" style="stroke:#9b7fe8; stroke-linecap:butt; stroke-linejoin:round; stroke-width:2; stroke-opacity:1; fill:none" points="
  151.118,157.366 263.618,363.721 376.119,497.487 488.62,561.041 601.12,650.389 713.621,690.953 826.122,743.242 938.622,809.41 1051.12,901.109 1163.62,953.423 
  1276.12,999.391 1388.63,1057.17 1501.13,1094.14 1613.63,1140.77 1726.13,1164.91 1838.63,1242.68 1951.13,1300.45 2063.63,1387.55 2176.13,1426.09 2288.63,1444.28 
  
  "/>
<polyline clip-path="url(#clip492)" style="stroke:#608cf6; stroke-linecap:butt; stroke-linejoin:round; stroke-width:2; stroke-opacity:1; fill:none" points="
  151.118,110.263 263.618,203.908 376.119,293.448 488.62,357.177 601.12,405.643 713.621,517.136 826.122,578.36 938.622,609.315 1051.12,681.838 1163.62,748.647 
  1276.12,749.619 1388.63,806.376 1501.13,827.67 1613.63,855.574 1726.13,927.998 1838.63,944.843 1951.13,987.064 2063.63,1008.05 2176.13,1024.97 2288.63,1079.87 
  
  "/>
<polyline clip-path="url(#clip492)" style="stroke:#f05f73; stroke-linecap:butt; stroke-linejoin:round; stroke-width:2; stroke-opacity:1; fill:none" points="
  151.118,174.188 263.618,350.824 376.119,465.544 488.62,549.382 601.12,593.803 713.621,663.032 826.122,686.912 938.622,750.842 1051.12,763.304 1163.62,831.951 
  1276.12,900.93 1388.63,944.853 1501.13,976.743 1613.63,1000.89 1726.13,1054.48 1838.63,1107.7 1951.13,1193.38 2063.63,1257.91 2176.13,1295.93 2288.63,1333.91 
  
  "/>
<path clip-path="url(#clip490)" d="
M1927.1 1003.57 L2277.23 1003.57 L2277.23 96.3696 L1927.1 96.3696  Z
  " fill="#ffffff" fill-rule="evenodd" fill-opacity="1"/>
<polyline clip-path="url(#clip490)" style="stroke:#000000; stroke-linecap:butt; stroke-linejoin:round; stroke-width:4; stroke-opacity:1; fill:none" points="
  1927.1,1003.57 2277.23,1003.57 2277.23,96.3696 1927.1,96.3696 1927.1,1003.57 
  "/>
<polyline clip-path="url(#clip490)" style="stroke:#009af9; stroke-linecap:butt; stroke-linejoin:round; stroke-width:4; stroke-opacity:1; fill:none" points="
  1952.27,156.85 2103.33,156.85 
  "/>
<path clip-path="url(#clip490)" d="M2140.45 142.648 Q2136.83 142.648 2135.01 146.213 Q2133.2 149.755 2133.2 156.884 Q2133.2 163.991 2135.01 167.556 Q2136.83 171.097 2140.45 171.097 Q2144.08 171.097 2145.89 167.556 Q2147.71 163.991 2147.71 156.884 Q2147.71 149.755 2145.89 146.213 Q2144.08 142.648 2140.45 142.648 M2140.45 138.945 Q2146.26 138.945 2149.31 143.551 Q2152.39 148.134 2152.39 156.884 Q2152.39 165.611 2149.31 170.218 Q2146.26 174.801 2140.45 174.801 Q2134.64 174.801 2131.56 170.218 Q2128.5 165.611 2128.5 156.884 Q2128.5 148.134 2131.56 143.551 Q2134.64 138.945 2140.45 138.945 Z" fill="#000000" fill-rule="evenodd" fill-opacity="1" /><path clip-path="url(#clip490)" d="M2160.61 168.25 L2165.49 168.25 L2165.49 174.13 L2160.61 174.13 L2160.61 168.25 Z" fill="#000000" fill-rule="evenodd" fill-opacity="1" /><path clip-path="url(#clip490)" d="M2185.68 142.648 Q2182.07 142.648 2180.24 146.213 Q2178.43 149.755 2178.43 156.884 Q2178.43 163.991 2180.24 167.556 Q2182.07 171.097 2185.68 171.097 Q2189.31 171.097 2191.12 167.556 Q2192.95 163.991 2192.95 156.884 Q2192.95 149.755 2191.12 146.213 Q2189.31 142.648 2185.68 142.648 M2185.68 138.945 Q2191.49 138.945 2194.54 143.551 Q2197.62 148.134 2197.62 156.884 Q2197.62 165.611 2194.54 170.218 Q2191.49 174.801 2185.68 174.801 Q2179.87 174.801 2176.79 170.218 Q2173.73 165.611 2173.73 156.884 Q2173.73 148.134 2176.79 143.551 Q2179.87 138.945 2185.68 138.945 Z" fill="#000000" fill-rule="evenodd" fill-opacity="1" /><path clip-path="url(#clip490)" d="M2206.65 170.194 L2214.29 170.194 L2214.29 143.829 L2205.98 145.495 L2205.98 141.236 L2214.24 139.57 L2218.92 139.57 L2218.92 170.194 L2226.56 170.194 L2226.56 174.13 L2206.65 174.13 L2206.65 170.194 Z" fill="#000000" fill-rule="evenodd" fill-opacity="1" /><polyline clip-path="url(#clip490)" style="stroke:#e26f46; stroke-linecap:butt; stroke-linejoin:round; stroke-width:4; stroke-opacity:1; fill:none" points="
  1952.27,217.33 2103.33,217.33 
  "/>
<path clip-path="url(#clip490)" d="M2140.45 203.128 Q2136.83 203.128 2135.01 206.693 Q2133.2 210.235 2133.2 217.364 Q2133.2 224.471 2135.01 228.036 Q2136.83 231.577 2140.45 231.577 Q2144.08 231.577 2145.89 228.036 Q2147.71 224.471 2147.71 217.364 Q2147.71 210.235 2145.89 206.693 Q2144.08 203.128 2140.45 203.128 M2140.45 199.425 Q2146.26 199.425 2149.31 204.031 Q2152.39 208.614 2152.39 217.364 Q2152.39 226.091 2149.31 230.698 Q2146.26 235.281 2140.45 235.281 Q2134.64 235.281 2131.56 230.698 Q2128.5 226.091 2128.5 217.364 Q2128.5 208.614 2131.56 204.031 Q2134.64 199.425 2140.45 199.425 Z" fill="#000000" fill-rule="evenodd" fill-opacity="1" /><path clip-path="url(#clip490)" d="M2160.61 228.73 L2165.49 228.73 L2165.49 234.61 L2160.61 234.61 L2160.61 228.73 Z" fill="#000000" fill-rule="evenodd" fill-opacity="1" /><path clip-path="url(#clip490)" d="M2185.68 203.128 Q2182.07 203.128 2180.24 206.693 Q2178.43 210.235 2178.43 217.364 Q2178.43 224.471 2180.24 228.036 Q2182.07 231.577 2185.68 231.577 Q2189.31 231.577 2191.12 228.036 Q2192.95 224.471 2192.95 217.364 Q2192.95 210.235 2191.12 206.693 Q2189.31 203.128 2185.68 203.128 M2185.68 199.425 Q2191.49 199.425 2194.54 204.031 Q2197.62 208.614 2197.62 217.364 Q2197.62 226.091 2194.54 230.698 Q2191.49 235.281 2185.68 235.281 Q2179.87 235.281 2176.79 230.698 Q2173.73 226.091 2173.73 217.364 Q2173.73 208.614 2176.79 204.031 Q2179.87 199.425 2185.68 199.425 Z" fill="#000000" fill-rule="evenodd" fill-opacity="1" /><path clip-path="url(#clip490)" d="M2205.88 200.05 L2224.24 200.05 L2224.24 203.985 L2210.17 203.985 L2210.17 212.457 Q2211.19 212.11 2212.2 211.948 Q2213.22 211.762 2214.24 211.762 Q2220.03 211.762 2223.41 214.934 Q2226.79 218.105 2226.79 223.522 Q2226.79 229.1 2223.32 232.202 Q2219.84 235.281 2213.52 235.281 Q2211.35 235.281 2209.08 234.91 Q2206.83 234.54 2204.43 233.799 L2204.43 229.1 Q2206.51 230.235 2208.73 230.79 Q2210.95 231.346 2213.43 231.346 Q2217.44 231.346 2219.77 229.239 Q2222.11 227.133 2222.11 223.522 Q2222.11 219.911 2219.77 217.804 Q2217.44 215.698 2213.43 215.698 Q2211.56 215.698 2209.68 216.114 Q2207.83 216.531 2205.88 217.411 L2205.88 200.05 Z" fill="#000000" fill-rule="evenodd" fill-opacity="1" /><polyline clip-path="url(#clip490)" style="stroke:#3da44d; stroke-linecap:butt; stroke-linejoin:round; stroke-width:4; stroke-opacity:1; fill:none" points="
  1952.27,277.81 2103.33,277.81 
  "/>
<path clip-path="url(#clip490)" d="M2140.45 263.608 Q2136.83 263.608 2135.01 267.173 Q2133.2 270.715 2133.2 277.844 Q2133.2 284.951 2135.01 288.516 Q2136.83 292.057 2140.45 292.057 Q2144.08 292.057 2145.89 288.516 Q2147.71 284.951 2147.71 277.844 Q2147.71 270.715 2145.89 267.173 Q2144.08 263.608 2140.45 263.608 M2140.45 259.905 Q2146.26 259.905 2149.31 264.511 Q2152.39 269.094 2152.39 277.844 Q2152.39 286.571 2149.31 291.178 Q2146.26 295.761 2140.45 295.761 Q2134.64 295.761 2131.56 291.178 Q2128.5 286.571 2128.5 277.844 Q2128.5 269.094 2131.56 264.511 Q2134.64 259.905 2140.45 259.905 Z" fill="#000000" fill-rule="evenodd" fill-opacity="1" /><path clip-path="url(#clip490)" d="M2160.61 289.21 L2165.49 289.21 L2165.49 295.09 L2160.61 295.09 L2160.61 289.21 Z" fill="#000000" fill-rule="evenodd" fill-opacity="1" /><path clip-path="url(#clip490)" d="M2176.49 291.154 L2184.13 291.154 L2184.13 264.789 L2175.82 266.455 L2175.82 262.196 L2184.08 260.53 L2188.76 260.53 L2188.76 291.154 L2196.39 291.154 L2196.39 295.09 L2176.49 295.09 L2176.49 291.154 Z" fill="#000000" fill-rule="evenodd" fill-opacity="1" /><polyline clip-path="url(#clip490)" style="stroke:#c271d2; stroke-linecap:butt; stroke-linejoin:round; stroke-width:4; stroke-opacity:1; fill:none" points="
  1952.27,338.29 2103.33,338.29 
  "/>
<path clip-path="url(#clip490)" d="M2140.45 324.088 Q2136.83 324.088 2135.01 327.653 Q2133.2 331.195 2133.2 338.324 Q2133.2 345.431 2135.01 348.996 Q2136.83 352.537 2140.45 352.537 Q2144.08 352.537 2145.89 348.996 Q2147.71 345.431 2147.71 338.324 Q2147.71 331.195 2145.89 327.653 Q2144.08 324.088 2140.45 324.088 M2140.45 320.385 Q2146.26 320.385 2149.31 324.991 Q2152.39 329.574 2152.39 338.324 Q2152.39 347.051 2149.31 351.658 Q2146.26 356.241 2140.45 356.241 Q2134.64 356.241 2131.56 351.658 Q2128.5 347.051 2128.5 338.324 Q2128.5 329.574 2131.56 324.991 Q2134.64 320.385 2140.45 320.385 Z" fill="#000000" fill-rule="evenodd" fill-opacity="1" /><path clip-path="url(#clip490)" d="M2160.61 349.69 L2165.49 349.69 L2165.49 355.57 L2160.61 355.57 L2160.61 349.69 Z" fill="#000000" fill-rule="evenodd" fill-opacity="1" /><path clip-path="url(#clip490)" d="M2179.7 351.634 L2196.02 351.634 L2196.02 355.57 L2174.08 355.57 L2174.08 351.634 Q2176.74 348.88 2181.32 344.25 Q2185.93 339.597 2187.11 338.255 Q2189.36 335.732 2190.24 333.996 Q2191.14 332.236 2191.14 330.547 Q2191.14 327.792 2189.2 326.056 Q2187.27 324.32 2184.17 324.32 Q2181.97 324.32 2179.52 325.084 Q2177.09 325.847 2174.31 327.398 L2174.31 322.676 Q2177.14 321.542 2179.59 320.963 Q2182.04 320.385 2184.08 320.385 Q2189.45 320.385 2192.64 323.07 Q2195.84 325.755 2195.84 330.246 Q2195.84 332.375 2195.03 334.297 Q2194.24 336.195 2192.13 338.787 Q2191.56 339.459 2188.45 342.676 Q2185.35 345.871 2179.7 351.634 Z" fill="#000000" fill-rule="evenodd" fill-opacity="1" /><polyline clip-path="url(#clip490)" style="stroke:#ac8d18; stroke-linecap:butt; stroke-linejoin:round; stroke-width:4; stroke-opacity:1; fill:none" points="
  1952.27,398.77 2103.33,398.77 
  "/>
<path clip-path="url(#clip490)" d="M2140.45 384.568 Q2136.83 384.568 2135.01 388.133 Q2133.2 391.675 2133.2 398.804 Q2133.2 405.911 2135.01 409.476 Q2136.83 413.017 2140.45 413.017 Q2144.08 413.017 2145.89 409.476 Q2147.71 405.911 2147.71 398.804 Q2147.71 391.675 2145.89 388.133 Q2144.08 384.568 2140.45 384.568 M2140.45 380.865 Q2146.26 380.865 2149.31 385.471 Q2152.39 390.054 2152.39 398.804 Q2152.39 407.531 2149.31 412.138 Q2146.26 416.721 2140.45 416.721 Q2134.64 416.721 2131.56 412.138 Q2128.5 407.531 2128.5 398.804 Q2128.5 390.054 2131.56 385.471 Q2134.64 380.865 2140.45 380.865 Z" fill="#000000" fill-rule="evenodd" fill-opacity="1" /><path clip-path="url(#clip490)" d="M2160.61 410.17 L2165.49 410.17 L2165.49 416.05 L2160.61 416.05 L2160.61 410.17 Z" fill="#000000" fill-rule="evenodd" fill-opacity="1" /><path clip-path="url(#clip490)" d="M2189.84 397.415 Q2193.2 398.133 2195.07 400.401 Q2196.97 402.67 2196.97 406.003 Q2196.97 411.119 2193.45 413.92 Q2189.94 416.721 2183.45 416.721 Q2181.28 416.721 2178.96 416.281 Q2176.67 415.864 2174.22 415.008 L2174.22 410.494 Q2176.16 411.628 2178.48 412.207 Q2180.79 412.786 2183.32 412.786 Q2187.71 412.786 2190.01 411.05 Q2192.32 409.313 2192.32 406.003 Q2192.32 402.948 2190.17 401.235 Q2188.04 399.499 2184.22 399.499 L2180.19 399.499 L2180.19 395.656 L2184.4 395.656 Q2187.85 395.656 2189.68 394.29 Q2191.51 392.902 2191.51 390.309 Q2191.51 387.647 2189.61 386.235 Q2187.74 384.8 2184.22 384.8 Q2182.3 384.8 2180.1 385.216 Q2177.9 385.633 2175.26 386.513 L2175.26 382.346 Q2177.92 381.605 2180.24 381.235 Q2182.57 380.865 2184.63 380.865 Q2189.96 380.865 2193.06 383.295 Q2196.16 385.702 2196.16 389.823 Q2196.16 392.693 2194.52 394.684 Q2192.88 396.652 2189.84 397.415 Z" fill="#000000" fill-rule="evenodd" fill-opacity="1" /><polyline clip-path="url(#clip490)" style="stroke:#00a9ad; stroke-linecap:butt; stroke-linejoin:round; stroke-width:4; stroke-opacity:1; fill:none" points="
  1952.27,459.25 2103.33,459.25 
  "/>
<path clip-path="url(#clip490)" d="M2140.45 445.048 Q2136.83 445.048 2135.01 448.613 Q2133.2 452.155 2133.2 459.284 Q2133.2 466.391 2135.01 469.956 Q2136.83 473.497 2140.45 473.497 Q2144.08 473.497 2145.89 469.956 Q2147.71 466.391 2147.71 459.284 Q2147.71 452.155 2145.89 448.613 Q2144.08 445.048 2140.45 445.048 M2140.45 441.345 Q2146.26 441.345 2149.31 445.951 Q2152.39 450.534 2152.39 459.284 Q2152.39 468.011 2149.31 472.618 Q2146.26 477.201 2140.45 477.201 Q2134.64 477.201 2131.56 472.618 Q2128.5 468.011 2128.5 459.284 Q2128.5 450.534 2131.56 445.951 Q2134.64 441.345 2140.45 441.345 Z" fill="#000000" fill-rule="evenodd" fill-opacity="1" /><path clip-path="url(#clip490)" d="M2160.61 470.65 L2165.49 470.65 L2165.49 476.53 L2160.61 476.53 L2160.61 470.65 Z" fill="#000000" fill-rule="evenodd" fill-opacity="1" /><path clip-path="url(#clip490)" d="M2188.52 446.044 L2176.72 464.493 L2188.52 464.493 L2188.52 446.044 M2187.3 441.97 L2193.18 441.97 L2193.18 464.493 L2198.11 464.493 L2198.11 468.381 L2193.18 468.381 L2193.18 476.53 L2188.52 476.53 L2188.52 468.381 L2172.92 468.381 L2172.92 463.868 L2187.3 441.97 Z" fill="#000000" fill-rule="evenodd" fill-opacity="1" /><polyline clip-path="url(#clip490)" style="stroke:#ed5d92; stroke-linecap:butt; stroke-linejoin:round; stroke-width:4; stroke-opacity:1; fill:none" points="
  1952.27,519.73 2103.33,519.73 
  "/>
<path clip-path="url(#clip490)" d="M2140.45 505.528 Q2136.83 505.528 2135.01 509.093 Q2133.2 512.635 2133.2 519.764 Q2133.2 526.871 2135.01 530.436 Q2136.83 533.977 2140.45 533.977 Q2144.08 533.977 2145.89 530.436 Q2147.71 526.871 2147.71 519.764 Q2147.71 512.635 2145.89 509.093 Q2144.08 505.528 2140.45 505.528 M2140.45 501.825 Q2146.26 501.825 2149.31 506.431 Q2152.39 511.014 2152.39 519.764 Q2152.39 528.491 2149.31 533.098 Q2146.26 537.681 2140.45 537.681 Q2134.64 537.681 2131.56 533.098 Q2128.5 528.491 2128.5 519.764 Q2128.5 511.014 2131.56 506.431 Q2134.64 501.825 2140.45 501.825 Z" fill="#000000" fill-rule="evenodd" fill-opacity="1" /><path clip-path="url(#clip490)" d="M2160.61 531.13 L2165.49 531.13 L2165.49 537.01 L2160.61 537.01 L2160.61 531.13 Z" fill="#000000" fill-rule="evenodd" fill-opacity="1" /><path clip-path="url(#clip490)" d="M2175.72 502.45 L2194.08 502.45 L2194.08 506.385 L2180.01 506.385 L2180.01 514.857 Q2181.02 514.51 2182.04 514.348 Q2183.06 514.162 2184.08 514.162 Q2189.87 514.162 2193.25 517.334 Q2196.63 520.505 2196.63 525.922 Q2196.63 531.5 2193.15 534.602 Q2189.68 537.681 2183.36 537.681 Q2181.19 537.681 2178.92 537.31 Q2176.67 536.94 2174.26 536.199 L2174.26 531.5 Q2176.35 532.635 2178.57 533.19 Q2180.79 533.746 2183.27 533.746 Q2187.27 533.746 2189.61 531.639 Q2191.95 529.533 2191.95 525.922 Q2191.95 522.311 2189.61 520.204 Q2187.27 518.098 2183.27 518.098 Q2181.39 518.098 2179.52 518.514 Q2177.67 518.931 2175.72 519.811 L2175.72 502.45 Z" fill="#000000" fill-rule="evenodd" fill-opacity="1" /><polyline clip-path="url(#clip490)" style="stroke:#c68125; stroke-linecap:butt; stroke-linejoin:round; stroke-width:4; stroke-opacity:1; fill:none" points="
  1952.27,580.21 2103.33,580.21 
  "/>
<path clip-path="url(#clip490)" d="M2140.45 566.008 Q2136.83 566.008 2135.01 569.573 Q2133.2 573.115 2133.2 580.244 Q2133.2 587.351 2135.01 590.916 Q2136.83 594.457 2140.45 594.457 Q2144.08 594.457 2145.89 590.916 Q2147.71 587.351 2147.71 580.244 Q2147.71 573.115 2145.89 569.573 Q2144.08 566.008 2140.45 566.008 M2140.45 562.305 Q2146.26 562.305 2149.31 566.911 Q2152.39 571.494 2152.39 580.244 Q2152.39 588.971 2149.31 593.578 Q2146.26 598.161 2140.45 598.161 Q2134.64 598.161 2131.56 593.578 Q2128.5 588.971 2128.5 580.244 Q2128.5 571.494 2131.56 566.911 Q2134.64 562.305 2140.45 562.305 Z" fill="#000000" fill-rule="evenodd" fill-opacity="1" /><path clip-path="url(#clip490)" d="M2160.61 591.61 L2165.49 591.61 L2165.49 597.49 L2160.61 597.49 L2160.61 591.61 Z" fill="#000000" fill-rule="evenodd" fill-opacity="1" /><path clip-path="url(#clip490)" d="M2186.26 578.346 Q2183.11 578.346 2181.26 580.499 Q2179.43 582.652 2179.43 586.402 Q2179.43 590.128 2181.26 592.304 Q2183.11 594.457 2186.26 594.457 Q2189.4 594.457 2191.23 592.304 Q2193.08 590.128 2193.08 586.402 Q2193.08 582.652 2191.23 580.499 Q2189.4 578.346 2186.26 578.346 M2195.54 563.693 L2195.54 567.953 Q2193.78 567.119 2191.97 566.68 Q2190.19 566.24 2188.43 566.24 Q2183.8 566.24 2181.35 569.365 Q2178.92 572.49 2178.57 578.809 Q2179.94 576.795 2182 575.73 Q2184.06 574.642 2186.53 574.642 Q2191.74 574.642 2194.75 577.814 Q2197.78 580.962 2197.78 586.402 Q2197.78 591.726 2194.63 594.943 Q2191.49 598.161 2186.26 598.161 Q2180.26 598.161 2177.09 593.578 Q2173.92 588.971 2173.92 580.244 Q2173.92 572.05 2177.81 567.189 Q2181.7 562.305 2188.25 562.305 Q2190.01 562.305 2191.79 562.652 Q2193.59 562.999 2195.54 563.693 Z" fill="#000000" fill-rule="evenodd" fill-opacity="1" /><polyline clip-path="url(#clip490)" style="stroke:#00a98d; stroke-linecap:butt; stroke-linejoin:round; stroke-width:4; stroke-opacity:1; fill:none" points="
  1952.27,640.69 2103.33,640.69 
  "/>
<path clip-path="url(#clip490)" d="M2140.45 626.488 Q2136.83 626.488 2135.01 630.053 Q2133.2 633.595 2133.2 640.724 Q2133.2 647.831 2135.01 651.396 Q2136.83 654.937 2140.45 654.937 Q2144.08 654.937 2145.89 651.396 Q2147.71 647.831 2147.71 640.724 Q2147.71 633.595 2145.89 630.053 Q2144.08 626.488 2140.45 626.488 M2140.45 622.785 Q2146.26 622.785 2149.31 627.391 Q2152.39 631.974 2152.39 640.724 Q2152.39 649.451 2149.31 654.058 Q2146.26 658.641 2140.45 658.641 Q2134.64 658.641 2131.56 654.058 Q2128.5 649.451 2128.5 640.724 Q2128.5 631.974 2131.56 627.391 Q2134.64 622.785 2140.45 622.785 Z" fill="#000000" fill-rule="evenodd" fill-opacity="1" /><path clip-path="url(#clip490)" d="M2160.61 652.09 L2165.49 652.09 L2165.49 657.97 L2160.61 657.97 L2160.61 652.09 Z" fill="#000000" fill-rule="evenodd" fill-opacity="1" /><path clip-path="url(#clip490)" d="M2174.5 623.41 L2196.72 623.41 L2196.72 625.4 L2184.17 657.97 L2179.29 657.97 L2191.09 627.345 L2174.5 627.345 L2174.5 623.41 Z" fill="#000000" fill-rule="evenodd" fill-opacity="1" /><polyline clip-path="url(#clip490)" style="stroke:#8e971d; stroke-linecap:butt; stroke-linejoin:round; stroke-width:4; stroke-opacity:1; fill:none" points="
  1952.27,701.17 2103.33,701.17 
  "/>
<path clip-path="url(#clip490)" d="M2140.45 686.968 Q2136.83 686.968 2135.01 690.533 Q2133.2 694.075 2133.2 701.204 Q2133.2 708.311 2135.01 711.876 Q2136.83 715.417 2140.45 715.417 Q2144.08 715.417 2145.89 711.876 Q2147.71 708.311 2147.71 701.204 Q2147.71 694.075 2145.89 690.533 Q2144.08 686.968 2140.45 686.968 M2140.45 683.265 Q2146.26 683.265 2149.31 687.871 Q2152.39 692.454 2152.39 701.204 Q2152.39 709.931 2149.31 714.538 Q2146.26 719.121 2140.45 719.121 Q2134.64 719.121 2131.56 714.538 Q2128.5 709.931 2128.5 701.204 Q2128.5 692.454 2131.56 687.871 Q2134.64 683.265 2140.45 683.265 Z" fill="#000000" fill-rule="evenodd" fill-opacity="1" /><path clip-path="url(#clip490)" d="M2160.61 712.57 L2165.49 712.57 L2165.49 718.45 L2160.61 718.45 L2160.61 712.57 Z" fill="#000000" fill-rule="evenodd" fill-opacity="1" /><path clip-path="url(#clip490)" d="M2185.68 702.038 Q2182.34 702.038 2180.42 703.82 Q2178.52 705.602 2178.52 708.727 Q2178.52 711.852 2180.42 713.635 Q2182.34 715.417 2185.68 715.417 Q2189.01 715.417 2190.93 713.635 Q2192.85 711.829 2192.85 708.727 Q2192.85 705.602 2190.93 703.82 Q2189.03 702.038 2185.68 702.038 M2181 700.047 Q2177.99 699.306 2176.3 697.246 Q2174.64 695.186 2174.64 692.223 Q2174.64 688.079 2177.57 685.672 Q2180.54 683.265 2185.68 683.265 Q2190.84 683.265 2193.78 685.672 Q2196.72 688.079 2196.72 692.223 Q2196.72 695.186 2195.03 697.246 Q2193.36 699.306 2190.38 700.047 Q2193.76 700.834 2195.63 703.126 Q2197.53 705.417 2197.53 708.727 Q2197.53 713.751 2194.45 716.436 Q2191.39 719.121 2185.68 719.121 Q2179.96 719.121 2176.88 716.436 Q2173.82 713.751 2173.82 708.727 Q2173.82 705.417 2175.72 703.126 Q2177.62 700.834 2181 700.047 M2179.29 692.663 Q2179.29 695.348 2180.95 696.852 Q2182.64 698.357 2185.68 698.357 Q2188.69 698.357 2190.38 696.852 Q2192.09 695.348 2192.09 692.663 Q2192.09 689.977 2190.38 688.473 Q2188.69 686.968 2185.68 686.968 Q2182.64 686.968 2180.95 688.473 Q2179.29 689.977 2179.29 692.663 Z" fill="#000000" fill-rule="evenodd" fill-opacity="1" /><polyline clip-path="url(#clip490)" style="stroke:#00a8cb; stroke-linecap:butt; stroke-linejoin:round; stroke-width:4; stroke-opacity:1; fill:none" points="
  1952.27,761.65 2103.33,761.65 
  "/>
<path clip-path="url(#clip490)" d="M2140.45 747.448 Q2136.83 747.448 2135.01 751.013 Q2133.2 754.555 2133.2 761.684 Q2133.2 768.791 2135.01 772.356 Q2136.83 775.897 2140.45 775.897 Q2144.08 775.897 2145.89 772.356 Q2147.71 768.791 2147.71 761.684 Q2147.71 754.555 2145.89 751.013 Q2144.08 747.448 2140.45 747.448 M2140.45 743.745 Q2146.26 743.745 2149.31 748.351 Q2152.39 752.934 2152.39 761.684 Q2152.39 770.411 2149.31 775.018 Q2146.26 779.601 2140.45 779.601 Q2134.64 779.601 2131.56 775.018 Q2128.5 770.411 2128.5 761.684 Q2128.5 752.934 2131.56 748.351 Q2134.64 743.745 2140.45 743.745 Z" fill="#000000" fill-rule="evenodd" fill-opacity="1" /><path clip-path="url(#clip490)" d="M2160.61 773.05 L2165.49 773.05 L2165.49 778.93 L2160.61 778.93 L2160.61 773.05 Z" fill="#000000" fill-rule="evenodd" fill-opacity="1" /><path clip-path="url(#clip490)" d="M2175.82 778.212 L2175.82 773.953 Q2177.57 774.786 2179.38 775.226 Q2181.19 775.666 2182.92 775.666 Q2187.55 775.666 2189.98 772.564 Q2192.44 769.439 2192.78 763.096 Q2191.44 765.087 2189.38 766.152 Q2187.32 767.217 2184.82 767.217 Q2179.64 767.217 2176.6 764.092 Q2173.59 760.944 2173.59 755.504 Q2173.59 750.18 2176.74 746.962 Q2179.89 743.745 2185.12 743.745 Q2191.12 743.745 2194.26 748.351 Q2197.44 752.934 2197.44 761.684 Q2197.44 769.856 2193.55 774.74 Q2189.68 779.601 2183.13 779.601 Q2181.37 779.601 2179.57 779.254 Q2177.76 778.906 2175.82 778.212 M2185.12 763.559 Q2188.27 763.559 2190.1 761.406 Q2191.95 759.254 2191.95 755.504 Q2191.95 751.777 2190.1 749.624 Q2188.27 747.448 2185.12 747.448 Q2181.97 747.448 2180.12 749.624 Q2178.29 751.777 2178.29 755.504 Q2178.29 759.254 2180.12 761.406 Q2181.97 763.559 2185.12 763.559 Z" fill="#000000" fill-rule="evenodd" fill-opacity="1" /><polyline clip-path="url(#clip490)" style="stroke:#9b7fe8; stroke-linecap:butt; stroke-linejoin:round; stroke-width:4; stroke-opacity:1; fill:none" points="
  1952.27,822.13 2103.33,822.13 
  "/>
<path clip-path="url(#clip490)" d="M2129.17 835.474 L2136.81 835.474 L2136.81 809.109 L2128.5 810.775 L2128.5 806.516 L2136.76 804.85 L2141.44 804.85 L2141.44 835.474 L2149.08 835.474 L2149.08 839.41 L2129.17 839.41 L2129.17 835.474 Z" fill="#000000" fill-rule="evenodd" fill-opacity="1" /><path clip-path="url(#clip490)" d="M2158.52 833.53 L2163.41 833.53 L2163.41 839.41 L2158.52 839.41 L2158.52 833.53 Z" fill="#000000" fill-rule="evenodd" fill-opacity="1" /><path clip-path="url(#clip490)" d="M2183.59 807.928 Q2179.98 807.928 2178.15 811.493 Q2176.35 815.035 2176.35 822.164 Q2176.35 829.271 2178.15 832.836 Q2179.98 836.377 2183.59 836.377 Q2187.23 836.377 2189.03 832.836 Q2190.86 829.271 2190.86 822.164 Q2190.86 815.035 2189.03 811.493 Q2187.23 807.928 2183.59 807.928 M2183.59 804.225 Q2189.4 804.225 2192.46 808.831 Q2195.54 813.414 2195.54 822.164 Q2195.54 830.891 2192.46 835.498 Q2189.4 840.081 2183.59 840.081 Q2177.78 840.081 2174.7 835.498 Q2171.65 830.891 2171.65 822.164 Q2171.65 813.414 2174.7 808.831 Q2177.78 804.225 2183.59 804.225 Z" fill="#000000" fill-rule="evenodd" fill-opacity="1" /><polyline clip-path="url(#clip490)" style="stroke:#608cf6; stroke-linecap:butt; stroke-linejoin:round; stroke-width:4; stroke-opacity:1; fill:none" points="
  1952.27,882.61 2103.33,882.61 
  "/>
<path clip-path="url(#clip490)" d="M2140.45 868.408 Q2136.83 868.408 2135.01 871.973 Q2133.2 875.515 2133.2 882.644 Q2133.2 889.751 2135.01 893.316 Q2136.83 896.857 2140.45 896.857 Q2144.08 896.857 2145.89 893.316 Q2147.71 889.751 2147.71 882.644 Q2147.71 875.515 2145.89 871.973 Q2144.08 868.408 2140.45 868.408 M2140.45 864.705 Q2146.26 864.705 2149.31 869.311 Q2152.39 873.894 2152.39 882.644 Q2152.39 891.371 2149.31 895.978 Q2146.26 900.561 2140.45 900.561 Q2134.64 900.561 2131.56 895.978 Q2128.5 891.371 2128.5 882.644 Q2128.5 873.894 2131.56 869.311 Q2134.64 864.705 2140.45 864.705 Z" fill="#000000" fill-rule="evenodd" fill-opacity="1" /><path clip-path="url(#clip490)" d="M2160.61 894.01 L2165.49 894.01 L2165.49 899.89 L2160.61 899.89 L2160.61 894.01 Z" fill="#000000" fill-rule="evenodd" fill-opacity="1" /><path clip-path="url(#clip490)" d="M2179.7 895.954 L2196.02 895.954 L2196.02 899.89 L2174.08 899.89 L2174.08 895.954 Q2176.74 893.2 2181.32 888.57 Q2185.93 883.917 2187.11 882.575 Q2189.36 880.052 2190.24 878.316 Q2191.14 876.556 2191.14 874.867 Q2191.14 872.112 2189.2 870.376 Q2187.27 868.64 2184.17 868.64 Q2181.97 868.64 2179.52 869.404 Q2177.09 870.167 2174.31 871.718 L2174.31 866.996 Q2177.14 865.862 2179.59 865.283 Q2182.04 864.705 2184.08 864.705 Q2189.45 864.705 2192.64 867.39 Q2195.84 870.075 2195.84 874.566 Q2195.84 876.695 2195.03 878.617 Q2194.24 880.515 2192.13 883.107 Q2191.56 883.779 2188.45 886.996 Q2185.35 890.191 2179.7 895.954 Z" fill="#000000" fill-rule="evenodd" fill-opacity="1" /><path clip-path="url(#clip490)" d="M2206.65 895.954 L2214.29 895.954 L2214.29 869.589 L2205.98 871.255 L2205.98 866.996 L2214.24 865.33 L2218.92 865.33 L2218.92 895.954 L2226.56 895.954 L2226.56 899.89 L2206.65 899.89 L2206.65 895.954 Z" fill="#000000" fill-rule="evenodd" fill-opacity="1" /><polyline clip-path="url(#clip490)" style="stroke:#f05f73; stroke-linecap:butt; stroke-linejoin:round; stroke-width:4; stroke-opacity:1; fill:none" points="
  1952.27,943.09 2103.33,943.09 
  "/>
<path clip-path="url(#clip490)" d="M2140.45 928.888 Q2136.83 928.888 2135.01 932.453 Q2133.2 935.995 2133.2 943.124 Q2133.2 950.231 2135.01 953.796 Q2136.83 957.337 2140.45 957.337 Q2144.08 957.337 2145.89 953.796 Q2147.71 950.231 2147.71 943.124 Q2147.71 935.995 2145.89 932.453 Q2144.08 928.888 2140.45 928.888 M2140.45 925.185 Q2146.26 925.185 2149.31 929.791 Q2152.39 934.374 2152.39 943.124 Q2152.39 951.851 2149.31 956.458 Q2146.26 961.041 2140.45 961.041 Q2134.64 961.041 2131.56 956.458 Q2128.5 951.851 2128.5 943.124 Q2128.5 934.374 2131.56 929.791 Q2134.64 925.185 2140.45 925.185 Z" fill="#000000" fill-rule="evenodd" fill-opacity="1" /><path clip-path="url(#clip490)" d="M2160.61 954.49 L2165.49 954.49 L2165.49 960.37 L2160.61 960.37 L2160.61 954.49 Z" fill="#000000" fill-rule="evenodd" fill-opacity="1" /><path clip-path="url(#clip490)" d="M2186.26 941.226 Q2183.11 941.226 2181.26 943.379 Q2179.43 945.532 2179.43 949.282 Q2179.43 953.008 2181.26 955.184 Q2183.11 957.337 2186.26 957.337 Q2189.4 957.337 2191.23 955.184 Q2193.08 953.008 2193.08 949.282 Q2193.08 945.532 2191.23 943.379 Q2189.4 941.226 2186.26 941.226 M2195.54 926.573 L2195.54 930.833 Q2193.78 929.999 2191.97 929.56 Q2190.19 929.12 2188.43 929.12 Q2183.8 929.12 2181.35 932.245 Q2178.92 935.37 2178.57 941.689 Q2179.94 939.675 2182 938.61 Q2184.06 937.522 2186.53 937.522 Q2191.74 937.522 2194.75 940.694 Q2197.78 943.842 2197.78 949.282 Q2197.78 954.606 2194.63 957.823 Q2191.49 961.041 2186.26 961.041 Q2180.26 961.041 2177.09 956.458 Q2173.92 951.851 2173.92 943.124 Q2173.92 934.93 2177.81 930.069 Q2181.7 925.185 2188.25 925.185 Q2190.01 925.185 2191.79 925.532 Q2193.59 925.879 2195.54 926.573 Z" fill="#000000" fill-rule="evenodd" fill-opacity="1" /><path clip-path="url(#clip490)" d="M2204.66 925.81 L2226.88 925.81 L2226.88 927.8 L2214.33 960.37 L2209.45 960.37 L2221.26 929.745 L2204.66 929.745 L2204.66 925.81 Z" fill="#000000" fill-rule="evenodd" fill-opacity="1" /></svg>
