<?xml version="1.0" encoding="utf-8"?>
<svg xmlns="http://www.w3.org/2000/svg" xmlns:xlink="http://www.w3.org/1999/xlink" width="600" height="400" viewBox="0 0 2400 1600">
<defs>
  <clipPath id="clip430">
    <rect x="0" y="0" width="2400" height="1600"/>
  </clipPath>
</defs>
<path clip-path="url(#clip430)" d="
M0 1600 L2400 1600 L2400 0 L0 0  Z
  " fill="#ffffff" fill-rule="evenodd" fill-opacity="1"/>
<defs>
  <clipPath id="clip431">
    <rect x="480" y="0" width="1681" height="1600"/>
  </clipPath>
</defs>
<path clip-path="url(#clip430)" d="
M86.9921 1521.01 L2352.76 1521.01 L2352.76 47.2441 L86.9921 47.2441  Z
  " fill="#ffffff" fill-rule="evenodd" fill-opacity="1"/>
<defs>
  <clipPath id="clip432">
    <rect x="86" y="47" width="2267" height="1475"/>
  </clipPath>
</defs>
<polyline clip-path="url(#clip432)" style="stroke:#000000; stroke-linecap:butt; stroke-linejoin:round; stroke-width:2; stroke-opacity:0.1; fill:none" points="
  601.12,1521.01 601.12,47.2441 
  "/>
<polyline clip-path="url(#clip432)" style="stroke:#000000; stroke-linecap:butt; stroke-linejoin:round; stroke-width:2; stroke-opacity:0.1; fill:none" points="
  1163.62,1521.01 1163.62,47.2441 
  "/>
<polyline clip-path="url(#clip432)" style="stroke:#000000; stroke-linecap:butt; stroke-linejoin:round; stroke-width:2; stroke-opacity:0.1; fill:none" points="
  1726.13,1521.01 1726.13,47.2441 
  "/>
<polyline clip-path="url(#clip432)" style="stroke:#000000; stroke-linecap:butt; stroke-linejoin:round; stroke-width:2; stroke-opacity:0.1; fill:none" points="
  2288.63,1521.01 2288.63,47.2441 
  "/>
<polyline clip-path="url(#clip430)" style="stroke:#000000; stroke-linecap:butt; stroke-linejoin:round; stroke-width:4; stroke-opacity:1; fill:none" points="
  86.9921,1521.01 2352.76,1521.01 
  "/>
<polyline clip-path="url(#clip430)" style="stroke:#000000; stroke-linecap:butt; stroke-linejoin:round; stroke-width:4; stroke-opacity:1; fill:none" points="
  601.12,1521.01 601.12,1503.32 
  "/>
<polyline clip-path="url(#clip430)" style="stroke:#000000; stroke-linecap:butt; stroke-linejoin:round; stroke-width:4; stroke-opacity:1; fill:none" points="
  1163.62,1521.01 1163.62,1503.32 
  "/>
<polyline clip-path="url(#clip430)" style="stroke:#000000; stroke-linecap:butt; stroke-linejoin:round; stroke-width:4; stroke-opacity:1; fill:none" points="
  1726.13,1521.01 1726.13,1503.32 
  "/>
<polyline clip-path="url(#clip430)" style="stroke:#000000; stroke-linecap:butt; stroke-linejoin:round; stroke-width:4; stroke-opacity:1; fill:none" points="
  2288.63,1521.01 2288.63,1503.32 
  "/>
<path clip-path="url(#clip430)" d="M591.398 1547.12 L609.754 1547.12 L609.754 1551.06 L595.68 1551.06 L595.68 1559.53 Q596.699 1559.18 597.717 1559.02 Q598.736 1558.83 599.755 1558.83 Q605.542 1558.83 608.921 1562 Q612.301 1565.18 612.301 1570.59 Q612.301 1576.17 608.829 1579.27 Q605.356 1582.35 599.037 1582.35 Q596.861 1582.35 594.593 1581.98 Q592.347 1581.61 589.94 1580.87 L589.94 1576.17 Q592.023 1577.3 594.245 1577.86 Q596.467 1578.42 598.944 1578.42 Q602.949 1578.42 605.287 1576.31 Q607.625 1574.2 607.625 1570.59 Q607.625 1566.98 605.287 1564.87 Q602.949 1562.77 598.944 1562.77 Q597.069 1562.77 595.194 1563.18 Q593.343 1563.6 591.398 1564.48 L591.398 1547.12 Z" fill="#000000" fill-rule="evenodd" fill-opacity="1" /><path clip-path="url(#clip430)" d="M1138.31 1577.74 L1145.95 1577.74 L1145.95 1551.38 L1137.64 1553.05 L1137.64 1548.79 L1145.9 1547.12 L1150.58 1547.12 L1150.58 1577.74 L1158.22 1577.74 L1158.22 1581.68 L1138.31 1581.68 L1138.31 1577.74 Z" fill="#000000" fill-rule="evenodd" fill-opacity="1" /><path clip-path="url(#clip430)" d="M1177.66 1550.2 Q1174.05 1550.2 1172.22 1553.76 Q1170.42 1557.31 1170.42 1564.43 Q1170.42 1571.54 1172.22 1575.11 Q1174.05 1578.65 1177.66 1578.65 Q1181.3 1578.65 1183.1 1575.11 Q1184.93 1571.54 1184.93 1564.43 Q1184.93 1557.31 1183.1 1553.76 Q1181.3 1550.2 1177.66 1550.2 M1177.66 1546.49 Q1183.47 1546.49 1186.53 1551.1 Q1189.61 1555.68 1189.61 1564.43 Q1189.61 1573.16 1186.53 1577.77 Q1183.47 1582.35 1177.66 1582.35 Q1171.85 1582.35 1168.77 1577.77 Q1165.72 1573.16 1165.72 1564.43 Q1165.72 1555.68 1168.77 1551.1 Q1171.85 1546.49 1177.66 1546.49 Z" fill="#000000" fill-rule="evenodd" fill-opacity="1" /><path clip-path="url(#clip430)" d="M1701.31 1577.74 L1708.95 1577.74 L1708.95 1551.38 L1700.64 1553.05 L1700.64 1548.79 L1708.9 1547.12 L1713.58 1547.12 L1713.58 1577.74 L1721.22 1577.74 L1721.22 1581.68 L1701.31 1581.68 L1701.31 1577.74 Z" fill="#000000" fill-rule="evenodd" fill-opacity="1" /><path clip-path="url(#clip430)" d="M1730.71 1547.12 L1749.07 1547.12 L1749.07 1551.06 L1734.99 1551.06 L1734.99 1559.53 Q1736.01 1559.18 1737.03 1559.02 Q1738.05 1558.83 1739.07 1558.83 Q1744.85 1558.83 1748.23 1562 Q1751.61 1565.18 1751.61 1570.59 Q1751.61 1576.17 1748.14 1579.27 Q1744.67 1582.35 1738.35 1582.35 Q1736.17 1582.35 1733.9 1581.98 Q1731.66 1581.61 1729.25 1580.87 L1729.25 1576.17 Q1731.34 1577.3 1733.56 1577.86 Q1735.78 1578.42 1738.26 1578.42 Q1742.26 1578.42 1744.6 1576.31 Q1746.94 1574.2 1746.94 1570.59 Q1746.94 1566.98 1744.6 1564.87 Q1742.26 1562.77 1738.26 1562.77 Q1736.38 1562.77 1734.51 1563.18 Q1732.65 1563.6 1730.71 1564.48 L1730.71 1547.12 Z" fill="#000000" fill-rule="evenodd" fill-opacity="1" /><path clip-path="url(#clip430)" d="M2267.4 1577.74 L2283.72 1577.74 L2283.72 1581.68 L2261.78 1581.68 L2261.78 1577.74 Q2264.44 1574.99 2269.02 1570.36 Q2273.63 1565.71 2274.81 1564.37 Q2277.06 1561.84 2277.94 1560.11 Q2278.84 1558.35 2278.84 1556.66 Q2278.84 1553.9 2276.89 1552.17 Q2274.97 1550.43 2271.87 1550.43 Q2269.67 1550.43 2267.22 1551.19 Q2264.79 1551.96 2262.01 1553.51 L2262.01 1548.79 Q2264.83 1547.65 2267.29 1547.07 Q2269.74 1546.49 2271.78 1546.49 Q2277.15 1546.49 2280.34 1549.18 Q2283.54 1551.87 2283.54 1556.36 Q2283.54 1558.49 2282.73 1560.41 Q2281.94 1562.3 2279.83 1564.9 Q2279.26 1565.57 2276.15 1568.79 Q2273.05 1571.98 2267.4 1577.74 Z" fill="#000000" fill-rule="evenodd" fill-opacity="1" /><path clip-path="url(#clip430)" d="M2303.54 1550.2 Q2299.93 1550.2 2298.1 1553.76 Q2296.29 1557.31 2296.29 1564.43 Q2296.29 1571.54 2298.1 1575.11 Q2299.93 1578.65 2303.54 1578.65 Q2307.17 1578.65 2308.98 1575.11 Q2310.81 1571.54 2310.81 1564.43 Q2310.81 1557.31 2308.98 1553.76 Q2307.17 1550.2 2303.54 1550.2 M2303.54 1546.49 Q2309.35 1546.49 2312.4 1551.1 Q2315.48 1555.68 2315.48 1564.43 Q2315.48 1573.16 2312.4 1577.77 Q2309.35 1582.35 2303.54 1582.35 Q2297.73 1582.35 2294.65 1577.77 Q2291.59 1573.16 2291.59 1564.43 Q2291.59 1555.68 2294.65 1551.1 Q2297.73 1546.49 2303.54 1546.49 Z" fill="#000000" fill-rule="evenodd" fill-opacity="1" /><polyline clip-path="url(#clip432)" style="stroke:#000000; stroke-linecap:butt; stroke-linejoin:round; stroke-width:2; stroke-opacity:0.1; fill:none" points="
  86.9921,1446.33 2352.76,1446.33 
  "/>
<polyline clip-path="url(#clip432)" style="stroke:#000000; stroke-linecap:butt; stroke-linejoin:round; stroke-width:2; stroke-opacity:0.1; fill:none" points="
  86.9921,1171.55 2352.76,1171.55 
  "/>
<polyline clip-path="url(#clip432)" style="stroke:#000000; stroke-linecap:butt; stroke-linejoin:round; stroke-width:2; stroke-opacity:0.1; fill:none" points="
  86.9921,896.782 2352.76,896.782 
  "/>
<polyline clip-path="url(#clip432)" style="stroke:#000000; stroke-linecap:butt; stroke-linejoin:round; stroke-width:2; stroke-opacity:0.1; fill:none" points="
  86.9921,622.011 2352.76,622.011 
  "/>
<polyline clip-path="url(#clip432)" style="stroke:#000000; stroke-linecap:butt; stroke-linejoin:round; stroke-width:2; stroke-opacity:0.1; fill:none" points="
  86.9921,347.239 2352.76,347.239 
  "/>
<polyline clip-path="url(#clip432)" style="stroke:#000000; stroke-linecap:butt; stroke-linejoin:round; stroke-width:2; stroke-opacity:0.1; fill:none" points="
  86.9921,72.4681 2352.76,72.4681 
  "/>
<polyline clip-path="url(#clip430)" style="stroke:#000000; stroke-linecap:butt; stroke-linejoin:round; stroke-width:4; stroke-opacity:1; fill:none" points="
  86.9921,1521.01 86.9921,47.2441 
  "/>
<polyline clip-path="url(#clip430)" style="stroke:#000000; stroke-linecap:butt; stroke-linejoin:round; stroke-width:4; stroke-opacity:1; fill:none" points="
  86.9921,1446.33 114.181,1446.33 
  "/>
<polyline clip-path="url(#clip430)" style="stroke:#000000; stroke-linecap:butt; stroke-linejoin:round; stroke-width:4; stroke-opacity:1; fill:none" points="
  86.9921,1171.55 114.181,1171.55 
  "/>
<polyline clip-path="url(#clip430)" style="stroke:#000000; stroke-linecap:butt; stroke-linejoin:round; stroke-width:4; stroke-opacity:1; fill:none" points="
  86.9921,896.782 114.181,896.782 
  "/>
<polyline clip-path="url(#clip430)" style="stroke:#000000; stroke-linecap:butt; stroke-linejoin:round; stroke-width:4; stroke-opacity:1; fill:none" points="
  86.9921,622.011 114.181,622.011 
  "/>
<polyline clip-path="url(#clip430)" style="stroke:#000000; stroke-linecap:butt; stroke-linejoin:round; stroke-width:4; stroke-opacity:1; fill:none" points="
  86.9921,347.239 114.181,347.239 
  "/>
<polyline clip-path="url(#clip430)" style="stroke:#000000; stroke-linecap:butt; stroke-linejoin:round; stroke-width:4; stroke-opacity:1; fill:none" points="
  86.9921,72.4681 114.181,72.4681 
  "/>
<path clip-path="url(#clip430)" d="M-35.35 1432.12 Q-38.9611 1432.12 -40.7898 1435.69 Q-42.5953 1439.23 -42.5953 1446.36 Q-42.5953 1453.47 -40.7898 1457.03 Q-38.9611 1460.57 -35.35 1460.57 Q-31.7158 1460.57 -29.9102 1457.03 Q-28.0815 1453.47 -28.0815 1446.36 Q-28.0815 1439.23 -29.9102 1435.69 Q-31.7158 1432.12 -35.35 1432.12 M-35.35 1428.42 Q-29.5398 1428.42 -26.4843 1433.03 Q-23.4056 1437.61 -23.4056 1446.36 Q-23.4056 1455.09 -26.4843 1459.69 Q-29.5398 1464.28 -35.35 1464.28 Q-41.1602 1464.28 -44.2388 1459.69 Q-47.2944 1455.09 -47.2944 1446.36 Q-47.2944 1437.61 -44.2388 1433.03 Q-41.1602 1428.42 -35.35 1428.42 Z" fill="#000000" fill-rule="evenodd" fill-opacity="1" /><path clip-path="url(#clip430)" d="M-15.1881 1457.73 L-10.3038 1457.73 L-10.3038 1463.61 L-15.1881 1463.61 L-15.1881 1457.73 Z" fill="#000000" fill-rule="evenodd" fill-opacity="1" /><path clip-path="url(#clip430)" d="M0.69147 1459.67 L8.33032 1459.67 L8.33032 1433.3 L0.0201769 1434.97 L0.0201769 1430.71 L8.28402 1429.05 L12.9599 1429.05 L12.9599 1459.67 L20.5988 1459.67 L20.5988 1463.61 L0.69147 1463.61 L0.69147 1459.67 Z" fill="#000000" fill-rule="evenodd" fill-opacity="1" /><path clip-path="url(#clip430)" d="M30.0895 1429.05 L48.4458 1429.05 L48.4458 1432.98 L34.3718 1432.98 L34.3718 1441.45 Q35.3904 1441.11 36.4089 1440.94 Q37.4274 1440.76 38.4459 1440.76 Q44.2329 1440.76 47.6125 1443.93 Q50.9921 1447.1 50.9921 1452.52 Q50.9921 1458.1 47.5199 1461.2 Q44.0477 1464.28 37.7283 1464.28 Q35.5524 1464.28 33.2839 1463.91 Q31.0385 1463.54 28.6311 1462.79 L28.6311 1458.1 Q30.7145 1459.23 32.9367 1459.79 Q35.1589 1460.34 37.6357 1460.34 Q41.6403 1460.34 43.9783 1458.23 Q46.3162 1456.13 46.3162 1452.52 Q46.3162 1448.91 43.9783 1446.8 Q41.6403 1444.69 37.6357 1444.69 Q35.7607 1444.69 33.8857 1445.11 Q32.0339 1445.53 30.0895 1446.41 L30.0895 1429.05 Z" fill="#000000" fill-rule="evenodd" fill-opacity="1" /><path clip-path="url(#clip430)" d="M-36.3454 1157.35 Q-39.9565 1157.35 -41.7852 1160.92 Q-43.5907 1164.46 -43.5907 1171.59 Q-43.5907 1178.69 -41.7852 1182.26 Q-39.9565 1185.8 -36.3454 1185.8 Q-32.7111 1185.8 -30.9056 1182.26 Q-29.0769 1178.69 -29.0769 1171.59 Q-29.0769 1164.46 -30.9056 1160.92 Q-32.7111 1157.35 -36.3454 1157.35 M-36.3454 1153.65 Q-30.5352 1153.65 -27.4797 1158.26 Q-24.401 1162.84 -24.401 1171.59 Q-24.401 1180.32 -27.4797 1184.92 Q-30.5352 1189.5 -36.3454 1189.5 Q-42.1555 1189.5 -45.2342 1184.92 Q-48.2897 1180.32 -48.2897 1171.59 Q-48.2897 1162.84 -45.2342 1158.26 Q-42.1555 1153.65 -36.3454 1153.65 Z" fill="#000000" fill-rule="evenodd" fill-opacity="1" /><path clip-path="url(#clip430)" d="M-16.1834 1182.95 L-11.2992 1182.95 L-11.2992 1188.83 L-16.1834 1188.83 L-16.1834 1182.95 Z" fill="#000000" fill-rule="evenodd" fill-opacity="1" /><path clip-path="url(#clip430)" d="M2.91368 1184.9 L19.233 1184.9 L19.233 1188.83 L-2.71129 1188.83 L-2.71129 1184.9 Q-0.0492672 1182.14 4.53404 1177.51 Q9.1405 1172.86 10.321 1171.52 Q12.5664 1169 13.446 1167.26 Q14.3488 1165.5 14.3488 1163.81 Q14.3488 1161.06 12.4044 1159.32 Q10.4831 1157.58 7.38125 1157.58 Q5.18219 1157.58 2.7285 1158.35 Q0.297953 1159.11 -2.47981 1160.66 L-2.47981 1155.94 Q0.344249 1154.81 2.79794 1154.23 Q5.25163 1153.65 7.28866 1153.65 Q12.659 1153.65 15.8534 1156.33 Q19.0479 1159.02 19.0479 1163.51 Q19.0479 1165.64 18.2377 1167.56 Q17.4506 1169.46 15.3442 1172.05 Q14.7655 1172.72 11.6636 1175.94 Q8.5618 1179.13 2.91368 1184.9 Z" fill="#000000" fill-rule="evenodd" fill-opacity="1" /><path clip-path="url(#clip430)" d="M39.0477 1157.35 Q35.4367 1157.35 33.608 1160.92 Q31.8024 1164.46 31.8024 1171.59 Q31.8024 1178.69 33.608 1182.26 Q35.4367 1185.8 39.0477 1185.8 Q42.682 1185.8 44.4875 1182.26 Q46.3162 1178.69 46.3162 1171.59 Q46.3162 1164.46 44.4875 1160.92 Q42.682 1157.35 39.0477 1157.35 M39.0477 1153.65 Q44.8579 1153.65 47.9134 1158.26 Q50.9921 1162.84 50.9921 1171.59 Q50.9921 1180.32 47.9134 1184.92 Q44.8579 1189.5 39.0477 1189.5 Q33.2376 1189.5 30.1589 1184.92 Q27.1034 1180.32 27.1034 1171.59 Q27.1034 1162.84 30.1589 1158.26 Q33.2376 1153.65 39.0477 1153.65 Z" fill="#000000" fill-rule="evenodd" fill-opacity="1" /><path clip-path="url(#clip430)" d="M-35.35 882.581 Q-38.9611 882.581 -40.7898 886.146 Q-42.5953 889.687 -42.5953 896.817 Q-42.5953 903.923 -40.7898 907.488 Q-38.9611 911.03 -35.35 911.03 Q-31.7158 911.03 -29.9102 907.488 Q-28.0815 903.923 -28.0815 896.817 Q-28.0815 889.687 -29.9102 886.146 Q-31.7158 882.581 -35.35 882.581 M-35.35 878.877 Q-29.5398 878.877 -26.4843 883.484 Q-23.4056 888.067 -23.4056 896.817 Q-23.4056 905.544 -26.4843 910.15 Q-29.5398 914.734 -35.35 914.734 Q-41.1602 914.734 -44.2388 910.15 Q-47.2944 905.544 -47.2944 896.817 Q-47.2944 888.067 -44.2388 883.484 Q-41.1602 878.877 -35.35 878.877 Z" fill="#000000" fill-rule="evenodd" fill-opacity="1" /><path clip-path="url(#clip430)" d="M-15.1881 908.183 L-10.3038 908.183 L-10.3038 914.062 L-15.1881 914.062 L-15.1881 908.183 Z" fill="#000000" fill-rule="evenodd" fill-opacity="1" /><path clip-path="url(#clip430)" d="M3.90904 910.127 L20.2284 910.127 L20.2284 914.062 L-1.71592 914.062 L-1.71592 910.127 Q0.946098 907.372 5.52941 902.743 Q10.1359 898.09 11.3164 896.748 Q13.5618 894.224 14.4414 892.488 Q15.3442 890.729 15.3442 889.039 Q15.3442 886.285 13.3997 884.549 Q11.4784 882.812 8.37661 882.812 Q6.17755 882.812 3.72386 883.576 Q1.29332 884.34 -1.48444 885.891 L-1.48444 881.169 Q1.33961 880.035 3.7933 879.456 Q6.247 878.877 8.28402 878.877 Q13.6544 878.877 16.8488 881.562 Q20.0432 884.248 20.0432 888.738 Q20.0432 890.868 19.233 892.789 Q18.446 894.687 16.3395 897.28 Q15.7608 897.951 12.659 901.169 Q9.55716 904.363 3.90904 910.127 Z" fill="#000000" fill-rule="evenodd" fill-opacity="1" /><path clip-path="url(#clip430)" d="M30.0895 879.502 L48.4458 879.502 L48.4458 883.437 L34.3718 883.437 L34.3718 891.91 Q35.3904 891.562 36.4089 891.4 Q37.4274 891.215 38.4459 891.215 Q44.2329 891.215 47.6125 894.386 Q50.9921 897.558 50.9921 902.974 Q50.9921 908.553 47.5199 911.655 Q44.0477 914.734 37.7283 914.734 Q35.5524 914.734 33.2839 914.363 Q31.0385 913.993 28.6311 913.252 L28.6311 908.553 Q30.7145 909.687 32.9367 910.243 Q35.1589 910.798 37.6357 910.798 Q41.6403 910.798 43.9783 908.692 Q46.3162 906.585 46.3162 902.974 Q46.3162 899.363 43.9783 897.257 Q41.6403 895.15 37.6357 895.15 Q35.7607 895.15 33.8857 895.567 Q32.0339 895.984 30.0895 896.863 L30.0895 879.502 Z" fill="#000000" fill-rule="evenodd" fill-opacity="1" /><path clip-path="url(#clip430)" d="M-36.3454 607.81 Q-39.9565 607.81 -41.7852 611.374 Q-43.5907 614.916 -43.5907 622.046 Q-43.5907 629.152 -41.7852 632.717 Q-39.9565 636.258 -36.3454 636.258 Q-32.7111 636.258 -30.9056 632.717 Q-29.0769 629.152 -29.0769 622.046 Q-29.0769 614.916 -30.9056 611.374 Q-32.7111 607.81 -36.3454 607.81 M-36.3454 604.106 Q-30.5352 604.106 -27.4797 608.712 Q-24.401 613.296 -24.401 622.046 Q-24.401 630.772 -27.4797 635.379 Q-30.5352 639.962 -36.3454 639.962 Q-42.1555 639.962 -45.2342 635.379 Q-48.2897 630.772 -48.2897 622.046 Q-48.2897 613.296 -45.2342 608.712 Q-42.1555 604.106 -36.3454 604.106 Z" fill="#000000" fill-rule="evenodd" fill-opacity="1" /><path clip-path="url(#clip430)" d="M-16.1834 633.411 L-11.2992 633.411 L-11.2992 639.291 L-16.1834 639.291 L-16.1834 633.411 Z" fill="#000000" fill-rule="evenodd" fill-opacity="1" /><path clip-path="url(#clip430)" d="M13.0525 620.657 Q16.409 621.374 18.284 623.643 Q20.1821 625.911 20.1821 629.245 Q20.1821 634.36 16.6636 637.161 Q13.1451 639.962 6.66366 639.962 Q4.48775 639.962 2.17294 639.522 Q-0.118711 639.106 -2.5724 638.249 L-2.5724 633.735 Q-0.627968 634.87 1.68683 635.448 Q4.00164 636.027 6.52477 636.027 Q10.9229 636.027 13.2146 634.291 Q15.5294 632.555 15.5294 629.245 Q15.5294 626.189 13.3766 624.476 Q11.247 622.74 7.42754 622.74 L3.39979 622.74 L3.39979 618.897 L7.61273 618.897 Q11.0618 618.897 12.8905 617.532 Q14.7192 616.143 14.7192 613.55 Q14.7192 610.888 12.821 609.476 Q10.946 608.041 7.42754 608.041 Q5.50626 608.041 3.3072 608.458 Q1.10813 608.874 -1.53074 609.754 L-1.53074 605.587 Q1.13128 604.847 3.44608 604.476 Q5.78403 604.106 7.84421 604.106 Q13.1683 604.106 16.2701 606.536 Q19.3719 608.944 19.3719 613.064 Q19.3719 615.935 17.7284 617.925 Q16.0849 619.893 13.0525 620.657 Z" fill="#000000" fill-rule="evenodd" fill-opacity="1" /><path clip-path="url(#clip430)" d="M39.0477 607.81 Q35.4367 607.81 33.608 611.374 Q31.8024 614.916 31.8024 622.046 Q31.8024 629.152 33.608 632.717 Q35.4367 636.258 39.0477 636.258 Q42.682 636.258 44.4875 632.717 Q46.3162 629.152 46.3162 622.046 Q46.3162 614.916 44.4875 611.374 Q42.682 607.81 39.0477 607.81 M39.0477 604.106 Q44.8579 604.106 47.9134 608.712 Q50.9921 613.296 50.9921 622.046 Q50.9921 630.772 47.9134 635.379 Q44.8579 639.962 39.0477 639.962 Q33.2376 639.962 30.1589 635.379 Q27.1034 630.772 27.1034 622.046 Q27.1034 613.296 30.1589 608.712 Q33.2376 604.106 39.0477 604.106 Z" fill="#000000" fill-rule="evenodd" fill-opacity="1" /><path clip-path="url(#clip430)" d="M-35.35 333.038 Q-38.9611 333.038 -40.7898 336.603 Q-42.5953 340.145 -42.5953 347.274 Q-42.5953 354.381 -40.7898 357.945 Q-38.9611 361.487 -35.35 361.487 Q-31.7158 361.487 -29.9102 357.945 Q-28.0815 354.381 -28.0815 347.274 Q-28.0815 340.145 -29.9102 336.603 Q-31.7158 333.038 -35.35 333.038 M-35.35 329.334 Q-29.5398 329.334 -26.4843 333.941 Q-23.4056 338.524 -23.4056 347.274 Q-23.4056 356.001 -26.4843 360.607 Q-29.5398 365.191 -35.35 365.191 Q-41.1602 365.191 -44.2388 360.607 Q-47.2944 356.001 -47.2944 347.274 Q-47.2944 338.524 -44.2388 333.941 Q-41.1602 329.334 -35.35 329.334 Z" fill="#000000" fill-rule="evenodd" fill-opacity="1" /><path clip-path="url(#clip430)" d="M-15.1881 358.64 L-10.3038 358.64 L-10.3038 364.519 L-15.1881 364.519 L-15.1881 358.64 Z" fill="#000000" fill-rule="evenodd" fill-opacity="1" /><path clip-path="url(#clip430)" d="M14.0479 345.885 Q17.4043 346.603 19.2793 348.871 Q21.1775 351.14 21.1775 354.473 Q21.1775 359.589 17.659 362.39 Q14.1405 365.191 7.65902 365.191 Q5.48311 365.191 3.16831 364.751 Q0.876654 364.334 -1.57704 363.478 L-1.57704 358.964 Q0.367397 360.098 2.6822 360.677 Q4.997 361.256 7.52014 361.256 Q11.9183 361.256 14.2099 359.52 Q16.5247 357.783 16.5247 354.473 Q16.5247 351.418 14.372 349.705 Q12.2423 347.969 8.42291 347.969 L4.39515 347.969 L4.39515 344.126 L8.60809 344.126 Q12.0571 344.126 13.8858 342.76 Q15.7145 341.371 15.7145 338.779 Q15.7145 336.117 13.8164 334.705 Q11.9414 333.27 8.42291 333.27 Q6.50162 333.27 4.30256 333.686 Q2.1035 334.103 -0.535376 334.983 L-0.535376 330.816 Q2.12665 330.075 4.44145 329.705 Q6.7794 329.334 8.83957 329.334 Q14.1636 329.334 17.2655 331.765 Q20.3673 334.172 20.3673 338.293 Q20.3673 341.163 18.7238 343.154 Q17.0803 345.121 14.0479 345.885 Z" fill="#000000" fill-rule="evenodd" fill-opacity="1" /><path clip-path="url(#clip430)" d="M30.0895 329.959 L48.4458 329.959 L48.4458 333.895 L34.3718 333.895 L34.3718 342.367 Q35.3904 342.02 36.4089 341.858 Q37.4274 341.672 38.4459 341.672 Q44.2329 341.672 47.6125 344.844 Q50.9921 348.015 50.9921 353.432 Q50.9921 359.01 47.5199 362.112 Q44.0477 365.191 37.7283 365.191 Q35.5524 365.191 33.2839 364.82 Q31.0385 364.45 28.6311 363.709 L28.6311 359.01 Q30.7145 360.145 32.9367 360.7 Q35.1589 361.256 37.6357 361.256 Q41.6403 361.256 43.9783 359.149 Q46.3162 357.043 46.3162 353.432 Q46.3162 349.82 43.9783 347.714 Q41.6403 345.608 37.6357 345.608 Q35.7607 345.608 33.8857 346.024 Q32.0339 346.441 30.0895 347.321 L30.0895 329.959 Z" fill="#000000" fill-rule="evenodd" fill-opacity="1" /><path clip-path="url(#clip430)" d="M-36.3454 58.2668 Q-39.9565 58.2668 -41.7852 61.8316 Q-43.5907 65.3732 -43.5907 72.5028 Q-43.5907 79.6093 -41.7852 83.1741 Q-39.9565 86.7157 -36.3454 86.7157 Q-32.7111 86.7157 -30.9056 83.1741 Q-29.0769 79.6093 -29.0769 72.5028 Q-29.0769 65.3732 -30.9056 61.8316 Q-32.7111 58.2668 -36.3454 58.2668 M-36.3454 54.5631 Q-30.5352 54.5631 -27.4797 59.1696 Q-24.401 63.7529 -24.401 72.5028 Q-24.401 81.2296 -27.4797 85.8361 Q-30.5352 90.4194 -36.3454 90.4194 Q-42.1555 90.4194 -45.2342 85.8361 Q-48.2897 81.2296 -48.2897 72.5028 Q-48.2897 63.7529 -45.2342 59.1696 Q-42.1555 54.5631 -36.3454 54.5631 Z" fill="#000000" fill-rule="evenodd" fill-opacity="1" /><path clip-path="url(#clip430)" d="M-16.1834 83.8685 L-11.2992 83.8685 L-11.2992 89.7481 L-16.1834 89.7481 L-16.1834 83.8685 Z" fill="#000000" fill-rule="evenodd" fill-opacity="1" /><path clip-path="url(#clip430)" d="M11.7331 59.2622 L-0.0724152 77.7111 L11.7331 77.7111 L11.7331 59.2622 M10.5062 55.1881 L16.3858 55.1881 L16.3858 77.7111 L21.3164 77.7111 L21.3164 81.6 L16.3858 81.6 L16.3858 89.7481 L11.7331 89.7481 L11.7331 81.6 L-3.86869 81.6 L-3.86869 77.0861 L10.5062 55.1881 Z" fill="#000000" fill-rule="evenodd" fill-opacity="1" /><path clip-path="url(#clip430)" d="M39.0477 58.2668 Q35.4367 58.2668 33.608 61.8316 Q31.8024 65.3732 31.8024 72.5028 Q31.8024 79.6093 33.608 83.1741 Q35.4367 86.7157 39.0477 86.7157 Q42.682 86.7157 44.4875 83.1741 Q46.3162 79.6093 46.3162 72.5028 Q46.3162 65.3732 44.4875 61.8316 Q42.682 58.2668 39.0477 58.2668 M39.0477 54.5631 Q44.8579 54.5631 47.9134 59.1696 Q50.9921 63.7529 50.9921 72.5028 Q50.9921 81.2296 47.9134 85.8361 Q44.8579 90.4194 39.0477 90.4194 Q33.2376 90.4194 30.1589 85.8361 Q27.1034 81.2296 27.1034 72.5028 Q27.1034 63.7529 30.1589 59.1696 Q33.2376 54.5631 39.0477 54.5631 Z" fill="#000000" fill-rule="evenodd" fill-opacity="1" /><polyline clip-path="url(#clip432)" style="stroke:#009af9; stroke-linecap:butt; stroke-linejoin:round; stroke-width:2; stroke-opacity:1; fill:none" points="
  151.118,198.863 263.618,215.349 376.119,193.368 488.62,220.845 601.12,237.331 713.621,193.368 826.122,297.781 938.622,270.304 1051.12,314.267 1163.62,336.249 
  1276.12,363.726 1388.63,374.717 1501.13,424.175 1613.63,446.157 1726.13,479.13 1838.63,512.102 1951.13,484.625 2063.63,473.634 2176.13,512.102 2288.63,501.111 
  
  "/>
<polyline clip-path="url(#clip432)" style="stroke:#e26f46; stroke-linecap:butt; stroke-linejoin:round; stroke-width:2; stroke-opacity:1; fill:none" points="
  151.118,121.927 263.618,198.863 376.119,209.854 488.62,259.313 601.12,347.239 713.621,391.203 826.122,446.157 938.622,435.166 1051.12,440.662 1163.62,451.653 
  1276.12,495.616 1388.63,545.075 1501.13,589.038 1613.63,616.515 1726.13,605.525 1838.63,649.488 1951.13,600.029 2063.63,704.442 2176.13,665.974 2288.63,682.461 
  
  "/>
<polyline clip-path="url(#clip432)" style="stroke:#3da44d; stroke-linecap:butt; stroke-linejoin:round; stroke-width:2; stroke-opacity:1; fill:none" points="
  151.118,209.854 263.618,292.285 376.119,292.285 488.62,424.175 601.12,473.634 713.621,578.047 826.122,605.525 938.622,649.488 1051.12,671.47 1163.62,665.974 
  1276.12,709.938 1388.63,742.91 1501.13,786.874 1613.63,819.846 1726.13,869.305 1838.63,902.278 1951.13,973.718 2063.63,1023.18 2176.13,1083.63 2288.63,1072.64 
  
  "/>
<polyline clip-path="url(#clip432)" style="stroke:#c271d2; stroke-linecap:butt; stroke-linejoin:round; stroke-width:2; stroke-opacity:1; fill:none" points="
  151.118,297.781 263.618,374.717 376.119,473.634 488.62,556.066 601.12,643.993 713.621,720.929 826.122,792.369 938.622,847.323 1051.12,858.314 1163.62,869.305 
  1276.12,973.718 1388.63,1001.2 1501.13,1034.17 1613.63,1072.64 1726.13,1111.1 1838.63,1160.56 1951.13,1177.05 2063.63,1253.99 2176.13,1270.47 2288.63,1275.97 
  
  "/>
<polyline clip-path="url(#clip432)" style="stroke:#ac8d18; stroke-linecap:butt; stroke-linejoin:round; stroke-width:2; stroke-opacity:1; fill:none" points="
  151.118,182.377 263.618,358.23 376.119,457.148 488.62,572.552 601.12,649.488 713.621,748.406 826.122,786.874 938.622,830.837 1051.12,885.791 1163.62,940.746 
  1276.12,951.737 1388.63,973.718 1501.13,1039.66 1613.63,1094.62 1726.13,1149.57 1838.63,1193.54 1951.13,1199.03 2063.63,1253.99 2176.13,1264.98 2288.63,1319.93 
  
  "/>
<polyline clip-path="url(#clip432)" style="stroke:#00a9ad; stroke-linecap:butt; stroke-linejoin:round; stroke-width:2; stroke-opacity:1; fill:none" points="
  151.118,209.854 263.618,391.203 376.119,501.111 488.62,561.561 601.12,633.002 713.621,759.397 826.122,781.378 938.622,836.333 1051.12,902.278 1163.62,973.718 
  1276.12,1017.68 1388.63,1067.14 1501.13,1100.11 1613.63,1116.6 1726.13,1188.04 1838.63,1221.01 1951.13,1259.48 2063.63,1336.42 2176.13,1374.88 2288.63,1418.85 
  
  "/>
<polyline clip-path="url(#clip432)" style="stroke:#ed5d92; stroke-linecap:butt; stroke-linejoin:round; stroke-width:2; stroke-opacity:1; fill:none" points="
  151.118,286.79 263.618,435.166 376.119,490.121 488.62,583.543 601.12,693.451 713.621,742.91 826.122,808.855 938.622,830.837 1051.12,929.755 1163.62,990.205 
  1276.12,1056.15 1388.63,1089.12 1501.13,1155.07 1613.63,1182.54 1726.13,1210.02 1838.63,1226.51 1951.13,1281.46 2063.63,1286.96 2176.13,1319.93 2288.63,1347.41 
  
  "/>
<polyline clip-path="url(#clip432)" style="stroke:#c68125; stroke-linecap:butt; stroke-linejoin:round; stroke-width:2; stroke-opacity:1; fill:none" points="
  151.118,88.9544 263.618,325.258 376.119,424.175 488.62,589.038 601.12,665.974 713.621,742.91 826.122,814.351 938.622,847.323 1051.12,885.791 1163.62,968.223 
  1276.12,1045.16 1388.63,1083.63 1501.13,1138.58 1613.63,1221.01 1726.13,1259.48 1838.63,1281.46 1951.13,1308.94 2063.63,1330.92 2176.13,1385.88 2288.63,1385.88 
  
  "/>
<polyline clip-path="url(#clip432)" style="stroke:#00a98d; stroke-linecap:butt; stroke-linejoin:round; stroke-width:2; stroke-opacity:1; fill:none" points="
  151.118,149.404 263.618,369.221 376.119,468.139 488.62,517.598 601.12,638.497 713.621,726.424 826.122,775.883 938.622,913.269 1051.12,957.232 1163.62,1039.66 
  1276.12,1094.62 1388.63,1111.1 1501.13,1182.54 1613.63,1237.5 1726.13,1281.46 1838.63,1308.94 1951.13,1363.89 2063.63,1407.86 2176.13,1435.33 2288.63,1479.3 
  
  "/>
<polyline clip-path="url(#clip432)" style="stroke:#8e971d; stroke-linecap:butt; stroke-linejoin:round; stroke-width:2; stroke-opacity:1; fill:none" points="
  151.118,165.89 263.618,396.698 376.119,512.102 488.62,638.497 601.12,720.929 713.621,781.378 826.122,836.333 938.622,929.755 1051.12,1012.19 1163.62,1067.14 
  1276.12,1100.11 1388.63,1166.06 1501.13,1199.03 1613.63,1242.99 1726.13,1270.47 1838.63,1341.91 1951.13,1352.9 2063.63,1402.36 2176.13,1418.85 2288.63,1435.33 
  
  "/>
<polyline clip-path="url(#clip432)" style="stroke:#00a8cb; stroke-linecap:butt; stroke-linejoin:round; stroke-width:2; stroke-opacity:1; fill:none" points="
  151.118,149.404 263.618,402.194 376.119,512.102 488.62,578.047 601.12,643.993 713.621,671.47 826.122,737.415 938.622,792.369 1051.12,830.837 1163.62,918.764 
  1276.12,979.214 1388.63,1034.17 1501.13,1100.11 1613.63,1166.06 1726.13,1188.04 1838.63,1275.97 1951.13,1308.94 2063.63,1330.92 2176.13,1380.38 2288.63,1413.35 
  
  "/>
<polyline clip-path="url(#clip432)" style="stroke:#9b7fe8; stroke-linecap:butt; stroke-linejoin:round; stroke-width:2; stroke-opacity:1; fill:none" points="
  151.118,204.358 263.618,413.185 376.119,561.561 488.62,638.497 601.12,720.929 713.621,759.397 826.122,819.846 938.622,885.791 1051.12,990.205 1163.62,1050.65 
  1276.12,1100.11 1388.63,1127.59 1501.13,1138.58 1613.63,1188.04 1726.13,1199.03 1838.63,1264.98 1951.13,1308.94 2063.63,1380.38 2176.13,1418.85 2288.63,1429.84 
  
  "/>
<polyline clip-path="url(#clip432)" style="stroke:#608cf6; stroke-linecap:butt; stroke-linejoin:round; stroke-width:2; stroke-opacity:1; fill:none" points="
  151.118,116.432 263.618,231.836 376.119,347.239 488.62,451.653 601.12,490.121 713.621,616.515 826.122,676.965 938.622,693.451 1051.12,742.91 1163.62,808.855 
  1276.12,830.837 1388.63,863.81 1501.13,902.278 1613.63,929.755 1726.13,979.214 1838.63,968.223 1951.13,995.7 2063.63,1023.18 2176.13,1045.16 2288.63,1072.64 
  
  "/>
<polyline clip-path="url(#clip432)" style="stroke:#f05f73; stroke-linecap:butt; stroke-linejoin:round; stroke-width:2; stroke-opacity:1; fill:none" points="
  151.118,209.854 263.618,391.203 376.119,512.102 488.62,605.525 601.12,654.983 713.621,726.424 826.122,737.415 938.622,825.342 1051.12,841.828 1163.62,891.287 
  1276.12,979.214 1388.63,1012.19 1501.13,1045.16 1613.63,1067.14 1726.13,1116.6 1838.63,1171.55 1951.13,1253.99 2063.63,1314.43 2176.13,1341.91 2288.63,1374.88 
  
  "/>
<path clip-path="url(#clip430)" d="
M1927.1 1003.57 L2277.23 1003.57 L2277.23 96.3696 L1927.1 96.3696  Z
  " fill="#ffffff" fill-rule="evenodd" fill-opacity="1"/>
<polyline clip-path="url(#clip430)" style="stroke:#000000; stroke-linecap:butt; stroke-linejoin:round; stroke-width:4; stroke-opacity:1; fill:none" points="
  1927.1,1003.57 2277.23,1003.57 2277.23,96.3696 1927.1,96.3696 1927.1,1003.57 
  "/>
<polyline clip-path="url(#clip430)" style="stroke:#009af9; stroke-linecap:butt; stroke-linejoin:round; stroke-width:4; stroke-opacity:1; fill:none" points="
  1952.27,156.85 2103.33,156.85 
  "/>
<path clip-path="url(#clip430)" d="M2140.45 142.648 Q2136.83 142.648 2135.01 146.213 Q2133.2 149.755 2133.2 156.884 Q2133.2 163.991 2135.01 167.556 Q2136.83 171.097 2140.45 171.097 Q2144.08 171.097 2145.89 167.556 Q2147.71 163.991 2147.71 156.884 Q2147.71 149.755 2145.89 146.213 Q2144.08 142.648 2140.45 142.648 M2140.45 138.945 Q2146.26 138.945 2149.31 143.551 Q2152.39 148.134 2152.39 156.884 Q2152.39 165.611 2149.31 170.218 Q2146.26 174.801 2140.45 174.801 Q2134.64 174.801 2131.56 170.218 Q2128.5 165.611 2128.5 156.884 Q2128.5 148.134 2131.56 143.551 Q2134.64 138.945 2140.45 138.945 Z" fill="#000000" fill-rule="evenodd" fill-opacity="1" /><path clip-path="url(#clip430)" d="M2160.61 168.25 L2165.49 168.25 L2165.49 174.13 L2160.61 174.13 L2160.61 168.25 Z" fill="#000000" fill-rule="evenodd" fill-opacity="1" /><path clip-path="url(#clip430)" d="M2185.68 142.648 Q2182.07 142.648 2180.24 146.213 Q2178.43 149.755 2178.43 156.884 Q2178.43 163.991 2180.24 167.556 Q2182.07 171.097 2185.68 171.097 Q2189.31 171.097 2191.12 167.556 Q2192.95 163.991 2192.95 156.884 Q2192.95 149.755 2191.12 146.213 Q2189.31 142.648 2185.68 142.648 M2185.68 138.945 Q2191.49 138.945 2194.54 143.551 Q2197.62 148.134 2197.62 156.884 Q2197.62 165.611 2194.54 170.218 Q2191.49 174.801 2185.68 174.801 Q2179.87 174.801 2176.79 170.218 Q2173.73 165.611 2173.73 156.884 Q2173.73 148.134 2176.79 143.551 Q2179.87 138.945 2185.68 138.945 Z" fill="#000000" fill-rule="evenodd" fill-opacity="1" /><path clip-path="url(#clip430)" d="M2206.65 170.194 L2214.29 170.194 L2214.29 143.829 L2205.98 145.495 L2205.98 141.236 L2214.24 139.57 L2218.92 139.57 L2218.92 170.194 L2226.56 170.194 L2226.56 174.13 L2206.65 174.13 L2206.65 170.194 Z" fill="#000000" fill-rule="evenodd" fill-opacity="1" /><polyline clip-path="url(#clip430)" style="stroke:#e26f46; stroke-linecap:butt; stroke-linejoin:round; stroke-width:4; stroke-opacity:1; fill:none" points="
  1952.27,217.33 2103.33,217.33 
  "/>
<path clip-path="url(#clip430)" d="M2140.45 203.128 Q2136.83 203.128 2135.01 206.693 Q2133.2 210.235 2133.2 217.364 Q2133.2 224.471 2135.01 228.036 Q2136.83 231.577 2140.45 231.577 Q2144.08 231.577 2145.89 228.036 Q2147.71 224.471 2147.71 217.364 Q2147.71 210.235 2145.89 206.693 Q2144.08 203.128 2140.45 203.128 M2140.45 199.425 Q2146.26 199.425 2149.31 204.031 Q2152.39 208.614 2152.39 217.364 Q2152.39 226.091 2149.31 230.698 Q2146.26 235.281 2140.45 235.281 Q2134.64 235.281 2131.56 230.698 Q2128.5 226.091 2128.5 217.364 Q2128.5 208.614 2131.56 204.031 Q2134.64 199.425 2140.45 199.425 Z" fill="#000000" fill-rule="evenodd" fill-opacity="1" /><path clip-path="url(#clip430)" d="M2160.61 228.73 L2165.49 228.73 L2165.49 234.61 L2160.61 234.61 L2160.61 228.73 Z" fill="#000000" fill-rule="evenodd" fill-opacity="1" /><path clip-path="url(#clip430)" d="M2185.68 203.128 Q2182.07 203.128 2180.24 206.693 Q2178.43 210.235 2178.43 217.364 Q2178.43 224.471 2180.24 228.036 Q2182.07 231.577 2185.68 231.577 Q2189.31 231.577 2191.12 228.036 Q2192.95 224.471 2192.95 217.364 Q2192.95 210.235 2191.12 206.693 Q2189.31 203.128 2185.68 203.128 M2185.68 199.425 Q2191.49 199.425 2194.54 204.031 Q2197.62 208.614 2197.62 217.364 Q2197.62 226.091 2194.54 230.698 Q2191.49 235.281 2185.68 235.281 Q2179.87 235.281 2176.79 230.698 Q2173.73 226.091 2173.73 217.364 Q2173.73 208.614 2176.79 204.031 Q2179.87 199.425 2185.68 199.425 Z" fill="#000000" fill-rule="evenodd" fill-opacity="1" /><path clip-path="url(#clip430)" d="M2205.88 200.05 L2224.24 200.05 L2224.24 203.985 L2210.17 203.985 L2210.17 212.457 Q2211.19 212.11 2212.2 211.948 Q2213.22 211.762 2214.24 211.762 Q2220.03 211.762 2223.41 214.934 Q2226.79 218.105 2226.79 223.522 Q2226.79 229.1 2223.32 232.202 Q2219.84 235.281 2213.52 235.281 Q2211.35 235.281 2209.08 234.91 Q2206.83 234.54 2204.43 233.799 L2204.43 229.1 Q2206.51 230.235 2208.73 230.79 Q2210.95 231.346 2213.43 231.346 Q2217.44 231.346 2219.77 229.239 Q2222.11 227.133 2222.11 223.522 Q2222.11 219.911 2219.77 217.804 Q2217.44 215.698 2213.43 215.698 Q2211.56 215.698 2209.68 216.114 Q2207.83 216.531 2205.88 217.411 L2205.88 200.05 Z" fill="#000000" fill-rule="evenodd" fill-opacity="1" /><polyline clip-path="url(#clip430)" style="stroke:#3da44d; stroke-linecap:butt; stroke-linejoin:round; stroke-width:4; stroke-opacity:1; fill:none" points="
  1952.27,277.81 2103.33,277.81 
  "/>
<path clip-path="url(#clip430)" d="M2140.45 263.608 Q2136.83 263.608 2135.01 267.173 Q2133.2 270.715 2133.2 277.844 Q2133.2 284.951 2135.01 288.516 Q2136.83 292.057 2140.45 292.057 Q2144.08 292.057 2145.89 288.516 Q2147.71 284.951 2147.71 277.844 Q2147.71 270.715 2145.89 267.173 Q2144.08 263.608 2140.45 263.608 M2140.45 259.905 Q2146.26 259.905 2149.31 264.511 Q2152.39 269.094 2152.39 277.844 Q2152.39 286.571 2149.31 291.178 Q2146.26 295.761 2140.45 295.761 Q2134.64 295.761 2131.56 291.178 Q2128.5 286.571 2128.5 277.844 Q2128.5 269.094 2131.56 264.511 Q2134.64 259.905 2140.45 259.905 Z" fill="#000000" fill-rule="evenodd" fill-opacity="1" /><path clip-path="url(#clip430)" d="M2160.61 289.21 L2165.49 289.21 L2165.49 295.09 L2160.61 295.09 L2160.61 289.21 Z" fill="#000000" fill-rule="evenodd" fill-opacity="1" /><path clip-path="url(#clip430)" d="M2176.49 291.154 L2184.13 291.154 L2184.13 264.789 L2175.82 266.455 L2175.82 262.196 L2184.08 260.53 L2188.76 260.53 L2188.76 291.154 L2196.39 291.154 L2196.39 295.09 L2176.49 295.09 L2176.49 291.154 Z" fill="#000000" fill-rule="evenodd" fill-opacity="1" /><polyline clip-path="url(#clip430)" style="stroke:#c271d2; stroke-linecap:butt; stroke-linejoin:round; stroke-width:4; stroke-opacity:1; fill:none" points="
  1952.27,338.29 2103.33,338.29 
  "/>
<path clip-path="url(#clip430)" d="M2140.45 324.088 Q2136.83 324.088 2135.01 327.653 Q2133.2 331.195 2133.2 338.324 Q2133.2 345.431 2135.01 348.996 Q2136.83 352.537 2140.45 352.537 Q2144.08 352.537 2145.89 348.996 Q2147.71 345.431 2147.71 338.324 Q2147.71 331.195 2145.89 327.653 Q2144.08 324.088 2140.45 324.088 M2140.45 320.385 Q2146.26 320.385 2149.31 324.991 Q2152.39 329.574 2152.39 338.324 Q2152.39 347.051 2149.31 351.658 Q2146.26 356.241 2140.45 356.241 Q2134.64 356.241 2131.56 351.658 Q2128.5 347.051 2128.5 338.324 Q2128.5 329.574 2131.56 324.991 Q2134.64 320.385 2140.45 320.385 Z" fill="#000000" fill-rule="evenodd" fill-opacity="1" /><path clip-path="url(#clip430)" d="M2160.61 349.69 L2165.49 349.69 L2165.49 355.57 L2160.61 355.57 L2160.61 349.69 Z" fill="#000000" fill-rule="evenodd" fill-opacity="1" /><path clip-path="url(#clip430)" d="M2179.7 351.634 L2196.02 351.634 L2196.02 355.57 L2174.08 355.57 L2174.08 351.634 Q2176.74 348.88 2181.32 344.25 Q2185.93 339.597 2187.11 338.255 Q2189.36 335.732 2190.24 333.996 Q2191.14 332.236 2191.14 330.547 Q2191.14 327.792 2189.2 326.056 Q2187.27 324.32 2184.17 324.32 Q2181.97 324.32 2179.52 325.084 Q2177.09 325.847 2174.31 327.398 L2174.31 322.676 Q2177.14 321.542 2179.59 320.963 Q2182.04 320.385 2184.08 320.385 Q2189.45 320.385 2192.64 323.07 Q2195.84 325.755 2195.84 330.246 Q2195.84 332.375 2195.03 334.297 Q2194.24 336.195 2192.13 338.787 Q2191.56 339.459 2188.45 342.676 Q2185.35 345.871 2179.7 351.634 Z" fill="#000000" fill-rule="evenodd" fill-opacity="1" /><polyline clip-path="url(#clip430)" style="stroke:#ac8d18; stroke-linecap:butt; stroke-linejoin:round; stroke-width:4; stroke-opacity:1; fill:none" points="
  1952.27,398.77 2103.33,398.77 
  "/>
<path clip-path="url(#clip430)" d="M2140.45 384.568 Q2136.83 384.568 2135.01 388.133 Q2133.2 391.675 2133.2 398.804 Q2133.2 405.911 2135.01 409.476 Q2136.83 413.017 2140.45 413.017 Q2144.08 413.017 2145.89 409.476 Q2147.71 405.911 2147.71 398.804 Q2147.71 391.675 2145.89 388.133 Q2144.08 384.568 2140.45 384.568 M2140.45 380.865 Q2146.26 380.865 2149.31 385.471 Q2152.39 390.054 2152.39 398.804 Q2152.39 407.531 2149.31 412.138 Q2146.26 416.721 2140.45 416.721 Q2134.64 416.721 2131.56 412.138 Q2128.5 407.531 2128.5 398.804 Q2128.5 390.054 2131.56 385.471 Q2134.64 380.865 2140.45 380.865 Z" fill="#000000" fill-rule="evenodd" fill-opacity="1" /><path clip-path="url(#clip430)" d="M2160.61 410.17 L2165.49 410.17 L2165.49 416.05 L2160.61 416.05 L2160.61 410.17 Z" fill="#000000" fill-rule="evenodd" fill-opacity="1" /><path clip-path="url(#clip430)" d="M2189.84 397.415 Q2193.2 398.133 2195.07 400.401 Q2196.97 402.67 2196.97 406.003 Q2196.97 411.119 2193.45 413.92 Q2189.94 416.721 2183.45 416.721 Q2181.28 416.721 2178.96 416.281 Q2176.67 415.864 2174.22 415.008 L2174.22 410.494 Q2176.16 411.628 2178.48 412.207 Q2180.79 412.786 2183.32 412.786 Q2187.71 412.786 2190.01 411.05 Q2192.32 409.313 2192.32 406.003 Q2192.32 402.948 2190.17 401.235 Q2188.04 399.499 2184.22 399.499 L2180.19 399.499 L2180.19 395.656 L2184.4 395.656 Q2187.85 395.656 2189.68 394.29 Q2191.51 392.902 2191.51 390.309 Q2191.51 387.647 2189.61 386.235 Q2187.74 384.8 2184.22 384.8 Q2182.3 384.8 2180.1 385.216 Q2177.9 385.633 2175.26 386.513 L2175.26 382.346 Q2177.92 381.605 2180.24 381.235 Q2182.57 380.865 2184.63 380.865 Q2189.96 380.865 2193.06 383.295 Q2196.16 385.702 2196.16 389.823 Q2196.16 392.693 2194.52 394.684 Q2192.88 396.652 2189.84 397.415 Z" fill="#000000" fill-rule="evenodd" fill-opacity="1" /><polyline clip-path="url(#clip430)" style="stroke:#00a9ad; stroke-linecap:butt; stroke-linejoin:round; stroke-width:4; stroke-opacity:1; fill:none" points="
  1952.27,459.25 2103.33,459.25 
  "/>
<path clip-path="url(#clip430)" d="M2140.45 445.048 Q2136.83 445.048 2135.01 448.613 Q2133.2 452.155 2133.2 459.284 Q2133.2 466.391 2135.01 469.956 Q2136.83 473.497 2140.45 473.497 Q2144.08 473.497 2145.89 469.956 Q2147.71 466.391 2147.71 459.284 Q2147.71 452.155 2145.89 448.613 Q2144.08 445.048 2140.45 445.048 M2140.45 441.345 Q2146.26 441.345 2149.31 445.951 Q2152.39 450.534 2152.39 459.284 Q2152.39 468.011 2149.31 472.618 Q2146.26 477.201 2140.45 477.201 Q2134.64 477.201 2131.56 472.618 Q2128.5 468.011 2128.5 459.284 Q2128.5 450.534 2131.56 445.951 Q2134.64 441.345 2140.45 441.345 Z" fill="#000000" fill-rule="evenodd" fill-opacity="1" /><path clip-path="url(#clip430)" d="M2160.61 470.65 L2165.49 470.65 L2165.49 476.53 L2160.61 476.53 L2160.61 470.65 Z" fill="#000000" fill-rule="evenodd" fill-opacity="1" /><path clip-path="url(#clip430)" d="M2188.52 446.044 L2176.72 464.493 L2188.52 464.493 L2188.52 446.044 M2187.3 441.97 L2193.18 441.97 L2193.18 464.493 L2198.11 464.493 L2198.11 468.381 L2193.18 468.381 L2193.18 476.53 L2188.52 476.53 L2188.52 468.381 L2172.92 468.381 L2172.92 463.868 L2187.3 441.97 Z" fill="#000000" fill-rule="evenodd" fill-opacity="1" /><polyline clip-path="url(#clip430)" style="stroke:#ed5d92; stroke-linecap:butt; stroke-linejoin:round; stroke-width:4; stroke-opacity:1; fill:none" points="
  1952.27,519.73 2103.33,519.73 
  "/>
<path clip-path="url(#clip430)" d="M2140.45 505.528 Q2136.83 505.528 2135.01 509.093 Q2133.2 512.635 2133.2 519.764 Q2133.2 526.871 2135.01 530.436 Q2136.83 533.977 2140.45 533.977 Q2144.08 533.977 2145.89 530.436 Q2147.71 526.871 2147.71 519.764 Q2147.71 512.635 2145.89 509.093 Q2144.08 505.528 2140.45 505.528 M2140.45 501.825 Q2146.26 501.825 2149.31 506.431 Q2152.39 511.014 2152.39 519.764 Q2152.39 528.491 2149.31 533.098 Q2146.26 537.681 2140.45 537.681 Q2134.64 537.681 2131.56 533.098 Q2128.5 528.491 2128.5 519.764 Q2128.5 511.014 2131.56 506.431 Q2134.64 501.825 2140.45 501.825 Z" fill="#000000" fill-rule="evenodd" fill-opacity="1" /><path clip-path="url(#clip430)" d="M2160.61 531.13 L2165.49 531.13 L2165.49 537.01 L2160.61 537.01 L2160.61 531.13 Z" fill="#000000" fill-rule="evenodd" fill-opacity="1" /><path clip-path="url(#clip430)" d="M2175.72 502.45 L2194.08 502.45 L2194.08 506.385 L2180.01 506.385 L2180.01 514.857 Q2181.02 514.51 2182.04 514.348 Q2183.06 514.162 2184.08 514.162 Q2189.87 514.162 2193.25 517.334 Q2196.63 520.505 2196.63 525.922 Q2196.63 531.5 2193.15 534.602 Q2189.68 537.681 2183.36 537.681 Q2181.19 537.681 2178.92 537.31 Q2176.67 536.94 2174.26 536.199 L2174.26 531.5 Q2176.35 532.635 2178.57 533.19 Q2180.79 533.746 2183.27 533.746 Q2187.27 533.746 2189.61 531.639 Q2191.95 529.533 2191.95 525.922 Q2191.95 522.311 2189.61 520.204 Q2187.27 518.098 2183.27 518.098 Q2181.39 518.098 2179.52 518.514 Q2177.67 518.931 2175.72 519.811 L2175.72 502.45 Z" fill="#000000" fill-rule="evenodd" fill-opacity="1" /><polyline clip-path="url(#clip430)" style="stroke:#c68125; stroke-linecap:butt; stroke-linejoin:round; stroke-width:4; stroke-opacity:1; fill:none" points="
  1952.27,580.21 2103.33,580.21 
  "/>
<path clip-path="url(#clip430)" d="M2140.45 566.008 Q2136.83 566.008 2135.01 569.573 Q2133.2 573.115 2133.2 580.244 Q2133.2 587.351 2135.01 590.916 Q2136.83 594.457 2140.45 594.457 Q2144.08 594.457 2145.89 590.916 Q2147.71 587.351 2147.71 580.244 Q2147.71 573.115 2145.89 569.573 Q2144.08 566.008 2140.45 566.008 M2140.45 562.305 Q2146.26 562.305 2149.31 566.911 Q2152.39 571.494 2152.39 580.244 Q2152.39 588.971 2149.31 593.578 Q2146.26 598.161 2140.45 598.161 Q2134.64 598.161 2131.56 593.578 Q2128.5 588.971 2128.5 580.244 Q2128.5 571.494 2131.56 566.911 Q2134.64 562.305 2140.45 562.305 Z" fill="#000000" fill-rule="evenodd" fill-opacity="1" /><path clip-path="url(#clip430)" d="M2160.61 591.61 L2165.49 591.61 L2165.49 597.49 L2160.61 597.49 L2160.61 591.61 Z" fill="#000000" fill-rule="evenodd" fill-opacity="1" /><path clip-path="url(#clip430)" d="M2186.26 578.346 Q2183.11 578.346 2181.26 580.499 Q2179.43 582.652 2179.43 586.402 Q2179.43 590.128 2181.26 592.304 Q2183.11 594.457 2186.26 594.457 Q2189.4 594.457 2191.23 592.304 Q2193.08 590.128 2193.08 586.402 Q2193.08 582.652 2191.23 580.499 Q2189.4 578.346 2186.26 578.346 M2195.54 563.693 L2195.54 567.953 Q2193.78 567.119 2191.97 566.68 Q2190.19 566.24 2188.43 566.24 Q2183.8 566.24 2181.35 569.365 Q2178.92 572.49 2178.57 578.809 Q2179.94 576.795 2182 575.73 Q2184.06 574.642 2186.53 574.642 Q2191.74 574.642 2194.75 577.814 Q2197.78 580.962 2197.78 586.402 Q2197.78 591.726 2194.63 594.943 Q2191.49 598.161 2186.26 598.161 Q2180.26 598.161 2177.09 593.578 Q2173.92 588.971 2173.92 580.244 Q2173.92 572.05 2177.81 567.189 Q2181.7 562.305 2188.25 562.305 Q2190.01 562.305 2191.79 562.652 Q2193.59 562.999 2195.54 563.693 Z" fill="#000000" fill-rule="evenodd" fill-opacity="1" /><polyline clip-path="url(#clip430)" style="stroke:#00a98d; stroke-linecap:butt; stroke-linejoin:round; stroke-width:4; stroke-opacity:1; fill:none" points="
  1952.27,640.69 2103.33,640.69 
  "/>
<path clip-path="url(#clip430)" d="M2140.45 626.488 Q2136.83 626.488 2135.01 630.053 Q2133.2 633.595 2133.2 640.724 Q2133.2 647.831 2135.01 651.396 Q2136.83 654.937 2140.45 654.937 Q2144.08 654.937 2145.89 651.396 Q2147.71 647.831 2147.71 640.724 Q2147.71 633.595 2145.89 630.053 Q2144.08 626.488 2140.45 626.488 M2140.45 622.785 Q2146.26 622.785 2149.31 627.391 Q2152.39 631.974 2152.39 640.724 Q2152.39 649.451 2149.31 654.058 Q2146.26 658.641 2140.45 658.641 Q2134.64 658.641 2131.56 654.058 Q2128.5 649.451 2128.5 640.724 Q2128.5 631.974 2131.56 627.391 Q2134.64 622.785 2140.45 622.785 Z" fill="#000000" fill-rule="evenodd" fill-opacity="1" /><path clip-path="url(#clip430)" d="M2160.61 652.09 L2165.49 652.09 L2165.49 657.97 L2160.61 657.97 L2160.61 652.09 Z" fill="#000000" fill-rule="evenodd" fill-opacity="1" /><path clip-path="url(#clip430)" d="M2174.5 623.41 L2196.72 623.41 L2196.72 625.4 L2184.17 657.97 L2179.29 657.97 L2191.09 627.345 L2174.5 627.345 L2174.5 623.41 Z" fill="#000000" fill-rule="evenodd" fill-opacity="1" /><polyline clip-path="url(#clip430)" style="stroke:#8e971d; stroke-linecap:butt; stroke-linejoin:round; stroke-width:4; stroke-opacity:1; fill:none" points="
  1952.27,701.17 2103.33,701.17 
  "/>
<path clip-path="url(#clip430)" d="M2140.45 686.968 Q2136.83 686.968 2135.01 690.533 Q2133.2 694.075 2133.2 701.204 Q2133.2 708.311 2135.01 711.876 Q2136.83 715.417 2140.45 715.417 Q2144.08 715.417 2145.89 711.876 Q2147.71 708.311 2147.71 701.204 Q2147.71 694.075 2145.89 690.533 Q2144.08 686.968 2140.45 686.968 M2140.45 683.265 Q2146.26 683.265 2149.31 687.871 Q2152.39 692.454 2152.39 701.204 Q2152.39 709.931 2149.31 714.538 Q2146.26 719.121 2140.45 719.121 Q2134.64 719.121 2131.56 714.538 Q2128.5 709.931 2128.5 701.204 Q2128.5 692.454 2131.56 687.871 Q2134.64 683.265 2140.45 683.265 Z" fill="#000000" fill-rule="evenodd" fill-opacity="1" /><path clip-path="url(#clip430)" d="M2160.61 712.57 L2165.49 712.57 L2165.49 718.45 L2160.61 718.45 L2160.61 712.57 Z" fill="#000000" fill-rule="evenodd" fill-opacity="1" /><path clip-path="url(#clip430)" d="M2185.68 702.038 Q2182.34 702.038 2180.42 703.82 Q2178.52 705.602 2178.52 708.727 Q2178.52 711.852 2180.42 713.635 Q2182.34 715.417 2185.68 715.417 Q2189.01 715.417 2190.93 713.635 Q2192.85 711.829 2192.85 708.727 Q2192.85 705.602 2190.93 703.82 Q2189.03 702.038 2185.68 702.038 M2181 700.047 Q2177.99 699.306 2176.3 697.246 Q2174.64 695.186 2174.64 692.223 Q2174.64 688.079 2177.57 685.672 Q2180.54 683.265 2185.68 683.265 Q2190.84 683.265 2193.78 685.672 Q2196.72 688.079 2196.72 692.223 Q2196.72 695.186 2195.03 697.246 Q2193.36 699.306 2190.38 700.047 Q2193.76 700.834 2195.63 703.126 Q2197.53 705.417 2197.53 708.727 Q2197.53 713.751 2194.45 716.436 Q2191.39 719.121 2185.68 719.121 Q2179.96 719.121 2176.88 716.436 Q2173.82 713.751 2173.82 708.727 Q2173.82 705.417 2175.72 703.126 Q2177.62 700.834 2181 700.047 M2179.29 692.663 Q2179.29 695.348 2180.95 696.852 Q2182.64 698.357 2185.68 698.357 Q2188.69 698.357 2190.38 696.852 Q2192.09 695.348 2192.09 692.663 Q2192.09 689.977 2190.38 688.473 Q2188.69 686.968 2185.68 686.968 Q2182.64 686.968 2180.95 688.473 Q2179.29 689.977 2179.29 692.663 Z" fill="#000000" fill-rule="evenodd" fill-opacity="1" /><polyline clip-path="url(#clip430)" style="stroke:#00a8cb; stroke-linecap:butt; stroke-linejoin:round; stroke-width:4; stroke-opacity:1; fill:none" points="
  1952.27,761.65 2103.33,761.65 
  "/>
<path clip-path="url(#clip430)" d="M2140.45 747.448 Q2136.83 747.448 2135.01 751.013 Q2133.2 754.555 2133.2 761.684 Q2133.2 768.791 2135.01 772.356 Q2136.83 775.897 2140.45 775.897 Q2144.08 775.897 2145.89 772.356 Q2147.71 768.791 2147.71 761.684 Q2147.71 754.555 2145.89 751.013 Q2144.08 747.448 2140.45 747.448 M2140.45 743.745 Q2146.26 743.745 2149.31 748.351 Q2152.39 752.934 2152.39 761.684 Q2152.39 770.411 2149.31 775.018 Q2146.26 779.601 2140.45 779.601 Q2134.64 779.601 2131.56 775.018 Q2128.5 770.411 2128.5 761.684 Q2128.5 752.934 2131.56 748.351 Q2134.64 743.745 2140.45 743.745 Z" fill="#000000" fill-rule="evenodd" fill-opacity="1" /><path clip-path="url(#clip430)" d="M2160.61 773.05 L2165.49 773.05 L2165.49 778.93 L2160.61 778.93 L2160.61 773.05 Z" fill="#000000" fill-rule="evenodd" fill-opacity="1" /><path clip-path="url(#clip430)" d="M2175.82 778.212 L2175.82 773.953 Q2177.57 774.786 2179.38 775.226 Q2181.19 775.666 2182.92 775.666 Q2187.55 775.666 2189.98 772.564 Q2192.44 769.439 2192.78 763.096 Q2191.44 765.087 2189.38 766.152 Q2187.32 767.217 2184.82 767.217 Q2179.64 767.217 2176.6 764.092 Q2173.59 760.944 2173.59 755.504 Q2173.59 750.18 2176.74 746.962 Q2179.89 743.745 2185.12 743.745 Q2191.12 743.745 2194.26 748.351 Q2197.44 752.934 2197.44 761.684 Q2197.44 769.856 2193.55 774.74 Q2189.68 779.601 2183.13 779.601 Q2181.37 779.601 2179.57 779.254 Q2177.76 778.906 2175.82 778.212 M2185.12 763.559 Q2188.27 763.559 2190.1 761.406 Q2191.95 759.254 2191.95 755.504 Q2191.95 751.777 2190.1 749.624 Q2188.27 747.448 2185.12 747.448 Q2181.97 747.448 2180.12 749.624 Q2178.29 751.777 2178.29 755.504 Q2178.29 759.254 2180.12 761.406 Q2181.97 763.559 2185.12 763.559 Z" fill="#000000" fill-rule="evenodd" fill-opacity="1" /><polyline clip-path="url(#clip430)" style="stroke:#9b7fe8; stroke-linecap:butt; stroke-linejoin:round; stroke-width:4; stroke-opacity:1; fill:none" points="
  1952.27,822.13 2103.33,822.13 
  "/>
<path clip-path="url(#clip430)" d="M2129.17 835.474 L2136.81 835.474 L2136.81 809.109 L2128.5 810.775 L2128.5 806.516 L2136.76 804.85 L2141.44 804.85 L2141.44 835.474 L2149.08 835.474 L2149.08 839.41 L2129.17 839.41 L2129.17 835.474 Z" fill="#000000" fill-rule="evenodd" fill-opacity="1" /><path clip-path="url(#clip430)" d="M2158.52 833.53 L2163.41 833.53 L2163.41 839.41 L2158.52 839.41 L2158.52 833.53 Z" fill="#000000" fill-rule="evenodd" fill-opacity="1" /><path clip-path="url(#clip430)" d="M2183.59 807.928 Q2179.98 807.928 2178.15 811.493 Q2176.35 815.035 2176.35 822.164 Q2176.35 829.271 2178.15 832.836 Q2179.98 836.377 2183.59 836.377 Q2187.23 836.377 2189.03 832.836 Q2190.86 829.271 2190.86 822.164 Q2190.86 815.035 2189.03 811.493 Q2187.23 807.928 2183.59 807.928 M2183.59 804.225 Q2189.4 804.225 2192.46 808.831 Q2195.54 813.414 2195.54 822.164 Q2195.54 830.891 2192.46 835.498 Q2189.4 840.081 2183.59 840.081 Q2177.78 840.081 2174.7 835.498 Q2171.65 830.891 2171.65 822.164 Q2171.65 813.414 2174.7 808.831 Q2177.78 804.225 2183.59 804.225 Z" fill="#000000" fill-rule="evenodd" fill-opacity="1" /><polyline clip-path="url(#clip430)" style="stroke:#608cf6; stroke-linecap:butt; stroke-linejoin:round; stroke-width:4; stroke-opacity:1; fill:none" points="
  1952.27,882.61 2103.33,882.61 
  "/>
<path clip-path="url(#clip430)" d="M2140.45 868.408 Q2136.83 868.408 2135.01 871.973 Q2133.2 875.515 2133.2 882.644 Q2133.2 889.751 2135.01 893.316 Q2136.83 896.857 2140.45 896.857 Q2144.08 896.857 2145.89 893.316 Q2147.71 889.751 2147.71 882.644 Q2147.71 875.515 2145.89 871.973 Q2144.08 868.408 2140.45 868.408 M2140.45 864.705 Q2146.26 864.705 2149.31 869.311 Q2152.39 873.894 2152.39 882.644 Q2152.39 891.371 2149.31 895.978 Q2146.26 900.561 2140.45 900.561 Q2134.64 900.561 2131.56 895.978 Q2128.5 891.371 2128.5 882.644 Q2128.5 873.894 2131.56 869.311 Q2134.64 864.705 2140.45 864.705 Z" fill="#000000" fill-rule="evenodd" fill-opacity="1" /><path clip-path="url(#clip430)" d="M2160.61 894.01 L2165.49 894.01 L2165.49 899.89 L2160.61 899.89 L2160.61 894.01 Z" fill="#000000" fill-rule="evenodd" fill-opacity="1" /><path clip-path="url(#clip430)" d="M2179.7 895.954 L2196.02 895.954 L2196.02 899.89 L2174.08 899.89 L2174.08 895.954 Q2176.74 893.2 2181.32 888.57 Q2185.93 883.917 2187.11 882.575 Q2189.36 880.052 2190.24 878.316 Q2191.14 876.556 2191.14 874.867 Q2191.14 872.112 2189.2 870.376 Q2187.27 868.64 2184.17 868.64 Q2181.97 868.64 2179.52 869.404 Q2177.09 870.167 2174.31 871.718 L2174.31 866.996 Q2177.14 865.862 2179.59 865.283 Q2182.04 864.705 2184.08 864.705 Q2189.45 864.705 2192.64 867.39 Q2195.84 870.075 2195.84 874.566 Q2195.84 876.695 2195.03 878.617 Q2194.24 880.515 2192.13 883.107 Q2191.56 883.779 2188.45 886.996 Q2185.35 890.191 2179.7 895.954 Z" fill="#000000" fill-rule="evenodd" fill-opacity="1" /><path clip-path="url(#clip430)" d="M2206.65 895.954 L2214.29 895.954 L2214.29 869.589 L2205.98 871.255 L2205.98 866.996 L2214.24 865.33 L2218.92 865.33 L2218.92 895.954 L2226.56 895.954 L2226.56 899.89 L2206.65 899.89 L2206.65 895.954 Z" fill="#000000" fill-rule="evenodd" fill-opacity="1" /><polyline clip-path="url(#clip430)" style="stroke:#f05f73; stroke-linecap:butt; stroke-linejoin:round; stroke-width:4; stroke-opacity:1; fill:none" points="
  1952.27,943.09 2103.33,943.09 
  "/>
<path clip-path="url(#clip430)" d="M2140.45 928.888 Q2136.83 928.888 2135.01 932.453 Q2133.2 935.995 2133.2 943.124 Q2133.2 950.231 2135.01 953.796 Q2136.83 957.337 2140.45 957.337 Q2144.08 957.337 2145.89 953.796 Q2147.71 950.231 2147.71 943.124 Q2147.71 935.995 2145.89 932.453 Q2144.08 928.888 2140.45 928.888 M2140.45 925.185 Q2146.26 925.185 2149.31 929.791 Q2152.39 934.374 2152.39 943.124 Q2152.39 951.851 2149.31 956.458 Q2146.26 961.041 2140.45 961.041 Q2134.64 961.041 2131.56 956.458 Q2128.5 951.851 2128.5 943.124 Q2128.5 934.374 2131.56 929.791 Q2134.64 925.185 2140.45 925.185 Z" fill="#000000" fill-rule="evenodd" fill-opacity="1" /><path clip-path="url(#clip430)" d="M2160.61 954.49 L2165.49 954.49 L2165.49 960.37 L2160.61 960.37 L2160.61 954.49 Z" fill="#000000" fill-rule="evenodd" fill-opacity="1" /><path clip-path="url(#clip430)" d="M2186.26 941.226 Q2183.11 941.226 2181.26 943.379 Q2179.43 945.532 2179.43 949.282 Q2179.43 953.008 2181.26 955.184 Q2183.11 957.337 2186.26 957.337 Q2189.4 957.337 2191.23 955.184 Q2193.08 953.008 2193.08 949.282 Q2193.08 945.532 2191.23 943.379 Q2189.4 941.226 2186.26 941.226 M2195.54 926.573 L2195.54 930.833 Q2193.78 929.999 2191.97 929.56 Q2190.19 929.12 2188.43 929.12 Q2183.8 929.12 2181.35 932.245 Q2178.92 935.37 2178.57 941.689 Q2179.94 939.675 2182 938.61 Q2184.06 937.522 2186.53 937.522 Q2191.74 937.522 2194.75 940.694 Q2197.78 943.842 2197.78 949.282 Q2197.78 954.606 2194.63 957.823 Q2191.49 961.041 2186.26 961.041 Q2180.26 961.041 2177.09 956.458 Q2173.92 951.851 2173.92 943.124 Q2173.92 934.93 2177.81 930.069 Q2181.7 925.185 2188.25 925.185 Q2190.01 925.185 2191.79 925.532 Q2193.59 925.879 2195.54 926.573 Z" fill="#000000" fill-rule="evenodd" fill-opacity="1" /><path clip-path="url(#clip430)" d="M2204.66 925.81 L2226.88 925.81 L2226.88 927.8 L2214.33 960.37 L2209.45 960.37 L2221.26 929.745 L2204.66 929.745 L2204.66 925.81 Z" fill="#000000" fill-rule="evenodd" fill-opacity="1" /></svg>
