<?xml version="1.0" encoding="utf-8"?>
<svg xmlns="http://www.w3.org/2000/svg" xmlns:xlink="http://www.w3.org/1999/xlink" width="600" height="400" viewBox="0 0 2400 1600">
<defs>
  <clipPath id="clip210">
    <rect x="0" y="0" width="2400" height="1600"/>
  </clipPath>
</defs>
<path clip-path="url(#clip210)" d="
M0 1600 L2400 1600 L2400 0 L0 0  Z
  " fill="#ffffff" fill-rule="evenodd" fill-opacity="1"/>
<defs>
  <clipPath id="clip211">
    <rect x="480" y="0" width="1681" height="1600"/>
  </clipPath>
</defs>
<path clip-path="url(#clip210)" d="
M86.9921 1521.01 L2352.76 1521.01 L2352.76 47.2441 L86.9921 47.2441  Z
  " fill="#ffffff" fill-rule="evenodd" fill-opacity="1"/>
<defs>
  <clipPath id="clip212">
    <rect x="86" y="47" width="2267" height="1475"/>
  </clipPath>
</defs>
<polyline clip-path="url(#clip212)" style="stroke:#000000; stroke-linecap:butt; stroke-linejoin:round; stroke-width:2; stroke-opacity:0.1; fill:none" points="
  601.12,1521.01 601.12,47.2441 
  "/>
<polyline clip-path="url(#clip212)" style="stroke:#000000; stroke-linecap:butt; stroke-linejoin:round; stroke-width:2; stroke-opacity:0.1; fill:none" points="
  1163.62,1521.01 1163.62,47.2441 
  "/>
<polyline clip-path="url(#clip212)" style="stroke:#000000; stroke-linecap:butt; stroke-linejoin:round; stroke-width:2; stroke-opacity:0.1; fill:none" points="
  1726.13,1521.01 1726.13,47.2441 
  "/>
<polyline clip-path="url(#clip212)" style="stroke:#000000; stroke-linecap:butt; stroke-linejoin:round; stroke-width:2; stroke-opacity:0.1; fill:none" points="
  2288.63,1521.01 2288.63,47.2441 
  "/>
<polyline clip-path="url(#clip210)" style="stroke:#000000; stroke-linecap:butt; stroke-linejoin:round; stroke-width:4; stroke-opacity:1; fill:none" points="
  86.9921,1521.01 2352.76,1521.01 
  "/>
<polyline clip-path="url(#clip210)" style="stroke:#000000; stroke-linecap:butt; stroke-linejoin:round; stroke-width:4; stroke-opacity:1; fill:none" points="
  601.12,1521.01 601.12,1503.32 
  "/>
<polyline clip-path="url(#clip210)" style="stroke:#000000; stroke-linecap:butt; stroke-linejoin:round; stroke-width:4; stroke-opacity:1; fill:none" points="
  1163.62,1521.01 1163.62,1503.32 
  "/>
<polyline clip-path="url(#clip210)" style="stroke:#000000; stroke-linecap:butt; stroke-linejoin:round; stroke-width:4; stroke-opacity:1; fill:none" points="
  1726.13,1521.01 1726.13,1503.32 
  "/>
<polyline clip-path="url(#clip210)" style="stroke:#000000; stroke-linecap:butt; stroke-linejoin:round; stroke-width:4; stroke-opacity:1; fill:none" points="
  2288.63,1521.01 2288.63,1503.32 
  "/>
<path clip-path="url(#clip210)" d="M591.398 1547.12 L609.754 1547.12 L609.754 1551.06 L595.68 1551.06 L595.68 1559.53 Q596.699 1559.18 597.717 1559.02 Q598.736 1558.83 599.755 1558.83 Q605.542 1558.83 608.921 1562 Q612.301 1565.18 612.301 1570.59 Q612.301 1576.17 608.829 1579.27 Q605.356 1582.35 599.037 1582.35 Q596.861 1582.35 594.593 1581.98 Q592.347 1581.61 589.94 1580.87 L589.94 1576.17 Q592.023 1577.3 594.245 1577.86 Q596.467 1578.42 598.944 1578.42 Q602.949 1578.42 605.287 1576.31 Q607.625 1574.2 607.625 1570.59 Q607.625 1566.98 605.287 1564.87 Q602.949 1562.77 598.944 1562.77 Q597.069 1562.77 595.194 1563.18 Q593.343 1563.6 591.398 1564.48 L591.398 1547.12 Z" fill="#000000" fill-rule="evenodd" fill-opacity="1" /><path clip-path="url(#clip210)" d="M1138.31 1577.74 L1145.95 1577.74 L1145.95 1551.38 L1137.64 1553.05 L1137.64 1548.79 L1145.9 1547.12 L1150.58 1547.12 L1150.58 1577.74 L1158.22 1577.74 L1158.22 1581.68 L1138.31 1581.68 L1138.31 1577.74 Z" fill="#000000" fill-rule="evenodd" fill-opacity="1" /><path clip-path="url(#clip210)" d="M1177.66 1550.2 Q1174.05 1550.2 1172.22 1553.76 Q1170.42 1557.31 1170.42 1564.43 Q1170.42 1571.54 1172.22 1575.11 Q1174.05 1578.65 1177.66 1578.65 Q1181.3 1578.65 1183.1 1575.11 Q1184.93 1571.54 1184.93 1564.43 Q1184.93 1557.31 1183.1 1553.76 Q1181.3 1550.2 1177.66 1550.2 M1177.66 1546.49 Q1183.47 1546.49 1186.53 1551.1 Q1189.61 1555.68 1189.61 1564.43 Q1189.61 1573.16 1186.53 1577.77 Q1183.47 1582.35 1177.66 1582.35 Q1171.85 1582.35 1168.77 1577.77 Q1165.72 1573.16 1165.72 1564.43 Q1165.72 1555.68 1168.77 1551.1 Q1171.85 1546.49 1177.66 1546.49 Z" fill="#000000" fill-rule="evenodd" fill-opacity="1" /><path clip-path="url(#clip210)" d="M1701.31 1577.74 L1708.95 1577.74 L1708.95 1551.38 L1700.64 1553.05 L1700.64 1548.79 L1708.9 1547.12 L1713.58 1547.12 L1713.58 1577.74 L1721.22 1577.74 L1721.22 1581.68 L1701.31 1581.68 L1701.31 1577.74 Z" fill="#000000" fill-rule="evenodd" fill-opacity="1" /><path clip-path="url(#clip210)" d="M1730.71 1547.12 L1749.07 1547.12 L1749.07 1551.06 L1734.99 1551.06 L1734.99 1559.53 Q1736.01 1559.18 1737.03 1559.02 Q1738.05 1558.83 1739.07 1558.83 Q1744.85 1558.83 1748.23 1562 Q1751.61 1565.18 1751.61 1570.59 Q1751.61 1576.17 1748.14 1579.27 Q1744.67 1582.35 1738.35 1582.35 Q1736.17 1582.35 1733.9 1581.98 Q1731.66 1581.61 1729.25 1580.87 L1729.25 1576.17 Q1731.34 1577.3 1733.56 1577.86 Q1735.78 1578.42 1738.26 1578.42 Q1742.26 1578.42 1744.6 1576.31 Q1746.94 1574.2 1746.94 1570.59 Q1746.94 1566.98 1744.6 1564.87 Q1742.26 1562.77 1738.26 1562.77 Q1736.38 1562.77 1734.51 1563.18 Q1732.65 1563.6 1730.71 1564.48 L1730.71 1547.12 Z" fill="#000000" fill-rule="evenodd" fill-opacity="1" /><path clip-path="url(#clip210)" d="M2267.4 1577.74 L2283.72 1577.74 L2283.72 1581.68 L2261.78 1581.68 L2261.78 1577.74 Q2264.44 1574.99 2269.02 1570.36 Q2273.63 1565.71 2274.81 1564.37 Q2277.06 1561.84 2277.94 1560.11 Q2278.84 1558.35 2278.84 1556.66 Q2278.84 1553.9 2276.89 1552.17 Q2274.97 1550.43 2271.87 1550.43 Q2269.67 1550.43 2267.22 1551.19 Q2264.79 1551.96 2262.01 1553.51 L2262.01 1548.79 Q2264.83 1547.65 2267.29 1547.07 Q2269.74 1546.49 2271.78 1546.49 Q2277.15 1546.49 2280.34 1549.18 Q2283.54 1551.87 2283.54 1556.36 Q2283.54 1558.49 2282.73 1560.41 Q2281.94 1562.3 2279.83 1564.9 Q2279.26 1565.57 2276.15 1568.79 Q2273.05 1571.98 2267.4 1577.74 Z" fill="#000000" fill-rule="evenodd" fill-opacity="1" /><path clip-path="url(#clip210)" d="M2303.54 1550.2 Q2299.93 1550.2 2298.1 1553.76 Q2296.29 1557.31 2296.29 1564.43 Q2296.29 1571.54 2298.1 1575.11 Q2299.93 1578.65 2303.54 1578.65 Q2307.17 1578.65 2308.98 1575.11 Q2310.81 1571.54 2310.81 1564.43 Q2310.81 1557.31 2308.98 1553.76 Q2307.17 1550.2 2303.54 1550.2 M2303.54 1546.49 Q2309.35 1546.49 2312.4 1551.1 Q2315.48 1555.68 2315.48 1564.43 Q2315.48 1573.16 2312.4 1577.77 Q2309.35 1582.35 2303.54 1582.35 Q2297.73 1582.35 2294.65 1577.77 Q2291.59 1573.16 2291.59 1564.43 Q2291.59 1555.68 2294.65 1551.1 Q2297.73 1546.49 2303.54 1546.49 Z" fill="#000000" fill-rule="evenodd" fill-opacity="1" /><polyline clip-path="url(#clip212)" style="stroke:#000000; stroke-linecap:butt; stroke-linejoin:round; stroke-width:2; stroke-opacity:0.1; fill:none" points="
  86.9921,1455.05 2352.76,1455.05 
  "/>
<polyline clip-path="url(#clip212)" style="stroke:#000000; stroke-linecap:butt; stroke-linejoin:round; stroke-width:2; stroke-opacity:0.1; fill:none" points="
  86.9921,1252.96 2352.76,1252.96 
  "/>
<polyline clip-path="url(#clip212)" style="stroke:#000000; stroke-linecap:butt; stroke-linejoin:round; stroke-width:2; stroke-opacity:0.1; fill:none" points="
  86.9921,1050.88 2352.76,1050.88 
  "/>
<polyline clip-path="url(#clip212)" style="stroke:#000000; stroke-linecap:butt; stroke-linejoin:round; stroke-width:2; stroke-opacity:0.1; fill:none" points="
  86.9921,848.793 2352.76,848.793 
  "/>
<polyline clip-path="url(#clip212)" style="stroke:#000000; stroke-linecap:butt; stroke-linejoin:round; stroke-width:2; stroke-opacity:0.1; fill:none" points="
  86.9921,646.708 2352.76,646.708 
  "/>
<polyline clip-path="url(#clip212)" style="stroke:#000000; stroke-linecap:butt; stroke-linejoin:round; stroke-width:2; stroke-opacity:0.1; fill:none" points="
  86.9921,444.624 2352.76,444.624 
  "/>
<polyline clip-path="url(#clip212)" style="stroke:#000000; stroke-linecap:butt; stroke-linejoin:round; stroke-width:2; stroke-opacity:0.1; fill:none" points="
  86.9921,242.539 2352.76,242.539 
  "/>
<polyline clip-path="url(#clip210)" style="stroke:#000000; stroke-linecap:butt; stroke-linejoin:round; stroke-width:4; stroke-opacity:1; fill:none" points="
  86.9921,1521.01 86.9921,47.2441 
  "/>
<polyline clip-path="url(#clip210)" style="stroke:#000000; stroke-linecap:butt; stroke-linejoin:round; stroke-width:4; stroke-opacity:1; fill:none" points="
  86.9921,1455.05 114.181,1455.05 
  "/>
<polyline clip-path="url(#clip210)" style="stroke:#000000; stroke-linecap:butt; stroke-linejoin:round; stroke-width:4; stroke-opacity:1; fill:none" points="
  86.9921,1252.96 114.181,1252.96 
  "/>
<polyline clip-path="url(#clip210)" style="stroke:#000000; stroke-linecap:butt; stroke-linejoin:round; stroke-width:4; stroke-opacity:1; fill:none" points="
  86.9921,1050.88 114.181,1050.88 
  "/>
<polyline clip-path="url(#clip210)" style="stroke:#000000; stroke-linecap:butt; stroke-linejoin:round; stroke-width:4; stroke-opacity:1; fill:none" points="
  86.9921,848.793 114.181,848.793 
  "/>
<polyline clip-path="url(#clip210)" style="stroke:#000000; stroke-linecap:butt; stroke-linejoin:round; stroke-width:4; stroke-opacity:1; fill:none" points="
  86.9921,646.708 114.181,646.708 
  "/>
<polyline clip-path="url(#clip210)" style="stroke:#000000; stroke-linecap:butt; stroke-linejoin:round; stroke-width:4; stroke-opacity:1; fill:none" points="
  86.9921,444.624 114.181,444.624 
  "/>
<polyline clip-path="url(#clip210)" style="stroke:#000000; stroke-linecap:butt; stroke-linejoin:round; stroke-width:4; stroke-opacity:1; fill:none" points="
  86.9921,242.539 114.181,242.539 
  "/>
<path clip-path="url(#clip210)" d="M-35.35 1440.85 Q-38.9611 1440.85 -40.7898 1444.41 Q-42.5953 1447.95 -42.5953 1455.08 Q-42.5953 1462.19 -40.7898 1465.75 Q-38.9611 1469.3 -35.35 1469.3 Q-31.7158 1469.3 -29.9102 1465.75 Q-28.0815 1462.19 -28.0815 1455.08 Q-28.0815 1447.95 -29.9102 1444.41 Q-31.7158 1440.85 -35.35 1440.85 M-35.35 1437.14 Q-29.5398 1437.14 -26.4843 1441.75 Q-23.4056 1446.33 -23.4056 1455.08 Q-23.4056 1463.81 -26.4843 1468.42 Q-29.5398 1473 -35.35 1473 Q-41.1602 1473 -44.2388 1468.42 Q-47.2944 1463.81 -47.2944 1455.08 Q-47.2944 1446.33 -44.2388 1441.75 Q-41.1602 1437.14 -35.35 1437.14 Z" fill="#000000" fill-rule="evenodd" fill-opacity="1" /><path clip-path="url(#clip210)" d="M-15.1881 1466.45 L-10.3038 1466.45 L-10.3038 1472.33 L-15.1881 1472.33 L-15.1881 1466.45 Z" fill="#000000" fill-rule="evenodd" fill-opacity="1" /><path clip-path="url(#clip210)" d="M9.88124 1440.85 Q6.27014 1440.85 4.44145 1444.41 Q2.6359 1447.95 2.6359 1455.08 Q2.6359 1462.19 4.44145 1465.75 Q6.27014 1469.3 9.88124 1469.3 Q13.5155 1469.3 15.321 1465.75 Q17.1497 1462.19 17.1497 1455.08 Q17.1497 1447.95 15.321 1444.41 Q13.5155 1440.85 9.88124 1440.85 M9.88124 1437.14 Q15.6914 1437.14 18.7469 1441.75 Q21.8256 1446.33 21.8256 1455.08 Q21.8256 1463.81 18.7469 1468.42 Q15.6914 1473 9.88124 1473 Q4.07108 1473 0.992394 1468.42 Q-2.06315 1463.81 -2.06315 1455.08 Q-2.06315 1446.33 0.992394 1441.75 Q4.07108 1437.14 9.88124 1437.14 Z" fill="#000000" fill-rule="evenodd" fill-opacity="1" /><path clip-path="url(#clip210)" d="M30.0895 1437.77 L48.4458 1437.77 L48.4458 1441.7 L34.3718 1441.7 L34.3718 1450.17 Q35.3904 1449.83 36.4089 1449.67 Q37.4274 1449.48 38.4459 1449.48 Q44.2329 1449.48 47.6125 1452.65 Q50.9921 1455.82 50.9921 1461.24 Q50.9921 1466.82 47.5199 1469.92 Q44.0477 1473 37.7283 1473 Q35.5524 1473 33.2839 1472.63 Q31.0385 1472.26 28.6311 1471.52 L28.6311 1466.82 Q30.7145 1467.95 32.9367 1468.51 Q35.1589 1469.06 37.6357 1469.06 Q41.6403 1469.06 43.9783 1466.96 Q46.3162 1464.85 46.3162 1461.24 Q46.3162 1457.63 43.9783 1455.52 Q41.6403 1453.42 37.6357 1453.42 Q35.7607 1453.42 33.8857 1453.83 Q32.0339 1454.25 30.0895 1455.13 L30.0895 1437.77 Z" fill="#000000" fill-rule="evenodd" fill-opacity="1" /><path clip-path="url(#clip210)" d="M-36.3454 1238.76 Q-39.9565 1238.76 -41.7852 1242.33 Q-43.5907 1245.87 -43.5907 1253 Q-43.5907 1260.1 -41.7852 1263.67 Q-39.9565 1267.21 -36.3454 1267.21 Q-32.7111 1267.21 -30.9056 1263.67 Q-29.0769 1260.1 -29.0769 1253 Q-29.0769 1245.87 -30.9056 1242.33 Q-32.7111 1238.76 -36.3454 1238.76 M-36.3454 1235.06 Q-30.5352 1235.06 -27.4797 1239.66 Q-24.401 1244.25 -24.401 1253 Q-24.401 1261.72 -27.4797 1266.33 Q-30.5352 1270.91 -36.3454 1270.91 Q-42.1555 1270.91 -45.2342 1266.33 Q-48.2897 1261.72 -48.2897 1253 Q-48.2897 1244.25 -45.2342 1239.66 Q-42.1555 1235.06 -36.3454 1235.06 Z" fill="#000000" fill-rule="evenodd" fill-opacity="1" /><path clip-path="url(#clip210)" d="M-16.1834 1264.36 L-11.2992 1264.36 L-11.2992 1270.24 L-16.1834 1270.24 L-16.1834 1264.36 Z" fill="#000000" fill-rule="evenodd" fill-opacity="1" /><path clip-path="url(#clip210)" d="M-0.303895 1266.31 L7.33495 1266.31 L7.33495 1239.94 L-0.975188 1241.61 L-0.975188 1237.35 L7.28866 1235.68 L11.9646 1235.68 L11.9646 1266.31 L19.6034 1266.31 L19.6034 1270.24 L-0.303895 1270.24 L-0.303895 1266.31 Z" fill="#000000" fill-rule="evenodd" fill-opacity="1" /><path clip-path="url(#clip210)" d="M39.0477 1238.76 Q35.4367 1238.76 33.608 1242.33 Q31.8024 1245.87 31.8024 1253 Q31.8024 1260.1 33.608 1263.67 Q35.4367 1267.21 39.0477 1267.21 Q42.682 1267.21 44.4875 1263.67 Q46.3162 1260.1 46.3162 1253 Q46.3162 1245.87 44.4875 1242.33 Q42.682 1238.76 39.0477 1238.76 M39.0477 1235.06 Q44.8579 1235.06 47.9134 1239.66 Q50.9921 1244.25 50.9921 1253 Q50.9921 1261.72 47.9134 1266.33 Q44.8579 1270.91 39.0477 1270.91 Q33.2376 1270.91 30.1589 1266.33 Q27.1034 1261.72 27.1034 1253 Q27.1034 1244.25 30.1589 1239.66 Q33.2376 1235.06 39.0477 1235.06 Z" fill="#000000" fill-rule="evenodd" fill-opacity="1" /><path clip-path="url(#clip210)" d="M-35.35 1036.68 Q-38.9611 1036.68 -40.7898 1040.24 Q-42.5953 1043.78 -42.5953 1050.91 Q-42.5953 1058.02 -40.7898 1061.58 Q-38.9611 1065.13 -35.35 1065.13 Q-31.7158 1065.13 -29.9102 1061.58 Q-28.0815 1058.02 -28.0815 1050.91 Q-28.0815 1043.78 -29.9102 1040.24 Q-31.7158 1036.68 -35.35 1036.68 M-35.35 1032.97 Q-29.5398 1032.97 -26.4843 1037.58 Q-23.4056 1042.16 -23.4056 1050.91 Q-23.4056 1059.64 -26.4843 1064.25 Q-29.5398 1068.83 -35.35 1068.83 Q-41.1602 1068.83 -44.2388 1064.25 Q-47.2944 1059.64 -47.2944 1050.91 Q-47.2944 1042.16 -44.2388 1037.58 Q-41.1602 1032.97 -35.35 1032.97 Z" fill="#000000" fill-rule="evenodd" fill-opacity="1" /><path clip-path="url(#clip210)" d="M-15.1881 1062.28 L-10.3038 1062.28 L-10.3038 1068.16 L-15.1881 1068.16 L-15.1881 1062.28 Z" fill="#000000" fill-rule="evenodd" fill-opacity="1" /><path clip-path="url(#clip210)" d="M0.69147 1064.22 L8.33032 1064.22 L8.33032 1037.86 L0.0201769 1039.52 L0.0201769 1035.26 L8.28402 1033.6 L12.9599 1033.6 L12.9599 1064.22 L20.5988 1064.22 L20.5988 1068.16 L0.69147 1068.16 L0.69147 1064.22 Z" fill="#000000" fill-rule="evenodd" fill-opacity="1" /><path clip-path="url(#clip210)" d="M30.0895 1033.6 L48.4458 1033.6 L48.4458 1037.53 L34.3718 1037.53 L34.3718 1046.01 Q35.3904 1045.66 36.4089 1045.5 Q37.4274 1045.31 38.4459 1045.31 Q44.2329 1045.31 47.6125 1048.48 Q50.9921 1051.65 50.9921 1057.07 Q50.9921 1062.65 47.5199 1065.75 Q44.0477 1068.83 37.7283 1068.83 Q35.5524 1068.83 33.2839 1068.46 Q31.0385 1068.09 28.6311 1067.35 L28.6311 1062.65 Q30.7145 1063.78 32.9367 1064.34 Q35.1589 1064.89 37.6357 1064.89 Q41.6403 1064.89 43.9783 1062.79 Q46.3162 1060.68 46.3162 1057.07 Q46.3162 1053.46 43.9783 1051.35 Q41.6403 1049.25 37.6357 1049.25 Q35.7607 1049.25 33.8857 1049.66 Q32.0339 1050.08 30.0895 1050.96 L30.0895 1033.6 Z" fill="#000000" fill-rule="evenodd" fill-opacity="1" /><path clip-path="url(#clip210)" d="M-36.3454 834.592 Q-39.9565 834.592 -41.7852 838.157 Q-43.5907 841.698 -43.5907 848.828 Q-43.5907 855.934 -41.7852 859.499 Q-39.9565 863.041 -36.3454 863.041 Q-32.7111 863.041 -30.9056 859.499 Q-29.0769 855.934 -29.0769 848.828 Q-29.0769 841.698 -30.9056 838.157 Q-32.7111 834.592 -36.3454 834.592 M-36.3454 830.888 Q-30.5352 830.888 -27.4797 835.495 Q-24.401 840.078 -24.401 848.828 Q-24.401 857.555 -27.4797 862.161 Q-30.5352 866.744 -36.3454 866.744 Q-42.1555 866.744 -45.2342 862.161 Q-48.2897 857.555 -48.2897 848.828 Q-48.2897 840.078 -45.2342 835.495 Q-42.1555 830.888 -36.3454 830.888 Z" fill="#000000" fill-rule="evenodd" fill-opacity="1" /><path clip-path="url(#clip210)" d="M-16.1834 860.194 L-11.2992 860.194 L-11.2992 866.073 L-16.1834 866.073 L-16.1834 860.194 Z" fill="#000000" fill-rule="evenodd" fill-opacity="1" /><path clip-path="url(#clip210)" d="M2.91368 862.138 L19.233 862.138 L19.233 866.073 L-2.71129 866.073 L-2.71129 862.138 Q-0.0492672 859.383 4.53404 854.754 Q9.1405 850.101 10.321 848.758 Q12.5664 846.235 13.446 844.499 Q14.3488 842.74 14.3488 841.05 Q14.3488 838.295 12.4044 836.559 Q10.4831 834.823 7.38125 834.823 Q5.18219 834.823 2.7285 835.587 Q0.297953 836.351 -2.47981 837.902 L-2.47981 833.18 Q0.344249 832.046 2.79794 831.467 Q5.25163 830.888 7.28866 830.888 Q12.659 830.888 15.8534 833.573 Q19.0479 836.258 19.0479 840.749 Q19.0479 842.879 18.2377 844.8 Q17.4506 846.698 15.3442 849.291 Q14.7655 849.962 11.6636 853.18 Q8.5618 856.374 2.91368 862.138 Z" fill="#000000" fill-rule="evenodd" fill-opacity="1" /><path clip-path="url(#clip210)" d="M39.0477 834.592 Q35.4367 834.592 33.608 838.157 Q31.8024 841.698 31.8024 848.828 Q31.8024 855.934 33.608 859.499 Q35.4367 863.041 39.0477 863.041 Q42.682 863.041 44.4875 859.499 Q46.3162 855.934 46.3162 848.828 Q46.3162 841.698 44.4875 838.157 Q42.682 834.592 39.0477 834.592 M39.0477 830.888 Q44.8579 830.888 47.9134 835.495 Q50.9921 840.078 50.9921 848.828 Q50.9921 857.555 47.9134 862.161 Q44.8579 866.744 39.0477 866.744 Q33.2376 866.744 30.1589 862.161 Q27.1034 857.555 27.1034 848.828 Q27.1034 840.078 30.1589 835.495 Q33.2376 830.888 39.0477 830.888 Z" fill="#000000" fill-rule="evenodd" fill-opacity="1" /><path clip-path="url(#clip210)" d="M-35.35 632.507 Q-38.9611 632.507 -40.7898 636.072 Q-42.5953 639.613 -42.5953 646.743 Q-42.5953 653.85 -40.7898 657.414 Q-38.9611 660.956 -35.35 660.956 Q-31.7158 660.956 -29.9102 657.414 Q-28.0815 653.85 -28.0815 646.743 Q-28.0815 639.613 -29.9102 636.072 Q-31.7158 632.507 -35.35 632.507 M-35.35 628.803 Q-29.5398 628.803 -26.4843 633.41 Q-23.4056 637.993 -23.4056 646.743 Q-23.4056 655.47 -26.4843 660.076 Q-29.5398 664.66 -35.35 664.66 Q-41.1602 664.66 -44.2388 660.076 Q-47.2944 655.47 -47.2944 646.743 Q-47.2944 637.993 -44.2388 633.41 Q-41.1602 628.803 -35.35 628.803 Z" fill="#000000" fill-rule="evenodd" fill-opacity="1" /><path clip-path="url(#clip210)" d="M-15.1881 658.109 L-10.3038 658.109 L-10.3038 663.988 L-15.1881 663.988 L-15.1881 658.109 Z" fill="#000000" fill-rule="evenodd" fill-opacity="1" /><path clip-path="url(#clip210)" d="M3.90904 660.053 L20.2284 660.053 L20.2284 663.988 L-1.71592 663.988 L-1.71592 660.053 Q0.946098 657.299 5.52941 652.669 Q10.1359 648.016 11.3164 646.674 Q13.5618 644.15 14.4414 642.414 Q15.3442 640.655 15.3442 638.965 Q15.3442 636.211 13.3997 634.475 Q11.4784 632.739 8.37661 632.739 Q6.17755 632.739 3.72386 633.502 Q1.29332 634.266 -1.48444 635.817 L-1.48444 631.095 Q1.33961 629.961 3.7933 629.382 Q6.247 628.803 8.28402 628.803 Q13.6544 628.803 16.8488 631.489 Q20.0432 634.174 20.0432 638.664 Q20.0432 640.794 19.233 642.715 Q18.446 644.613 16.3395 647.206 Q15.7608 647.877 12.659 651.095 Q9.55716 654.289 3.90904 660.053 Z" fill="#000000" fill-rule="evenodd" fill-opacity="1" /><path clip-path="url(#clip210)" d="M30.0895 629.428 L48.4458 629.428 L48.4458 633.364 L34.3718 633.364 L34.3718 641.836 Q35.3904 641.488 36.4089 641.326 Q37.4274 641.141 38.4459 641.141 Q44.2329 641.141 47.6125 644.313 Q50.9921 647.484 50.9921 652.9 Q50.9921 658.479 47.5199 661.581 Q44.0477 664.66 37.7283 664.66 Q35.5524 664.66 33.2839 664.289 Q31.0385 663.919 28.6311 663.178 L28.6311 658.479 Q30.7145 659.613 32.9367 660.169 Q35.1589 660.724 37.6357 660.724 Q41.6403 660.724 43.9783 658.618 Q46.3162 656.512 46.3162 652.9 Q46.3162 649.289 43.9783 647.183 Q41.6403 645.076 37.6357 645.076 Q35.7607 645.076 33.8857 645.493 Q32.0339 645.91 30.0895 646.789 L30.0895 629.428 Z" fill="#000000" fill-rule="evenodd" fill-opacity="1" /><path clip-path="url(#clip210)" d="M-36.3454 430.422 Q-39.9565 430.422 -41.7852 433.987 Q-43.5907 437.529 -43.5907 444.658 Q-43.5907 451.765 -41.7852 455.33 Q-39.9565 458.871 -36.3454 458.871 Q-32.7111 458.871 -30.9056 455.33 Q-29.0769 451.765 -29.0769 444.658 Q-29.0769 437.529 -30.9056 433.987 Q-32.7111 430.422 -36.3454 430.422 M-36.3454 426.719 Q-30.5352 426.719 -27.4797 431.325 Q-24.401 435.908 -24.401 444.658 Q-24.401 453.385 -27.4797 457.992 Q-30.5352 462.575 -36.3454 462.575 Q-42.1555 462.575 -45.2342 457.992 Q-48.2897 453.385 -48.2897 444.658 Q-48.2897 435.908 -45.2342 431.325 Q-42.1555 426.719 -36.3454 426.719 Z" fill="#000000" fill-rule="evenodd" fill-opacity="1" /><path clip-path="url(#clip210)" d="M-16.1834 456.024 L-11.2992 456.024 L-11.2992 461.904 L-16.1834 461.904 L-16.1834 456.024 Z" fill="#000000" fill-rule="evenodd" fill-opacity="1" /><path clip-path="url(#clip210)" d="M13.0525 443.269 Q16.409 443.987 18.284 446.256 Q20.1821 448.524 20.1821 451.857 Q20.1821 456.973 16.6636 459.774 Q13.1451 462.575 6.66366 462.575 Q4.48775 462.575 2.17294 462.135 Q-0.118711 461.718 -2.5724 460.862 L-2.5724 456.348 Q-0.627968 457.482 1.68683 458.061 Q4.00164 458.64 6.52477 458.64 Q10.9229 458.64 13.2146 456.904 Q15.5294 455.168 15.5294 451.857 Q15.5294 448.802 13.3766 447.089 Q11.247 445.353 7.42754 445.353 L3.39979 445.353 L3.39979 441.51 L7.61273 441.51 Q11.0618 441.51 12.8905 440.144 Q14.7192 438.756 14.7192 436.163 Q14.7192 433.501 12.821 432.089 Q10.946 430.654 7.42754 430.654 Q5.50626 430.654 3.3072 431.07 Q1.10813 431.487 -1.53074 432.367 L-1.53074 428.2 Q1.13128 427.459 3.44608 427.089 Q5.78403 426.719 7.84421 426.719 Q13.1683 426.719 16.2701 429.149 Q19.3719 431.557 19.3719 435.677 Q19.3719 438.547 17.7284 440.538 Q16.0849 442.506 13.0525 443.269 Z" fill="#000000" fill-rule="evenodd" fill-opacity="1" /><path clip-path="url(#clip210)" d="M39.0477 430.422 Q35.4367 430.422 33.608 433.987 Q31.8024 437.529 31.8024 444.658 Q31.8024 451.765 33.608 455.33 Q35.4367 458.871 39.0477 458.871 Q42.682 458.871 44.4875 455.33 Q46.3162 451.765 46.3162 444.658 Q46.3162 437.529 44.4875 433.987 Q42.682 430.422 39.0477 430.422 M39.0477 426.719 Q44.8579 426.719 47.9134 431.325 Q50.9921 435.908 50.9921 444.658 Q50.9921 453.385 47.9134 457.992 Q44.8579 462.575 39.0477 462.575 Q33.2376 462.575 30.1589 457.992 Q27.1034 453.385 27.1034 444.658 Q27.1034 435.908 30.1589 431.325 Q33.2376 426.719 39.0477 426.719 Z" fill="#000000" fill-rule="evenodd" fill-opacity="1" /><path clip-path="url(#clip210)" d="M-35.35 228.337 Q-38.9611 228.337 -40.7898 231.902 Q-42.5953 235.444 -42.5953 242.574 Q-42.5953 249.68 -40.7898 253.245 Q-38.9611 256.786 -35.35 256.786 Q-31.7158 256.786 -29.9102 253.245 Q-28.0815 249.68 -28.0815 242.574 Q-28.0815 235.444 -29.9102 231.902 Q-31.7158 228.337 -35.35 228.337 M-35.35 224.634 Q-29.5398 224.634 -26.4843 229.24 Q-23.4056 233.824 -23.4056 242.574 Q-23.4056 251.3 -26.4843 255.907 Q-29.5398 260.49 -35.35 260.49 Q-41.1602 260.49 -44.2388 255.907 Q-47.2944 251.3 -47.2944 242.574 Q-47.2944 233.824 -44.2388 229.24 Q-41.1602 224.634 -35.35 224.634 Z" fill="#000000" fill-rule="evenodd" fill-opacity="1" /><path clip-path="url(#clip210)" d="M-15.1881 253.939 L-10.3038 253.939 L-10.3038 259.819 L-15.1881 259.819 L-15.1881 253.939 Z" fill="#000000" fill-rule="evenodd" fill-opacity="1" /><path clip-path="url(#clip210)" d="M14.0479 241.185 Q17.4043 241.902 19.2793 244.171 Q21.1775 246.439 21.1775 249.773 Q21.1775 254.888 17.659 257.689 Q14.1405 260.49 7.65902 260.49 Q5.48311 260.49 3.16831 260.05 Q0.876654 259.634 -1.57704 258.777 L-1.57704 254.263 Q0.367397 255.398 2.6822 255.976 Q4.997 256.555 7.52014 256.555 Q11.9183 256.555 14.2099 254.819 Q16.5247 253.083 16.5247 249.773 Q16.5247 246.717 14.372 245.004 Q12.2423 243.268 8.42291 243.268 L4.39515 243.268 L4.39515 239.425 L8.60809 239.425 Q12.0571 239.425 13.8858 238.06 Q15.7145 236.671 15.7145 234.078 Q15.7145 231.416 13.8164 230.004 Q11.9414 228.569 8.42291 228.569 Q6.50162 228.569 4.30256 228.986 Q2.1035 229.402 -0.535376 230.282 L-0.535376 226.115 Q2.12665 225.375 4.44145 225.004 Q6.7794 224.634 8.83957 224.634 Q14.1636 224.634 17.2655 227.064 Q20.3673 229.472 20.3673 233.592 Q20.3673 236.462 18.7238 238.453 Q17.0803 240.421 14.0479 241.185 Z" fill="#000000" fill-rule="evenodd" fill-opacity="1" /><path clip-path="url(#clip210)" d="M30.0895 225.259 L48.4458 225.259 L48.4458 229.194 L34.3718 229.194 L34.3718 237.666 Q35.3904 237.319 36.4089 237.157 Q37.4274 236.972 38.4459 236.972 Q44.2329 236.972 47.6125 240.143 Q50.9921 243.314 50.9921 248.731 Q50.9921 254.31 47.5199 257.411 Q44.0477 260.49 37.7283 260.49 Q35.5524 260.49 33.2839 260.12 Q31.0385 259.749 28.6311 259.009 L28.6311 254.31 Q30.7145 255.444 32.9367 255.999 Q35.1589 256.555 37.6357 256.555 Q41.6403 256.555 43.9783 254.448 Q46.3162 252.342 46.3162 248.731 Q46.3162 245.12 43.9783 243.013 Q41.6403 240.907 37.6357 240.907 Q35.7607 240.907 33.8857 241.324 Q32.0339 241.74 30.0895 242.62 L30.0895 225.259 Z" fill="#000000" fill-rule="evenodd" fill-opacity="1" /><polyline clip-path="url(#clip212)" style="stroke:#009af9; stroke-linecap:butt; stroke-linejoin:round; stroke-width:2; stroke-opacity:1; fill:none" points="
  151.118,97.0378 263.618,145.538 376.119,141.496 488.62,109.163 601.12,88.9544 713.621,141.496 826.122,129.371 938.622,161.705 1051.12,121.288 1163.62,157.663 
  1276.12,177.872 1388.63,185.955 1501.13,214.247 1613.63,234.455 1726.13,226.372 1838.63,270.831 1951.13,315.289 2063.63,311.248 2176.13,311.248 2288.63,295.081 
  
  "/>
<polyline clip-path="url(#clip212)" style="stroke:#e26f46; stroke-linecap:butt; stroke-linejoin:round; stroke-width:2; stroke-opacity:1; fill:none" points="
  151.118,88.9544 263.618,137.455 376.119,234.455 488.62,278.914 601.12,359.748 713.621,359.748 826.122,460.79 938.622,485.041 1051.12,541.624 1163.62,586.083 
  1276.12,618.416 1388.63,662.875 1501.13,723.501 1613.63,796.251 1726.13,824.543 1838.63,897.293 1951.13,925.585 2063.63,953.877 2176.13,945.794 2288.63,998.336 
  
  "/>
<polyline clip-path="url(#clip212)" style="stroke:#3da44d; stroke-linecap:butt; stroke-linejoin:round; stroke-width:2; stroke-opacity:1; fill:none" points="
  151.118,129.371 263.618,206.164 376.119,286.997 488.62,343.581 601.12,379.956 713.621,444.624 826.122,545.666 938.622,602.25 1051.12,687.125 1163.62,739.667 
  1276.12,792.209 1388.63,848.793 1501.13,901.335 1613.63,974.086 1726.13,1022.59 1838.63,1067.04 1951.13,1091.29 2063.63,1119.59 2176.13,1168.09 2288.63,1204.46 
  
  "/>
<polyline clip-path="url(#clip212)" style="stroke:#c271d2; stroke-linecap:butt; stroke-linejoin:round; stroke-width:2; stroke-opacity:1; fill:none" points="
  151.118,177.872 263.618,254.664 376.119,351.665 488.62,428.457 601.12,509.291 713.621,594.166 826.122,666.917 938.622,715.417 1051.12,776.043 1163.62,820.501 
  1276.12,881.127 1388.63,905.377 1501.13,970.044 1613.63,1030.67 1726.13,1075.13 1838.63,1127.67 1951.13,1192.34 2063.63,1236.8 2176.13,1269.13 2288.63,1293.38 
  
  "/>
<polyline clip-path="url(#clip212)" style="stroke:#ac8d18; stroke-linecap:butt; stroke-linejoin:round; stroke-width:2; stroke-opacity:1; fill:none" points="
  151.118,109.163 263.618,262.747 376.119,388.04 488.62,505.249 601.12,622.458 713.621,711.375 826.122,800.293 938.622,877.085 1051.12,978.127 1163.62,1010.46 
  1276.12,1046.84 1388.63,1127.67 1501.13,1176.17 1613.63,1252.96 1726.13,1289.34 1838.63,1313.59 1951.13,1345.92 2063.63,1394.42 2176.13,1410.59 2288.63,1442.92 
  
  "/>
<polyline clip-path="url(#clip212)" style="stroke:#00a9ad; stroke-linecap:butt; stroke-linejoin:round; stroke-width:2; stroke-opacity:1; fill:none" points="
  151.118,101.079 263.618,286.997 376.119,420.373 488.62,517.374 601.12,662.875 713.621,739.667 826.122,808.376 938.622,877.085 1051.12,921.544 1163.62,1002.38 
  1276.12,1071.09 1388.63,1119.59 1501.13,1160 1613.63,1220.63 1726.13,1269.13 1838.63,1281.25 1951.13,1313.59 2063.63,1341.88 2176.13,1362.09 2288.63,1382.3 
  
  "/>
<polyline clip-path="url(#clip212)" style="stroke:#ed5d92; stroke-linecap:butt; stroke-linejoin:round; stroke-width:2; stroke-opacity:1; fill:none" points="
  151.118,101.079 263.618,258.706 376.119,375.915 488.62,505.249 601.12,638.625 713.621,707.334 826.122,824.543 938.622,889.21 1051.12,982.169 1163.62,1050.88 
  1276.12,1099.38 1388.63,1147.88 1501.13,1192.34 1613.63,1244.88 1726.13,1293.38 1838.63,1317.63 1951.13,1366.13 2063.63,1394.42 2176.13,1434.84 2288.63,1479.3 
  
  "/>
<polyline clip-path="url(#clip212)" style="stroke:#c68125; stroke-linecap:butt; stroke-linejoin:round; stroke-width:2; stroke-opacity:1; fill:none" points="
  151.118,157.663 263.618,230.414 376.119,291.039 488.62,412.29 601.12,472.915 713.621,561.833 826.122,642.667 938.622,735.626 1051.12,820.501 1163.62,881.127 
  1276.12,945.794 1388.63,994.294 1501.13,1054.92 1613.63,1095.34 1726.13,1151.92 1838.63,1208.5 1951.13,1257 2063.63,1301.46 2176.13,1345.92 2288.63,1366.13 
  
  "/>
<polyline clip-path="url(#clip212)" style="stroke:#00a98d; stroke-linecap:butt; stroke-linejoin:round; stroke-width:2; stroke-opacity:1; fill:none" points="
  151.118,113.205 263.618,258.706 376.119,363.79 488.62,460.79 601.12,582.041 713.621,650.75 826.122,739.667 938.622,788.168 1051.12,860.918 1163.62,909.419 
  1276.12,1002.38 1388.63,1067.04 1501.13,1111.5 1613.63,1160 1726.13,1208.5 1838.63,1244.88 1951.13,1281.25 2063.63,1301.46 2176.13,1354.01 2288.63,1386.34 
  
  "/>
<path clip-path="url(#clip210)" d="
M1926.85 701.17 L2277.23 701.17 L2277.23 96.3696 L1926.85 96.3696  Z
  " fill="#ffffff" fill-rule="evenodd" fill-opacity="1"/>
<polyline clip-path="url(#clip210)" style="stroke:#000000; stroke-linecap:butt; stroke-linejoin:round; stroke-width:4; stroke-opacity:1; fill:none" points="
  1926.85,701.17 2277.23,701.17 2277.23,96.3696 1926.85,96.3696 1926.85,701.17 
  "/>
<polyline clip-path="url(#clip210)" style="stroke:#009af9; stroke-linecap:butt; stroke-linejoin:round; stroke-width:4; stroke-opacity:1; fill:none" points="
  1952.02,156.85 2103.07,156.85 
  "/>
<path clip-path="url(#clip210)" d="M2140.19 142.648 Q2136.58 142.648 2134.75 146.213 Q2132.95 149.755 2132.95 156.884 Q2132.95 163.991 2134.75 167.556 Q2136.58 171.097 2140.19 171.097 Q2143.83 171.097 2145.63 167.556 Q2147.46 163.991 2147.46 156.884 Q2147.46 149.755 2145.63 146.213 Q2143.83 142.648 2140.19 142.648 M2140.19 138.945 Q2146 138.945 2149.06 143.551 Q2152.14 148.134 2152.14 156.884 Q2152.14 165.611 2149.06 170.218 Q2146 174.801 2140.19 174.801 Q2134.38 174.801 2131.3 170.218 Q2128.25 165.611 2128.25 156.884 Q2128.25 148.134 2131.3 143.551 Q2134.38 138.945 2140.19 138.945 Z" fill="#000000" fill-rule="evenodd" fill-opacity="1" /><path clip-path="url(#clip210)" d="M2160.35 168.25 L2165.24 168.25 L2165.24 174.13 L2160.35 174.13 L2160.35 168.25 Z" fill="#000000" fill-rule="evenodd" fill-opacity="1" /><path clip-path="url(#clip210)" d="M2185.42 142.648 Q2181.81 142.648 2179.98 146.213 Q2178.18 149.755 2178.18 156.884 Q2178.18 163.991 2179.98 167.556 Q2181.81 171.097 2185.42 171.097 Q2189.06 171.097 2190.86 167.556 Q2192.69 163.991 2192.69 156.884 Q2192.69 149.755 2190.86 146.213 Q2189.06 142.648 2185.42 142.648 M2185.42 138.945 Q2191.23 138.945 2194.29 143.551 Q2197.37 148.134 2197.37 156.884 Q2197.37 165.611 2194.29 170.218 Q2191.23 174.801 2185.42 174.801 Q2179.61 174.801 2176.53 170.218 Q2173.48 165.611 2173.48 156.884 Q2173.48 148.134 2176.53 143.551 Q2179.61 138.945 2185.42 138.945 Z" fill="#000000" fill-rule="evenodd" fill-opacity="1" /><path clip-path="url(#clip210)" d="M2206.39 170.194 L2214.03 170.194 L2214.03 143.829 L2205.72 145.495 L2205.72 141.236 L2213.99 139.57 L2218.66 139.57 L2218.66 170.194 L2226.3 170.194 L2226.3 174.13 L2206.39 174.13 L2206.39 170.194 Z" fill="#000000" fill-rule="evenodd" fill-opacity="1" /><polyline clip-path="url(#clip210)" style="stroke:#e26f46; stroke-linecap:butt; stroke-linejoin:round; stroke-width:4; stroke-opacity:1; fill:none" points="
  1952.02,217.33 2103.07,217.33 
  "/>
<path clip-path="url(#clip210)" d="M2140.19 203.128 Q2136.58 203.128 2134.75 206.693 Q2132.95 210.235 2132.95 217.364 Q2132.95 224.471 2134.75 228.036 Q2136.58 231.577 2140.19 231.577 Q2143.83 231.577 2145.63 228.036 Q2147.46 224.471 2147.46 217.364 Q2147.46 210.235 2145.63 206.693 Q2143.83 203.128 2140.19 203.128 M2140.19 199.425 Q2146 199.425 2149.06 204.031 Q2152.14 208.614 2152.14 217.364 Q2152.14 226.091 2149.06 230.698 Q2146 235.281 2140.19 235.281 Q2134.38 235.281 2131.3 230.698 Q2128.25 226.091 2128.25 217.364 Q2128.25 208.614 2131.3 204.031 Q2134.38 199.425 2140.19 199.425 Z" fill="#000000" fill-rule="evenodd" fill-opacity="1" /><path clip-path="url(#clip210)" d="M2160.35 228.73 L2165.24 228.73 L2165.24 234.61 L2160.35 234.61 L2160.35 228.73 Z" fill="#000000" fill-rule="evenodd" fill-opacity="1" /><path clip-path="url(#clip210)" d="M2185.42 203.128 Q2181.81 203.128 2179.98 206.693 Q2178.18 210.235 2178.18 217.364 Q2178.18 224.471 2179.98 228.036 Q2181.81 231.577 2185.42 231.577 Q2189.06 231.577 2190.86 228.036 Q2192.69 224.471 2192.69 217.364 Q2192.69 210.235 2190.86 206.693 Q2189.06 203.128 2185.42 203.128 M2185.42 199.425 Q2191.23 199.425 2194.29 204.031 Q2197.37 208.614 2197.37 217.364 Q2197.37 226.091 2194.29 230.698 Q2191.23 235.281 2185.42 235.281 Q2179.61 235.281 2176.53 230.698 Q2173.48 226.091 2173.48 217.364 Q2173.48 208.614 2176.53 204.031 Q2179.61 199.425 2185.42 199.425 Z" fill="#000000" fill-rule="evenodd" fill-opacity="1" /><path clip-path="url(#clip210)" d="M2205.63 200.05 L2223.99 200.05 L2223.99 203.985 L2209.91 203.985 L2209.91 212.457 Q2210.93 212.11 2211.95 211.948 Q2212.97 211.762 2213.99 211.762 Q2219.77 211.762 2223.15 214.934 Q2226.53 218.105 2226.53 223.522 Q2226.53 229.1 2223.06 232.202 Q2219.59 235.281 2213.27 235.281 Q2211.09 235.281 2208.82 234.91 Q2206.58 234.54 2204.17 233.799 L2204.17 229.1 Q2206.26 230.235 2208.48 230.79 Q2210.7 231.346 2213.18 231.346 Q2217.18 231.346 2219.52 229.239 Q2221.86 227.133 2221.86 223.522 Q2221.86 219.911 2219.52 217.804 Q2217.18 215.698 2213.18 215.698 Q2211.3 215.698 2209.43 216.114 Q2207.57 216.531 2205.63 217.411 L2205.63 200.05 Z" fill="#000000" fill-rule="evenodd" fill-opacity="1" /><polyline clip-path="url(#clip210)" style="stroke:#3da44d; stroke-linecap:butt; stroke-linejoin:round; stroke-width:4; stroke-opacity:1; fill:none" points="
  1952.02,277.81 2103.07,277.81 
  "/>
<path clip-path="url(#clip210)" d="M2140.19 263.608 Q2136.58 263.608 2134.75 267.173 Q2132.95 270.715 2132.95 277.844 Q2132.95 284.951 2134.75 288.516 Q2136.58 292.057 2140.19 292.057 Q2143.83 292.057 2145.63 288.516 Q2147.46 284.951 2147.46 277.844 Q2147.46 270.715 2145.63 267.173 Q2143.83 263.608 2140.19 263.608 M2140.19 259.905 Q2146 259.905 2149.06 264.511 Q2152.14 269.094 2152.14 277.844 Q2152.14 286.571 2149.06 291.178 Q2146 295.761 2140.19 295.761 Q2134.38 295.761 2131.3 291.178 Q2128.25 286.571 2128.25 277.844 Q2128.25 269.094 2131.3 264.511 Q2134.38 259.905 2140.19 259.905 Z" fill="#000000" fill-rule="evenodd" fill-opacity="1" /><path clip-path="url(#clip210)" d="M2160.35 289.21 L2165.24 289.21 L2165.24 295.09 L2160.35 295.09 L2160.35 289.21 Z" fill="#000000" fill-rule="evenodd" fill-opacity="1" /><path clip-path="url(#clip210)" d="M2176.23 291.154 L2183.87 291.154 L2183.87 264.789 L2175.56 266.455 L2175.56 262.196 L2183.82 260.53 L2188.5 260.53 L2188.5 291.154 L2196.14 291.154 L2196.14 295.09 L2176.23 295.09 L2176.23 291.154 Z" fill="#000000" fill-rule="evenodd" fill-opacity="1" /><polyline clip-path="url(#clip210)" style="stroke:#c271d2; stroke-linecap:butt; stroke-linejoin:round; stroke-width:4; stroke-opacity:1; fill:none" points="
  1952.02,338.29 2103.07,338.29 
  "/>
<path clip-path="url(#clip210)" d="M2140.19 324.088 Q2136.58 324.088 2134.75 327.653 Q2132.95 331.195 2132.95 338.324 Q2132.95 345.431 2134.75 348.996 Q2136.58 352.537 2140.19 352.537 Q2143.83 352.537 2145.63 348.996 Q2147.46 345.431 2147.46 338.324 Q2147.46 331.195 2145.63 327.653 Q2143.83 324.088 2140.19 324.088 M2140.19 320.385 Q2146 320.385 2149.06 324.991 Q2152.14 329.574 2152.14 338.324 Q2152.14 347.051 2149.06 351.658 Q2146 356.241 2140.19 356.241 Q2134.38 356.241 2131.3 351.658 Q2128.25 347.051 2128.25 338.324 Q2128.25 329.574 2131.3 324.991 Q2134.38 320.385 2140.19 320.385 Z" fill="#000000" fill-rule="evenodd" fill-opacity="1" /><path clip-path="url(#clip210)" d="M2160.35 349.69 L2165.24 349.69 L2165.24 355.57 L2160.35 355.57 L2160.35 349.69 Z" fill="#000000" fill-rule="evenodd" fill-opacity="1" /><path clip-path="url(#clip210)" d="M2179.45 351.634 L2195.77 351.634 L2195.77 355.57 L2173.82 355.57 L2173.82 351.634 Q2176.49 348.88 2181.07 344.25 Q2185.68 339.597 2186.86 338.255 Q2189.1 335.732 2189.98 333.996 Q2190.88 332.236 2190.88 330.547 Q2190.88 327.792 2188.94 326.056 Q2187.02 324.32 2183.92 324.32 Q2181.72 324.32 2179.26 325.084 Q2176.83 325.847 2174.06 327.398 L2174.06 322.676 Q2176.88 321.542 2179.33 320.963 Q2181.79 320.385 2183.82 320.385 Q2189.2 320.385 2192.39 323.07 Q2195.58 325.755 2195.58 330.246 Q2195.58 332.375 2194.77 334.297 Q2193.99 336.195 2191.88 338.787 Q2191.3 339.459 2188.2 342.676 Q2185.1 345.871 2179.45 351.634 Z" fill="#000000" fill-rule="evenodd" fill-opacity="1" /><polyline clip-path="url(#clip210)" style="stroke:#ac8d18; stroke-linecap:butt; stroke-linejoin:round; stroke-width:4; stroke-opacity:1; fill:none" points="
  1952.02,398.77 2103.07,398.77 
  "/>
<path clip-path="url(#clip210)" d="M2140.19 384.568 Q2136.58 384.568 2134.75 388.133 Q2132.95 391.675 2132.95 398.804 Q2132.95 405.911 2134.75 409.476 Q2136.58 413.017 2140.19 413.017 Q2143.83 413.017 2145.63 409.476 Q2147.46 405.911 2147.46 398.804 Q2147.46 391.675 2145.63 388.133 Q2143.83 384.568 2140.19 384.568 M2140.19 380.865 Q2146 380.865 2149.06 385.471 Q2152.14 390.054 2152.14 398.804 Q2152.14 407.531 2149.06 412.138 Q2146 416.721 2140.19 416.721 Q2134.38 416.721 2131.3 412.138 Q2128.25 407.531 2128.25 398.804 Q2128.25 390.054 2131.3 385.471 Q2134.38 380.865 2140.19 380.865 Z" fill="#000000" fill-rule="evenodd" fill-opacity="1" /><path clip-path="url(#clip210)" d="M2160.35 410.17 L2165.24 410.17 L2165.24 416.05 L2160.35 416.05 L2160.35 410.17 Z" fill="#000000" fill-rule="evenodd" fill-opacity="1" /><path clip-path="url(#clip210)" d="M2186 396.906 Q2182.85 396.906 2181 399.059 Q2179.17 401.212 2179.17 404.962 Q2179.17 408.688 2181 410.864 Q2182.85 413.017 2186 413.017 Q2189.15 413.017 2190.98 410.864 Q2192.83 408.688 2192.83 404.962 Q2192.83 401.212 2190.98 399.059 Q2189.15 396.906 2186 396.906 M2195.28 382.253 L2195.28 386.513 Q2193.52 385.679 2191.72 385.24 Q2189.94 384.8 2188.18 384.8 Q2183.55 384.8 2181.09 387.925 Q2178.66 391.05 2178.32 397.369 Q2179.68 395.355 2181.74 394.29 Q2183.8 393.202 2186.28 393.202 Q2191.49 393.202 2194.5 396.374 Q2197.53 399.522 2197.53 404.962 Q2197.53 410.286 2194.38 413.503 Q2191.23 416.721 2186 416.721 Q2180.01 416.721 2176.83 412.138 Q2173.66 407.531 2173.66 398.804 Q2173.66 390.61 2177.55 385.749 Q2181.44 380.865 2187.99 380.865 Q2189.75 380.865 2191.53 381.212 Q2193.34 381.559 2195.28 382.253 Z" fill="#000000" fill-rule="evenodd" fill-opacity="1" /><polyline clip-path="url(#clip210)" style="stroke:#00a9ad; stroke-linecap:butt; stroke-linejoin:round; stroke-width:4; stroke-opacity:1; fill:none" points="
  1952.02,459.25 2103.07,459.25 
  "/>
<path clip-path="url(#clip210)" d="M2140.19 445.048 Q2136.58 445.048 2134.75 448.613 Q2132.95 452.155 2132.95 459.284 Q2132.95 466.391 2134.75 469.956 Q2136.58 473.497 2140.19 473.497 Q2143.83 473.497 2145.63 469.956 Q2147.46 466.391 2147.46 459.284 Q2147.46 452.155 2145.63 448.613 Q2143.83 445.048 2140.19 445.048 M2140.19 441.345 Q2146 441.345 2149.06 445.951 Q2152.14 450.534 2152.14 459.284 Q2152.14 468.011 2149.06 472.618 Q2146 477.201 2140.19 477.201 Q2134.38 477.201 2131.3 472.618 Q2128.25 468.011 2128.25 459.284 Q2128.25 450.534 2131.3 445.951 Q2134.38 441.345 2140.19 441.345 Z" fill="#000000" fill-rule="evenodd" fill-opacity="1" /><path clip-path="url(#clip210)" d="M2160.35 470.65 L2165.24 470.65 L2165.24 476.53 L2160.35 476.53 L2160.35 470.65 Z" fill="#000000" fill-rule="evenodd" fill-opacity="1" /><path clip-path="url(#clip210)" d="M2174.24 441.97 L2196.46 441.97 L2196.46 443.96 L2183.92 476.53 L2179.03 476.53 L2190.84 445.905 L2174.24 445.905 L2174.24 441.97 Z" fill="#000000" fill-rule="evenodd" fill-opacity="1" /><polyline clip-path="url(#clip210)" style="stroke:#ed5d92; stroke-linecap:butt; stroke-linejoin:round; stroke-width:4; stroke-opacity:1; fill:none" points="
  1952.02,519.73 2103.07,519.73 
  "/>
<path clip-path="url(#clip210)" d="M2128.92 533.074 L2136.56 533.074 L2136.56 506.709 L2128.25 508.375 L2128.25 504.116 L2136.51 502.45 L2141.19 502.45 L2141.19 533.074 L2148.83 533.074 L2148.83 537.01 L2128.92 537.01 L2128.92 533.074 Z" fill="#000000" fill-rule="evenodd" fill-opacity="1" /><path clip-path="url(#clip210)" d="M2158.27 531.13 L2163.15 531.13 L2163.15 537.01 L2158.27 537.01 L2158.27 531.13 Z" fill="#000000" fill-rule="evenodd" fill-opacity="1" /><path clip-path="url(#clip210)" d="M2183.34 505.528 Q2179.73 505.528 2177.9 509.093 Q2176.09 512.635 2176.09 519.764 Q2176.09 526.871 2177.9 530.436 Q2179.73 533.977 2183.34 533.977 Q2186.97 533.977 2188.78 530.436 Q2190.61 526.871 2190.61 519.764 Q2190.61 512.635 2188.78 509.093 Q2186.97 505.528 2183.34 505.528 M2183.34 501.825 Q2189.15 501.825 2192.2 506.431 Q2195.28 511.014 2195.28 519.764 Q2195.28 528.491 2192.2 533.098 Q2189.15 537.681 2183.34 537.681 Q2177.53 537.681 2174.45 533.098 Q2171.39 528.491 2171.39 519.764 Q2171.39 511.014 2174.45 506.431 Q2177.53 501.825 2183.34 501.825 Z" fill="#000000" fill-rule="evenodd" fill-opacity="1" /><polyline clip-path="url(#clip210)" style="stroke:#c68125; stroke-linecap:butt; stroke-linejoin:round; stroke-width:4; stroke-opacity:1; fill:none" points="
  1952.02,580.21 2103.07,580.21 
  "/>
<path clip-path="url(#clip210)" d="M2140.19 566.008 Q2136.58 566.008 2134.75 569.573 Q2132.95 573.115 2132.95 580.244 Q2132.95 587.351 2134.75 590.916 Q2136.58 594.457 2140.19 594.457 Q2143.83 594.457 2145.63 590.916 Q2147.46 587.351 2147.46 580.244 Q2147.46 573.115 2145.63 569.573 Q2143.83 566.008 2140.19 566.008 M2140.19 562.305 Q2146 562.305 2149.06 566.911 Q2152.14 571.494 2152.14 580.244 Q2152.14 588.971 2149.06 593.578 Q2146 598.161 2140.19 598.161 Q2134.38 598.161 2131.3 593.578 Q2128.25 588.971 2128.25 580.244 Q2128.25 571.494 2131.3 566.911 Q2134.38 562.305 2140.19 562.305 Z" fill="#000000" fill-rule="evenodd" fill-opacity="1" /><path clip-path="url(#clip210)" d="M2160.35 591.61 L2165.24 591.61 L2165.24 597.49 L2160.35 597.49 L2160.35 591.61 Z" fill="#000000" fill-rule="evenodd" fill-opacity="1" /><path clip-path="url(#clip210)" d="M2189.59 578.855 Q2192.95 579.573 2194.82 581.841 Q2196.72 584.11 2196.72 587.443 Q2196.72 592.559 2193.2 595.36 Q2189.68 598.161 2183.2 598.161 Q2181.02 598.161 2178.71 597.721 Q2176.42 597.304 2173.96 596.448 L2173.96 591.934 Q2175.91 593.068 2178.22 593.647 Q2180.54 594.226 2183.06 594.226 Q2187.46 594.226 2189.75 592.49 Q2192.07 590.753 2192.07 587.443 Q2192.07 584.388 2189.91 582.675 Q2187.78 580.939 2183.96 580.939 L2179.94 580.939 L2179.94 577.096 L2184.15 577.096 Q2187.6 577.096 2189.43 575.73 Q2191.26 574.342 2191.26 571.749 Q2191.26 569.087 2189.36 567.675 Q2187.48 566.24 2183.96 566.24 Q2182.04 566.24 2179.84 566.656 Q2177.64 567.073 2175.01 567.953 L2175.01 563.786 Q2177.67 563.045 2179.98 562.675 Q2182.32 562.305 2184.38 562.305 Q2189.7 562.305 2192.81 564.735 Q2195.91 567.142 2195.91 571.263 Q2195.91 574.133 2194.26 576.124 Q2192.62 578.092 2189.59 578.855 Z" fill="#000000" fill-rule="evenodd" fill-opacity="1" /><polyline clip-path="url(#clip210)" style="stroke:#00a98d; stroke-linecap:butt; stroke-linejoin:round; stroke-width:4; stroke-opacity:1; fill:none" points="
  1952.02,640.69 2103.07,640.69 
  "/>
<path clip-path="url(#clip210)" d="M2140.19 626.488 Q2136.58 626.488 2134.75 630.053 Q2132.95 633.595 2132.95 640.724 Q2132.95 647.831 2134.75 651.396 Q2136.58 654.937 2140.19 654.937 Q2143.83 654.937 2145.63 651.396 Q2147.46 647.831 2147.46 640.724 Q2147.46 633.595 2145.63 630.053 Q2143.83 626.488 2140.19 626.488 M2140.19 622.785 Q2146 622.785 2149.06 627.391 Q2152.14 631.974 2152.14 640.724 Q2152.14 649.451 2149.06 654.058 Q2146 658.641 2140.19 658.641 Q2134.38 658.641 2131.3 654.058 Q2128.25 649.451 2128.25 640.724 Q2128.25 631.974 2131.3 627.391 Q2134.38 622.785 2140.19 622.785 Z" fill="#000000" fill-rule="evenodd" fill-opacity="1" /><path clip-path="url(#clip210)" d="M2160.35 652.09 L2165.24 652.09 L2165.24 657.97 L2160.35 657.97 L2160.35 652.09 Z" fill="#000000" fill-rule="evenodd" fill-opacity="1" /><path clip-path="url(#clip210)" d="M2185.42 641.558 Q2182.09 641.558 2180.17 643.34 Q2178.27 645.122 2178.27 648.247 Q2178.27 651.372 2180.17 653.155 Q2182.09 654.937 2185.42 654.937 Q2188.76 654.937 2190.68 653.155 Q2192.6 651.349 2192.6 648.247 Q2192.6 645.122 2190.68 643.34 Q2188.78 641.558 2185.42 641.558 M2180.75 639.567 Q2177.74 638.826 2176.05 636.766 Q2174.38 634.706 2174.38 631.743 Q2174.38 627.599 2177.32 625.192 Q2180.28 622.785 2185.42 622.785 Q2190.58 622.785 2193.52 625.192 Q2196.46 627.599 2196.46 631.743 Q2196.46 634.706 2194.77 636.766 Q2193.11 638.826 2190.12 639.567 Q2193.5 640.354 2195.38 642.646 Q2197.27 644.937 2197.27 648.247 Q2197.27 653.271 2194.2 655.956 Q2191.14 658.641 2185.42 658.641 Q2179.7 658.641 2176.63 655.956 Q2173.57 653.271 2173.57 648.247 Q2173.57 644.937 2175.47 642.646 Q2177.37 640.354 2180.75 639.567 M2179.03 632.183 Q2179.03 634.868 2180.7 636.372 Q2182.39 637.877 2185.42 637.877 Q2188.43 637.877 2190.12 636.372 Q2191.83 634.868 2191.83 632.183 Q2191.83 629.497 2190.12 627.993 Q2188.43 626.488 2185.42 626.488 Q2182.39 626.488 2180.7 627.993 Q2179.03 629.497 2179.03 632.183 Z" fill="#000000" fill-rule="evenodd" fill-opacity="1" /><path clip-path="url(#clip210)" d="M2219.75 639.335 Q2223.11 640.053 2224.98 642.321 Q2226.88 644.59 2226.88 647.923 Q2226.88 653.039 2223.36 655.84 Q2219.84 658.641 2213.36 658.641 Q2211.19 658.641 2208.87 658.201 Q2206.58 657.784 2204.13 656.928 L2204.13 652.414 Q2206.07 653.548 2208.38 654.127 Q2210.7 654.706 2213.22 654.706 Q2217.62 654.706 2219.91 652.97 Q2222.23 651.233 2222.23 647.923 Q2222.23 644.868 2220.07 643.155 Q2217.95 641.419 2214.13 641.419 L2210.1 641.419 L2210.1 637.576 L2214.31 637.576 Q2217.76 637.576 2219.59 636.21 Q2221.42 634.822 2221.42 632.229 Q2221.42 629.567 2219.52 628.155 Q2217.64 626.72 2214.13 626.72 Q2212.2 626.72 2210.01 627.136 Q2207.81 627.553 2205.17 628.433 L2205.17 624.266 Q2207.83 623.525 2210.14 623.155 Q2212.48 622.785 2214.54 622.785 Q2219.87 622.785 2222.97 625.215 Q2226.07 627.622 2226.07 631.743 Q2226.07 634.613 2224.43 636.604 Q2222.78 638.572 2219.75 639.335 Z" fill="#000000" fill-rule="evenodd" fill-opacity="1" /></svg>
