<?xml version="1.0" encoding="utf-8"?>
<svg xmlns="http://www.w3.org/2000/svg" xmlns:xlink="http://www.w3.org/1999/xlink" width="600" height="400" viewBox="0 0 2400 1600">
<defs>
  <clipPath id="clip240">
    <rect x="0" y="0" width="2400" height="1600"/>
  </clipPath>
</defs>
<path clip-path="url(#clip240)" d="
M0 1600 L2400 1600 L2400 0 L0 0  Z
  " fill="#ffffff" fill-rule="evenodd" fill-opacity="1"/>
<defs>
  <clipPath id="clip241">
    <rect x="480" y="0" width="1681" height="1600"/>
  </clipPath>
</defs>
<path clip-path="url(#clip240)" d="
M86.9921 1521.01 L2352.76 1521.01 L2352.76 47.2441 L86.9921 47.2441  Z
  " fill="#ffffff" fill-rule="evenodd" fill-opacity="1"/>
<defs>
  <clipPath id="clip242">
    <rect x="86" y="47" width="2267" height="1475"/>
  </clipPath>
</defs>
<polyline clip-path="url(#clip242)" style="stroke:#000000; stroke-linecap:butt; stroke-linejoin:round; stroke-width:2; stroke-opacity:0.1; fill:none" points="
  601.12,1521.01 601.12,47.2441 
  "/>
<polyline clip-path="url(#clip242)" style="stroke:#000000; stroke-linecap:butt; stroke-linejoin:round; stroke-width:2; stroke-opacity:0.1; fill:none" points="
  1163.62,1521.01 1163.62,47.2441 
  "/>
<polyline clip-path="url(#clip242)" style="stroke:#000000; stroke-linecap:butt; stroke-linejoin:round; stroke-width:2; stroke-opacity:0.1; fill:none" points="
  1726.13,1521.01 1726.13,47.2441 
  "/>
<polyline clip-path="url(#clip242)" style="stroke:#000000; stroke-linecap:butt; stroke-linejoin:round; stroke-width:2; stroke-opacity:0.1; fill:none" points="
  2288.63,1521.01 2288.63,47.2441 
  "/>
<polyline clip-path="url(#clip240)" style="stroke:#000000; stroke-linecap:butt; stroke-linejoin:round; stroke-width:4; stroke-opacity:1; fill:none" points="
  86.9921,1521.01 2352.76,1521.01 
  "/>
<polyline clip-path="url(#clip240)" style="stroke:#000000; stroke-linecap:butt; stroke-linejoin:round; stroke-width:4; stroke-opacity:1; fill:none" points="
  601.12,1521.01 601.12,1503.32 
  "/>
<polyline clip-path="url(#clip240)" style="stroke:#000000; stroke-linecap:butt; stroke-linejoin:round; stroke-width:4; stroke-opacity:1; fill:none" points="
  1163.62,1521.01 1163.62,1503.32 
  "/>
<polyline clip-path="url(#clip240)" style="stroke:#000000; stroke-linecap:butt; stroke-linejoin:round; stroke-width:4; stroke-opacity:1; fill:none" points="
  1726.13,1521.01 1726.13,1503.32 
  "/>
<polyline clip-path="url(#clip240)" style="stroke:#000000; stroke-linecap:butt; stroke-linejoin:round; stroke-width:4; stroke-opacity:1; fill:none" points="
  2288.63,1521.01 2288.63,1503.32 
  "/>
<path clip-path="url(#clip240)" d="M591.398 1547.12 L609.754 1547.12 L609.754 1551.06 L595.68 1551.06 L595.68 1559.53 Q596.699 1559.18 597.717 1559.02 Q598.736 1558.83 599.755 1558.83 Q605.542 1558.83 608.921 1562 Q612.301 1565.18 612.301 1570.59 Q612.301 1576.17 608.829 1579.27 Q605.356 1582.35 599.037 1582.35 Q596.861 1582.35 594.593 1581.98 Q592.347 1581.61 589.94 1580.87 L589.94 1576.17 Q592.023 1577.3 594.245 1577.86 Q596.467 1578.42 598.944 1578.42 Q602.949 1578.42 605.287 1576.31 Q607.625 1574.2 607.625 1570.59 Q607.625 1566.98 605.287 1564.87 Q602.949 1562.77 598.944 1562.77 Q597.069 1562.77 595.194 1563.18 Q593.343 1563.6 591.398 1564.48 L591.398 1547.12 Z" fill="#000000" fill-rule="evenodd" fill-opacity="1" /><path clip-path="url(#clip240)" d="M1138.31 1577.74 L1145.95 1577.74 L1145.95 1551.38 L1137.64 1553.05 L1137.64 1548.79 L1145.9 1547.12 L1150.58 1547.12 L1150.58 1577.74 L1158.22 1577.74 L1158.22 1581.68 L1138.31 1581.68 L1138.31 1577.74 Z" fill="#000000" fill-rule="evenodd" fill-opacity="1" /><path clip-path="url(#clip240)" d="M1177.66 1550.2 Q1174.05 1550.2 1172.22 1553.76 Q1170.42 1557.31 1170.42 1564.43 Q1170.42 1571.54 1172.22 1575.11 Q1174.05 1578.65 1177.66 1578.65 Q1181.3 1578.65 1183.1 1575.11 Q1184.93 1571.54 1184.93 1564.43 Q1184.93 1557.31 1183.1 1553.76 Q1181.3 1550.2 1177.66 1550.2 M1177.66 1546.49 Q1183.47 1546.49 1186.53 1551.1 Q1189.61 1555.68 1189.61 1564.43 Q1189.61 1573.16 1186.53 1577.77 Q1183.47 1582.35 1177.66 1582.35 Q1171.85 1582.35 1168.77 1577.77 Q1165.72 1573.16 1165.72 1564.43 Q1165.72 1555.68 1168.77 1551.1 Q1171.85 1546.49 1177.66 1546.49 Z" fill="#000000" fill-rule="evenodd" fill-opacity="1" /><path clip-path="url(#clip240)" d="M1701.31 1577.74 L1708.95 1577.74 L1708.95 1551.38 L1700.64 1553.05 L1700.64 1548.79 L1708.9 1547.12 L1713.58 1547.12 L1713.58 1577.74 L1721.22 1577.74 L1721.22 1581.68 L1701.31 1581.68 L1701.31 1577.74 Z" fill="#000000" fill-rule="evenodd" fill-opacity="1" /><path clip-path="url(#clip240)" d="M1730.71 1547.12 L1749.07 1547.12 L1749.07 1551.06 L1734.99 1551.06 L1734.99 1559.53 Q1736.01 1559.18 1737.03 1559.02 Q1738.05 1558.83 1739.07 1558.83 Q1744.85 1558.83 1748.23 1562 Q1751.61 1565.18 1751.61 1570.59 Q1751.61 1576.17 1748.14 1579.27 Q1744.67 1582.35 1738.35 1582.35 Q1736.17 1582.35 1733.9 1581.98 Q1731.66 1581.61 1729.25 1580.87 L1729.25 1576.17 Q1731.34 1577.3 1733.56 1577.86 Q1735.78 1578.42 1738.26 1578.42 Q1742.26 1578.42 1744.6 1576.31 Q1746.94 1574.2 1746.94 1570.59 Q1746.94 1566.98 1744.6 1564.87 Q1742.26 1562.77 1738.26 1562.77 Q1736.38 1562.77 1734.51 1563.18 Q1732.65 1563.6 1730.71 1564.48 L1730.71 1547.12 Z" fill="#000000" fill-rule="evenodd" fill-opacity="1" /><path clip-path="url(#clip240)" d="M2267.4 1577.74 L2283.72 1577.74 L2283.72 1581.68 L2261.78 1581.68 L2261.78 1577.74 Q2264.44 1574.99 2269.02 1570.36 Q2273.63 1565.71 2274.81 1564.37 Q2277.06 1561.84 2277.94 1560.11 Q2278.84 1558.35 2278.84 1556.66 Q2278.84 1553.9 2276.89 1552.17 Q2274.97 1550.43 2271.87 1550.43 Q2269.67 1550.43 2267.22 1551.19 Q2264.79 1551.96 2262.01 1553.51 L2262.01 1548.79 Q2264.83 1547.65 2267.29 1547.07 Q2269.74 1546.49 2271.78 1546.49 Q2277.15 1546.49 2280.34 1549.18 Q2283.54 1551.87 2283.54 1556.36 Q2283.54 1558.49 2282.73 1560.41 Q2281.94 1562.3 2279.83 1564.9 Q2279.26 1565.57 2276.15 1568.79 Q2273.05 1571.98 2267.4 1577.74 Z" fill="#000000" fill-rule="evenodd" fill-opacity="1" /><path clip-path="url(#clip240)" d="M2303.54 1550.2 Q2299.93 1550.2 2298.1 1553.76 Q2296.29 1557.31 2296.29 1564.43 Q2296.29 1571.54 2298.1 1575.11 Q2299.93 1578.65 2303.54 1578.65 Q2307.17 1578.65 2308.98 1575.11 Q2310.81 1571.54 2310.81 1564.43 Q2310.81 1557.31 2308.98 1553.76 Q2307.17 1550.2 2303.54 1550.2 M2303.54 1546.49 Q2309.35 1546.49 2312.4 1551.1 Q2315.48 1555.68 2315.48 1564.43 Q2315.48 1573.16 2312.4 1577.77 Q2309.35 1582.35 2303.54 1582.35 Q2297.73 1582.35 2294.65 1577.77 Q2291.59 1573.16 2291.59 1564.43 Q2291.59 1555.68 2294.65 1551.1 Q2297.73 1546.49 2303.54 1546.49 Z" fill="#000000" fill-rule="evenodd" fill-opacity="1" /><polyline clip-path="url(#clip242)" style="stroke:#000000; stroke-linecap:butt; stroke-linejoin:round; stroke-width:2; stroke-opacity:0.1; fill:none" points="
  86.9921,1256.53 2352.76,1256.53 
  "/>
<polyline clip-path="url(#clip242)" style="stroke:#000000; stroke-linecap:butt; stroke-linejoin:round; stroke-width:2; stroke-opacity:0.1; fill:none" points="
  86.9921,879.622 2352.76,879.622 
  "/>
<polyline clip-path="url(#clip242)" style="stroke:#000000; stroke-linecap:butt; stroke-linejoin:round; stroke-width:2; stroke-opacity:0.1; fill:none" points="
  86.9921,502.715 2352.76,502.715 
  "/>
<polyline clip-path="url(#clip242)" style="stroke:#000000; stroke-linecap:butt; stroke-linejoin:round; stroke-width:2; stroke-opacity:0.1; fill:none" points="
  86.9921,125.808 2352.76,125.808 
  "/>
<polyline clip-path="url(#clip240)" style="stroke:#000000; stroke-linecap:butt; stroke-linejoin:round; stroke-width:4; stroke-opacity:1; fill:none" points="
  86.9921,1521.01 86.9921,47.2441 
  "/>
<polyline clip-path="url(#clip240)" style="stroke:#000000; stroke-linecap:butt; stroke-linejoin:round; stroke-width:4; stroke-opacity:1; fill:none" points="
  86.9921,1256.53 114.181,1256.53 
  "/>
<polyline clip-path="url(#clip240)" style="stroke:#000000; stroke-linecap:butt; stroke-linejoin:round; stroke-width:4; stroke-opacity:1; fill:none" points="
  86.9921,879.622 114.181,879.622 
  "/>
<polyline clip-path="url(#clip240)" style="stroke:#000000; stroke-linecap:butt; stroke-linejoin:round; stroke-width:4; stroke-opacity:1; fill:none" points="
  86.9921,502.715 114.181,502.715 
  "/>
<polyline clip-path="url(#clip240)" style="stroke:#000000; stroke-linecap:butt; stroke-linejoin:round; stroke-width:4; stroke-opacity:1; fill:none" points="
  86.9921,125.808 114.181,125.808 
  "/>
<path clip-path="url(#clip240)" d="M-36.3454 1242.33 Q-39.9565 1242.33 -41.7852 1245.89 Q-43.5907 1249.43 -43.5907 1256.56 Q-43.5907 1263.67 -41.7852 1267.24 Q-39.9565 1270.78 -36.3454 1270.78 Q-32.7111 1270.78 -30.9056 1267.24 Q-29.0769 1263.67 -29.0769 1256.56 Q-29.0769 1249.43 -30.9056 1245.89 Q-32.7111 1242.33 -36.3454 1242.33 M-36.3454 1238.62 Q-30.5352 1238.62 -27.4797 1243.23 Q-24.401 1247.81 -24.401 1256.56 Q-24.401 1265.29 -27.4797 1269.9 Q-30.5352 1274.48 -36.3454 1274.48 Q-42.1555 1274.48 -45.2342 1269.9 Q-48.2897 1265.29 -48.2897 1256.56 Q-48.2897 1247.81 -45.2342 1243.23 Q-42.1555 1238.62 -36.3454 1238.62 Z" fill="#000000" fill-rule="evenodd" fill-opacity="1" /><path clip-path="url(#clip240)" d="M-16.1834 1267.93 L-11.2992 1267.93 L-11.2992 1273.81 L-16.1834 1273.81 L-16.1834 1267.93 Z" fill="#000000" fill-rule="evenodd" fill-opacity="1" /><path clip-path="url(#clip240)" d="M-0.303895 1269.87 L7.33495 1269.87 L7.33495 1243.51 L-0.975188 1245.18 L-0.975188 1240.92 L7.28866 1239.25 L11.9646 1239.25 L11.9646 1269.87 L19.6034 1269.87 L19.6034 1273.81 L-0.303895 1273.81 L-0.303895 1269.87 Z" fill="#000000" fill-rule="evenodd" fill-opacity="1" /><path clip-path="url(#clip240)" d="M39.0477 1242.33 Q35.4367 1242.33 33.608 1245.89 Q31.8024 1249.43 31.8024 1256.56 Q31.8024 1263.67 33.608 1267.24 Q35.4367 1270.78 39.0477 1270.78 Q42.682 1270.78 44.4875 1267.24 Q46.3162 1263.67 46.3162 1256.56 Q46.3162 1249.43 44.4875 1245.89 Q42.682 1242.33 39.0477 1242.33 M39.0477 1238.62 Q44.8579 1238.62 47.9134 1243.23 Q50.9921 1247.81 50.9921 1256.56 Q50.9921 1265.29 47.9134 1269.9 Q44.8579 1274.48 39.0477 1274.48 Q33.2376 1274.48 30.1589 1269.9 Q27.1034 1265.29 27.1034 1256.56 Q27.1034 1247.81 30.1589 1243.23 Q33.2376 1238.62 39.0477 1238.62 Z" fill="#000000" fill-rule="evenodd" fill-opacity="1" /><path clip-path="url(#clip240)" d="M-35.35 865.421 Q-38.9611 865.421 -40.7898 868.986 Q-42.5953 872.527 -42.5953 879.657 Q-42.5953 886.763 -40.7898 890.328 Q-38.9611 893.87 -35.35 893.87 Q-31.7158 893.87 -29.9102 890.328 Q-28.0815 886.763 -28.0815 879.657 Q-28.0815 872.527 -29.9102 868.986 Q-31.7158 865.421 -35.35 865.421 M-35.35 861.717 Q-29.5398 861.717 -26.4843 866.324 Q-23.4056 870.907 -23.4056 879.657 Q-23.4056 888.384 -26.4843 892.99 Q-29.5398 897.573 -35.35 897.573 Q-41.1602 897.573 -44.2388 892.99 Q-47.2944 888.384 -47.2944 879.657 Q-47.2944 870.907 -44.2388 866.324 Q-41.1602 861.717 -35.35 861.717 Z" fill="#000000" fill-rule="evenodd" fill-opacity="1" /><path clip-path="url(#clip240)" d="M-15.1881 891.023 L-10.3038 891.023 L-10.3038 896.902 L-15.1881 896.902 L-15.1881 891.023 Z" fill="#000000" fill-rule="evenodd" fill-opacity="1" /><path clip-path="url(#clip240)" d="M0.69147 892.967 L8.33032 892.967 L8.33032 866.601 L0.0201769 868.268 L0.0201769 864.009 L8.28402 862.342 L12.9599 862.342 L12.9599 892.967 L20.5988 892.967 L20.5988 896.902 L0.69147 896.902 L0.69147 892.967 Z" fill="#000000" fill-rule="evenodd" fill-opacity="1" /><path clip-path="url(#clip240)" d="M30.0895 862.342 L48.4458 862.342 L48.4458 866.277 L34.3718 866.277 L34.3718 874.75 Q35.3904 874.402 36.4089 874.24 Q37.4274 874.055 38.4459 874.055 Q44.2329 874.055 47.6125 877.226 Q50.9921 880.398 50.9921 885.814 Q50.9921 891.393 47.5199 894.495 Q44.0477 897.573 37.7283 897.573 Q35.5524 897.573 33.2839 897.203 Q31.0385 896.833 28.6311 896.092 L28.6311 891.393 Q30.7145 892.527 32.9367 893.083 Q35.1589 893.638 37.6357 893.638 Q41.6403 893.638 43.9783 891.532 Q46.3162 889.425 46.3162 885.814 Q46.3162 882.203 43.9783 880.097 Q41.6403 877.99 37.6357 877.99 Q35.7607 877.99 33.8857 878.407 Q32.0339 878.824 30.0895 879.703 L30.0895 862.342 Z" fill="#000000" fill-rule="evenodd" fill-opacity="1" /><path clip-path="url(#clip240)" d="M-36.3454 488.514 Q-39.9565 488.514 -41.7852 492.078 Q-43.5907 495.62 -43.5907 502.75 Q-43.5907 509.856 -41.7852 513.421 Q-39.9565 516.962 -36.3454 516.962 Q-32.7111 516.962 -30.9056 513.421 Q-29.0769 509.856 -29.0769 502.75 Q-29.0769 495.62 -30.9056 492.078 Q-32.7111 488.514 -36.3454 488.514 M-36.3454 484.81 Q-30.5352 484.81 -27.4797 489.416 Q-24.401 494 -24.401 502.75 Q-24.401 511.476 -27.4797 516.083 Q-30.5352 520.666 -36.3454 520.666 Q-42.1555 520.666 -45.2342 516.083 Q-48.2897 511.476 -48.2897 502.75 Q-48.2897 494 -45.2342 489.416 Q-42.1555 484.81 -36.3454 484.81 Z" fill="#000000" fill-rule="evenodd" fill-opacity="1" /><path clip-path="url(#clip240)" d="M-16.1834 514.115 L-11.2992 514.115 L-11.2992 519.995 L-16.1834 519.995 L-16.1834 514.115 Z" fill="#000000" fill-rule="evenodd" fill-opacity="1" /><path clip-path="url(#clip240)" d="M2.91368 516.06 L19.233 516.06 L19.233 519.995 L-2.71129 519.995 L-2.71129 516.06 Q-0.0492672 513.305 4.53404 508.675 Q9.1405 504.023 10.321 502.68 Q12.5664 500.157 13.446 498.421 Q14.3488 496.662 14.3488 494.972 Q14.3488 492.217 12.4044 490.481 Q10.4831 488.745 7.38125 488.745 Q5.18219 488.745 2.7285 489.509 Q0.297953 490.273 -2.47981 491.824 L-2.47981 487.102 Q0.344249 485.967 2.79794 485.389 Q5.25163 484.81 7.28866 484.81 Q12.659 484.81 15.8534 487.495 Q19.0479 490.18 19.0479 494.671 Q19.0479 496.801 18.2377 498.722 Q17.4506 500.62 15.3442 503.213 Q14.7655 503.884 11.6636 507.101 Q8.5618 510.296 2.91368 516.06 Z" fill="#000000" fill-rule="evenodd" fill-opacity="1" /><path clip-path="url(#clip240)" d="M39.0477 488.514 Q35.4367 488.514 33.608 492.078 Q31.8024 495.62 31.8024 502.75 Q31.8024 509.856 33.608 513.421 Q35.4367 516.962 39.0477 516.962 Q42.682 516.962 44.4875 513.421 Q46.3162 509.856 46.3162 502.75 Q46.3162 495.62 44.4875 492.078 Q42.682 488.514 39.0477 488.514 M39.0477 484.81 Q44.8579 484.81 47.9134 489.416 Q50.9921 494 50.9921 502.75 Q50.9921 511.476 47.9134 516.083 Q44.8579 520.666 39.0477 520.666 Q33.2376 520.666 30.1589 516.083 Q27.1034 511.476 27.1034 502.75 Q27.1034 494 30.1589 489.416 Q33.2376 484.81 39.0477 484.81 Z" fill="#000000" fill-rule="evenodd" fill-opacity="1" /><path clip-path="url(#clip240)" d="M-35.35 111.606 Q-38.9611 111.606 -40.7898 115.171 Q-42.5953 118.713 -42.5953 125.842 Q-42.5953 132.949 -40.7898 136.514 Q-38.9611 140.055 -35.35 140.055 Q-31.7158 140.055 -29.9102 136.514 Q-28.0815 132.949 -28.0815 125.842 Q-28.0815 118.713 -29.9102 115.171 Q-31.7158 111.606 -35.35 111.606 M-35.35 107.903 Q-29.5398 107.903 -26.4843 112.509 Q-23.4056 117.092 -23.4056 125.842 Q-23.4056 134.569 -26.4843 139.176 Q-29.5398 143.759 -35.35 143.759 Q-41.1602 143.759 -44.2388 139.176 Q-47.2944 134.569 -47.2944 125.842 Q-47.2944 117.092 -44.2388 112.509 Q-41.1602 107.903 -35.35 107.903 Z" fill="#000000" fill-rule="evenodd" fill-opacity="1" /><path clip-path="url(#clip240)" d="M-15.1881 137.208 L-10.3038 137.208 L-10.3038 143.088 L-15.1881 143.088 L-15.1881 137.208 Z" fill="#000000" fill-rule="evenodd" fill-opacity="1" /><path clip-path="url(#clip240)" d="M3.90904 139.152 L20.2284 139.152 L20.2284 143.088 L-1.71592 143.088 L-1.71592 139.152 Q0.946098 136.398 5.52941 131.768 Q10.1359 127.115 11.3164 125.773 Q13.5618 123.25 14.4414 121.514 Q15.3442 119.754 15.3442 118.065 Q15.3442 115.31 13.3997 113.574 Q11.4784 111.838 8.37661 111.838 Q6.17755 111.838 3.72386 112.602 Q1.29332 113.365 -1.48444 114.916 L-1.48444 110.194 Q1.33961 109.06 3.7933 108.481 Q6.247 107.903 8.28402 107.903 Q13.6544 107.903 16.8488 110.588 Q20.0432 113.273 20.0432 117.764 Q20.0432 119.893 19.233 121.815 Q18.446 123.713 16.3395 126.305 Q15.7608 126.977 12.659 130.194 Q9.55716 133.389 3.90904 139.152 Z" fill="#000000" fill-rule="evenodd" fill-opacity="1" /><path clip-path="url(#clip240)" d="M30.0895 108.528 L48.4458 108.528 L48.4458 112.463 L34.3718 112.463 L34.3718 120.935 Q35.3904 120.588 36.4089 120.426 Q37.4274 120.24 38.4459 120.24 Q44.2329 120.24 47.6125 123.412 Q50.9921 126.583 50.9921 132 Q50.9921 137.578 47.5199 140.68 Q44.0477 143.759 37.7283 143.759 Q35.5524 143.759 33.2839 143.388 Q31.0385 143.018 28.6311 142.277 L28.6311 137.578 Q30.7145 138.713 32.9367 139.268 Q35.1589 139.824 37.6357 139.824 Q41.6403 139.824 43.9783 137.717 Q46.3162 135.611 46.3162 132 Q46.3162 128.389 43.9783 126.282 Q41.6403 124.176 37.6357 124.176 Q35.7607 124.176 33.8857 124.592 Q32.0339 125.009 30.0895 125.889 L30.0895 108.528 Z" fill="#000000" fill-rule="evenodd" fill-opacity="1" /><polyline clip-path="url(#clip242)" style="stroke:#009af9; stroke-linecap:butt; stroke-linejoin:round; stroke-width:4; stroke-opacity:1; fill:none" points="
  151.118,88.9544 263.618,122.876 376.119,121.879 488.62,105.418 601.12,107.738 713.621,141.995 826.122,130.08 938.622,136.545 1051.12,125.699 1163.62,145.606 
  1276.12,167.285 1388.63,179.385 1501.13,204.956 1613.63,223.689 1726.13,236.967 1838.63,251.946 1951.13,276.365 2063.63,289.957 2176.13,281.676 2288.63,270.659 
  
  "/>
<polyline clip-path="url(#clip242)" style="stroke:#e26f46; stroke-linecap:butt; stroke-linejoin:round; stroke-width:4; stroke-opacity:1; fill:none" points="
  151.118,97.3301 263.618,129.786 376.119,197.916 488.62,241.396 601.12,310.728 713.621,340.614 826.122,381.625 938.622,415.134 1051.12,457.803 1163.62,491.461 
  1276.12,506.393 1388.63,544.26 1501.13,593.412 1613.63,651.587 1726.13,682.743 1838.63,757.563 1951.13,776.705 2063.63,812.887 2176.13,828.322 2288.63,864.398 
  
  "/>
<polyline clip-path="url(#clip242)" style="stroke:#3da44d; stroke-linecap:butt; stroke-linejoin:round; stroke-width:4; stroke-opacity:1; fill:none" points="
  151.118,120.782 263.618,166.43 376.119,250.23 488.62,319.463 601.12,345.867 713.621,421.401 826.122,493.203 938.622,538.524 1051.12,592.561 1163.62,651.542 
  1276.12,706.489 1388.63,750.983 1501.13,809.199 1613.63,895.612 1726.13,933.582 1838.63,982.465 1951.13,1012.97 2063.63,1057.29 2176.13,1109.32 2288.63,1130.07 
  
  "/>
<polyline clip-path="url(#clip242)" style="stroke:#c271d2; stroke-linecap:butt; stroke-linejoin:round; stroke-width:4; stroke-opacity:1; fill:none" points="
  151.118,171.036 263.618,256.888 376.119,331.268 488.62,414.31 601.12,491.483 713.621,558.997 826.122,627.487 938.622,679.544 1051.12,740.124 1163.62,806.551 
  1276.12,857.109 1388.63,893.254 1501.13,969.189 1613.63,1020.52 1726.13,1058.03 1838.63,1116.98 1951.13,1175.56 2063.63,1217.01 2176.13,1234.63 2288.63,1273.41 
  
  "/>
<polyline clip-path="url(#clip242)" style="stroke:#ac8d18; stroke-linecap:butt; stroke-linejoin:round; stroke-width:4; stroke-opacity:1; fill:none" points="
  151.118,141.721 263.618,254.794 376.119,379.172 488.62,485.271 601.12,609.694 713.621,705.981 826.122,817.104 938.622,893.536 1051.12,976.697 1163.62,1011.05 
  1276.12,1066.27 1388.63,1128.01 1501.13,1169.79 1613.63,1239.45 1726.13,1286.53 1838.63,1321.93 1951.13,1360.2 2063.63,1414.64 2176.13,1442.53 2288.63,1468.96 
  
  "/>
<polyline clip-path="url(#clip242)" style="stroke:#00a9ad; stroke-linecap:butt; stroke-linejoin:round; stroke-width:4; stroke-opacity:1; fill:none" points="
  151.118,98.1677 263.618,252.7 376.119,399.733 488.62,466.092 601.12,595.262 713.621,676.494 826.122,748.275 938.622,825.56 1051.12,877.494 1163.62,945.336 
  1276.12,1019.26 1388.63,1079.65 1501.13,1119.33 1613.63,1167.86 1726.13,1232.68 1838.63,1259.42 1951.13,1291.21 2063.63,1331.47 2176.13,1362.92 2288.63,1394.24 
  
  "/>
<polyline clip-path="url(#clip242)" style="stroke:#ed5d92; stroke-linecap:butt; stroke-linejoin:round; stroke-width:4; stroke-opacity:1; fill:none" points="
  151.118,91.4671 263.618,229.666 376.119,352.796 488.62,472.436 601.12,589.316 713.621,662.013 826.122,772.204 938.622,840.202 1051.12,939.821 1163.62,984.674 
  1276.12,1047.73 1388.63,1096.52 1501.13,1138.43 1613.63,1195.95 1726.13,1257.31 1838.63,1292.1 1951.13,1338.5 2063.63,1369.9 2176.13,1425.82 2288.63,1479.3 
  
  "/>
<polyline clip-path="url(#clip242)" style="stroke:#c68125; stroke-linecap:butt; stroke-linejoin:round; stroke-width:4; stroke-opacity:1; fill:none" points="
  151.118,143.397 263.618,197.629 376.119,263.364 488.62,373.402 601.12,443.697 713.621,529.772 826.122,607.71 938.622,702.587 1051.12,783.052 1163.62,839.607 
  1276.12,898.34 1388.63,943.394 1501.13,1001.38 1613.63,1045.49 1726.13,1113.27 1838.63,1145.84 1951.13,1196.7 2063.63,1254.62 2176.13,1297.82 2288.63,1321.22 
  
  "/>
<polyline clip-path="url(#clip242)" style="stroke:#00a98d; stroke-linecap:butt; stroke-linejoin:round; stroke-width:4; stroke-opacity:1; fill:none" points="
  151.118,109.056 263.618,232.807 376.119,333.51 488.62,451.855 601.12,569.526 713.621,652.836 826.122,719.012 938.622,776.787 1051.12,840.015 1163.62,903.977 
  1276.12,986.75 1388.63,1049.3 1501.13,1106.17 1613.63,1155.41 1726.13,1213.83 1838.63,1249.76 1951.13,1279.24 2063.63,1319.47 2176.13,1373.99 2288.63,1398.56 
  
  "/>
<path clip-path="url(#clip240)" d="
M1926.85 701.17 L2277.23 701.17 L2277.23 96.3696 L1926.85 96.3696  Z
  " fill="#ffffff" fill-rule="evenodd" fill-opacity="1"/>
<polyline clip-path="url(#clip240)" style="stroke:#000000; stroke-linecap:butt; stroke-linejoin:round; stroke-width:4; stroke-opacity:1; fill:none" points="
  1926.85,701.17 2277.23,701.17 2277.23,96.3696 1926.85,96.3696 1926.85,701.17 
  "/>
<polyline clip-path="url(#clip240)" style="stroke:#009af9; stroke-linecap:butt; stroke-linejoin:round; stroke-width:4; stroke-opacity:1; fill:none" points="
  1952.02,156.85 2103.07,156.85 
  "/>
<path clip-path="url(#clip240)" d="M2140.19 142.648 Q2136.58 142.648 2134.75 146.213 Q2132.95 149.755 2132.95 156.884 Q2132.95 163.991 2134.75 167.556 Q2136.58 171.097 2140.19 171.097 Q2143.83 171.097 2145.63 167.556 Q2147.46 163.991 2147.46 156.884 Q2147.46 149.755 2145.63 146.213 Q2143.83 142.648 2140.19 142.648 M2140.19 138.945 Q2146 138.945 2149.06 143.551 Q2152.14 148.134 2152.14 156.884 Q2152.14 165.611 2149.06 170.218 Q2146 174.801 2140.19 174.801 Q2134.38 174.801 2131.3 170.218 Q2128.25 165.611 2128.25 156.884 Q2128.25 148.134 2131.3 143.551 Q2134.38 138.945 2140.19 138.945 Z" fill="#000000" fill-rule="evenodd" fill-opacity="1" /><path clip-path="url(#clip240)" d="M2160.35 168.25 L2165.24 168.25 L2165.24 174.13 L2160.35 174.13 L2160.35 168.25 Z" fill="#000000" fill-rule="evenodd" fill-opacity="1" /><path clip-path="url(#clip240)" d="M2185.42 142.648 Q2181.81 142.648 2179.98 146.213 Q2178.18 149.755 2178.18 156.884 Q2178.18 163.991 2179.98 167.556 Q2181.81 171.097 2185.42 171.097 Q2189.06 171.097 2190.86 167.556 Q2192.69 163.991 2192.69 156.884 Q2192.69 149.755 2190.86 146.213 Q2189.06 142.648 2185.42 142.648 M2185.42 138.945 Q2191.23 138.945 2194.29 143.551 Q2197.37 148.134 2197.37 156.884 Q2197.37 165.611 2194.29 170.218 Q2191.23 174.801 2185.42 174.801 Q2179.61 174.801 2176.53 170.218 Q2173.48 165.611 2173.48 156.884 Q2173.48 148.134 2176.53 143.551 Q2179.61 138.945 2185.42 138.945 Z" fill="#000000" fill-rule="evenodd" fill-opacity="1" /><path clip-path="url(#clip240)" d="M2206.39 170.194 L2214.03 170.194 L2214.03 143.829 L2205.72 145.495 L2205.72 141.236 L2213.99 139.57 L2218.66 139.57 L2218.66 170.194 L2226.3 170.194 L2226.3 174.13 L2206.39 174.13 L2206.39 170.194 Z" fill="#000000" fill-rule="evenodd" fill-opacity="1" /><polyline clip-path="url(#clip240)" style="stroke:#e26f46; stroke-linecap:butt; stroke-linejoin:round; stroke-width:4; stroke-opacity:1; fill:none" points="
  1952.02,217.33 2103.07,217.33 
  "/>
<path clip-path="url(#clip240)" d="M2140.19 203.128 Q2136.58 203.128 2134.75 206.693 Q2132.95 210.235 2132.95 217.364 Q2132.95 224.471 2134.75 228.036 Q2136.58 231.577 2140.19 231.577 Q2143.83 231.577 2145.63 228.036 Q2147.46 224.471 2147.46 217.364 Q2147.46 210.235 2145.63 206.693 Q2143.83 203.128 2140.19 203.128 M2140.19 199.425 Q2146 199.425 2149.06 204.031 Q2152.14 208.614 2152.14 217.364 Q2152.14 226.091 2149.06 230.698 Q2146 235.281 2140.19 235.281 Q2134.38 235.281 2131.3 230.698 Q2128.25 226.091 2128.25 217.364 Q2128.25 208.614 2131.3 204.031 Q2134.38 199.425 2140.19 199.425 Z" fill="#000000" fill-rule="evenodd" fill-opacity="1" /><path clip-path="url(#clip240)" d="M2160.35 228.73 L2165.24 228.73 L2165.24 234.61 L2160.35 234.61 L2160.35 228.73 Z" fill="#000000" fill-rule="evenodd" fill-opacity="1" /><path clip-path="url(#clip240)" d="M2185.42 203.128 Q2181.81 203.128 2179.98 206.693 Q2178.18 210.235 2178.18 217.364 Q2178.18 224.471 2179.98 228.036 Q2181.81 231.577 2185.42 231.577 Q2189.06 231.577 2190.86 228.036 Q2192.69 224.471 2192.69 217.364 Q2192.69 210.235 2190.86 206.693 Q2189.06 203.128 2185.42 203.128 M2185.42 199.425 Q2191.23 199.425 2194.29 204.031 Q2197.37 208.614 2197.37 217.364 Q2197.37 226.091 2194.29 230.698 Q2191.23 235.281 2185.42 235.281 Q2179.61 235.281 2176.53 230.698 Q2173.48 226.091 2173.48 217.364 Q2173.48 208.614 2176.53 204.031 Q2179.61 199.425 2185.42 199.425 Z" fill="#000000" fill-rule="evenodd" fill-opacity="1" /><path clip-path="url(#clip240)" d="M2205.63 200.05 L2223.99 200.05 L2223.99 203.985 L2209.91 203.985 L2209.91 212.457 Q2210.93 212.11 2211.95 211.948 Q2212.97 211.762 2213.99 211.762 Q2219.77 211.762 2223.15 214.934 Q2226.53 218.105 2226.53 223.522 Q2226.53 229.1 2223.06 232.202 Q2219.59 235.281 2213.27 235.281 Q2211.09 235.281 2208.82 234.91 Q2206.58 234.54 2204.17 233.799 L2204.17 229.1 Q2206.26 230.235 2208.48 230.79 Q2210.7 231.346 2213.18 231.346 Q2217.18 231.346 2219.52 229.239 Q2221.86 227.133 2221.86 223.522 Q2221.86 219.911 2219.52 217.804 Q2217.18 215.698 2213.18 215.698 Q2211.3 215.698 2209.43 216.114 Q2207.57 216.531 2205.63 217.411 L2205.63 200.05 Z" fill="#000000" fill-rule="evenodd" fill-opacity="1" /><polyline clip-path="url(#clip240)" style="stroke:#3da44d; stroke-linecap:butt; stroke-linejoin:round; stroke-width:4; stroke-opacity:1; fill:none" points="
  1952.02,277.81 2103.07,277.81 
  "/>
<path clip-path="url(#clip240)" d="M2140.19 263.608 Q2136.58 263.608 2134.75 267.173 Q2132.95 270.715 2132.95 277.844 Q2132.95 284.951 2134.75 288.516 Q2136.58 292.057 2140.19 292.057 Q2143.83 292.057 2145.63 288.516 Q2147.46 284.951 2147.46 277.844 Q2147.46 270.715 2145.63 267.173 Q2143.83 263.608 2140.19 263.608 M2140.19 259.905 Q2146 259.905 2149.06 264.511 Q2152.14 269.094 2152.14 277.844 Q2152.14 286.571 2149.06 291.178 Q2146 295.761 2140.19 295.761 Q2134.38 295.761 2131.3 291.178 Q2128.25 286.571 2128.25 277.844 Q2128.25 269.094 2131.3 264.511 Q2134.38 259.905 2140.19 259.905 Z" fill="#000000" fill-rule="evenodd" fill-opacity="1" /><path clip-path="url(#clip240)" d="M2160.35 289.21 L2165.24 289.21 L2165.24 295.09 L2160.35 295.09 L2160.35 289.21 Z" fill="#000000" fill-rule="evenodd" fill-opacity="1" /><path clip-path="url(#clip240)" d="M2176.23 291.154 L2183.87 291.154 L2183.87 264.789 L2175.56 266.455 L2175.56 262.196 L2183.82 260.53 L2188.5 260.53 L2188.5 291.154 L2196.14 291.154 L2196.14 295.09 L2176.23 295.09 L2176.23 291.154 Z" fill="#000000" fill-rule="evenodd" fill-opacity="1" /><polyline clip-path="url(#clip240)" style="stroke:#c271d2; stroke-linecap:butt; stroke-linejoin:round; stroke-width:4; stroke-opacity:1; fill:none" points="
  1952.02,338.29 2103.07,338.29 
  "/>
<path clip-path="url(#clip240)" d="M2140.19 324.088 Q2136.58 324.088 2134.75 327.653 Q2132.95 331.195 2132.95 338.324 Q2132.95 345.431 2134.75 348.996 Q2136.58 352.537 2140.19 352.537 Q2143.83 352.537 2145.63 348.996 Q2147.46 345.431 2147.46 338.324 Q2147.46 331.195 2145.63 327.653 Q2143.83 324.088 2140.19 324.088 M2140.19 320.385 Q2146 320.385 2149.06 324.991 Q2152.14 329.574 2152.14 338.324 Q2152.14 347.051 2149.06 351.658 Q2146 356.241 2140.19 356.241 Q2134.38 356.241 2131.3 351.658 Q2128.25 347.051 2128.25 338.324 Q2128.25 329.574 2131.3 324.991 Q2134.38 320.385 2140.19 320.385 Z" fill="#000000" fill-rule="evenodd" fill-opacity="1" /><path clip-path="url(#clip240)" d="M2160.35 349.69 L2165.24 349.69 L2165.24 355.57 L2160.35 355.57 L2160.35 349.69 Z" fill="#000000" fill-rule="evenodd" fill-opacity="1" /><path clip-path="url(#clip240)" d="M2179.45 351.634 L2195.77 351.634 L2195.77 355.57 L2173.82 355.57 L2173.82 351.634 Q2176.49 348.88 2181.07 344.25 Q2185.68 339.597 2186.86 338.255 Q2189.1 335.732 2189.98 333.996 Q2190.88 332.236 2190.88 330.547 Q2190.88 327.792 2188.94 326.056 Q2187.02 324.32 2183.92 324.32 Q2181.72 324.32 2179.26 325.084 Q2176.83 325.847 2174.06 327.398 L2174.06 322.676 Q2176.88 321.542 2179.33 320.963 Q2181.79 320.385 2183.82 320.385 Q2189.2 320.385 2192.39 323.07 Q2195.58 325.755 2195.58 330.246 Q2195.58 332.375 2194.77 334.297 Q2193.99 336.195 2191.88 338.787 Q2191.3 339.459 2188.2 342.676 Q2185.1 345.871 2179.45 351.634 Z" fill="#000000" fill-rule="evenodd" fill-opacity="1" /><polyline clip-path="url(#clip240)" style="stroke:#ac8d18; stroke-linecap:butt; stroke-linejoin:round; stroke-width:4; stroke-opacity:1; fill:none" points="
  1952.02,398.77 2103.07,398.77 
  "/>
<path clip-path="url(#clip240)" d="M2140.19 384.568 Q2136.58 384.568 2134.75 388.133 Q2132.95 391.675 2132.95 398.804 Q2132.95 405.911 2134.75 409.476 Q2136.58 413.017 2140.19 413.017 Q2143.83 413.017 2145.63 409.476 Q2147.46 405.911 2147.46 398.804 Q2147.46 391.675 2145.63 388.133 Q2143.83 384.568 2140.19 384.568 M2140.19 380.865 Q2146 380.865 2149.06 385.471 Q2152.14 390.054 2152.14 398.804 Q2152.14 407.531 2149.06 412.138 Q2146 416.721 2140.19 416.721 Q2134.38 416.721 2131.3 412.138 Q2128.25 407.531 2128.25 398.804 Q2128.25 390.054 2131.3 385.471 Q2134.38 380.865 2140.19 380.865 Z" fill="#000000" fill-rule="evenodd" fill-opacity="1" /><path clip-path="url(#clip240)" d="M2160.35 410.17 L2165.24 410.17 L2165.24 416.05 L2160.35 416.05 L2160.35 410.17 Z" fill="#000000" fill-rule="evenodd" fill-opacity="1" /><path clip-path="url(#clip240)" d="M2186 396.906 Q2182.85 396.906 2181 399.059 Q2179.17 401.212 2179.17 404.962 Q2179.17 408.688 2181 410.864 Q2182.85 413.017 2186 413.017 Q2189.15 413.017 2190.98 410.864 Q2192.83 408.688 2192.83 404.962 Q2192.83 401.212 2190.98 399.059 Q2189.15 396.906 2186 396.906 M2195.28 382.253 L2195.28 386.513 Q2193.52 385.679 2191.72 385.24 Q2189.94 384.8 2188.18 384.8 Q2183.55 384.8 2181.09 387.925 Q2178.66 391.05 2178.32 397.369 Q2179.68 395.355 2181.74 394.29 Q2183.8 393.202 2186.28 393.202 Q2191.49 393.202 2194.5 396.374 Q2197.53 399.522 2197.53 404.962 Q2197.53 410.286 2194.38 413.503 Q2191.23 416.721 2186 416.721 Q2180.01 416.721 2176.83 412.138 Q2173.66 407.531 2173.66 398.804 Q2173.66 390.61 2177.55 385.749 Q2181.44 380.865 2187.99 380.865 Q2189.75 380.865 2191.53 381.212 Q2193.34 381.559 2195.28 382.253 Z" fill="#000000" fill-rule="evenodd" fill-opacity="1" /><polyline clip-path="url(#clip240)" style="stroke:#00a9ad; stroke-linecap:butt; stroke-linejoin:round; stroke-width:4; stroke-opacity:1; fill:none" points="
  1952.02,459.25 2103.07,459.25 
  "/>
<path clip-path="url(#clip240)" d="M2140.19 445.048 Q2136.58 445.048 2134.75 448.613 Q2132.95 452.155 2132.95 459.284 Q2132.95 466.391 2134.75 469.956 Q2136.58 473.497 2140.19 473.497 Q2143.83 473.497 2145.63 469.956 Q2147.46 466.391 2147.46 459.284 Q2147.46 452.155 2145.63 448.613 Q2143.83 445.048 2140.19 445.048 M2140.19 441.345 Q2146 441.345 2149.06 445.951 Q2152.14 450.534 2152.14 459.284 Q2152.14 468.011 2149.06 472.618 Q2146 477.201 2140.19 477.201 Q2134.38 477.201 2131.3 472.618 Q2128.25 468.011 2128.25 459.284 Q2128.25 450.534 2131.3 445.951 Q2134.38 441.345 2140.19 441.345 Z" fill="#000000" fill-rule="evenodd" fill-opacity="1" /><path clip-path="url(#clip240)" d="M2160.35 470.65 L2165.24 470.65 L2165.24 476.53 L2160.35 476.53 L2160.35 470.65 Z" fill="#000000" fill-rule="evenodd" fill-opacity="1" /><path clip-path="url(#clip240)" d="M2174.24 441.97 L2196.46 441.97 L2196.46 443.96 L2183.92 476.53 L2179.03 476.53 L2190.84 445.905 L2174.24 445.905 L2174.24 441.97 Z" fill="#000000" fill-rule="evenodd" fill-opacity="1" /><polyline clip-path="url(#clip240)" style="stroke:#ed5d92; stroke-linecap:butt; stroke-linejoin:round; stroke-width:4; stroke-opacity:1; fill:none" points="
  1952.02,519.73 2103.07,519.73 
  "/>
<path clip-path="url(#clip240)" d="M2128.92 533.074 L2136.56 533.074 L2136.56 506.709 L2128.25 508.375 L2128.25 504.116 L2136.51 502.45 L2141.19 502.45 L2141.19 533.074 L2148.83 533.074 L2148.83 537.01 L2128.92 537.01 L2128.92 533.074 Z" fill="#000000" fill-rule="evenodd" fill-opacity="1" /><path clip-path="url(#clip240)" d="M2158.27 531.13 L2163.15 531.13 L2163.15 537.01 L2158.27 537.01 L2158.27 531.13 Z" fill="#000000" fill-rule="evenodd" fill-opacity="1" /><path clip-path="url(#clip240)" d="M2183.34 505.528 Q2179.73 505.528 2177.9 509.093 Q2176.09 512.635 2176.09 519.764 Q2176.09 526.871 2177.9 530.436 Q2179.73 533.977 2183.34 533.977 Q2186.97 533.977 2188.78 530.436 Q2190.61 526.871 2190.61 519.764 Q2190.61 512.635 2188.78 509.093 Q2186.97 505.528 2183.34 505.528 M2183.34 501.825 Q2189.15 501.825 2192.2 506.431 Q2195.28 511.014 2195.28 519.764 Q2195.28 528.491 2192.2 533.098 Q2189.15 537.681 2183.34 537.681 Q2177.53 537.681 2174.45 533.098 Q2171.39 528.491 2171.39 519.764 Q2171.39 511.014 2174.45 506.431 Q2177.53 501.825 2183.34 501.825 Z" fill="#000000" fill-rule="evenodd" fill-opacity="1" /><polyline clip-path="url(#clip240)" style="stroke:#c68125; stroke-linecap:butt; stroke-linejoin:round; stroke-width:4; stroke-opacity:1; fill:none" points="
  1952.02,580.21 2103.07,580.21 
  "/>
<path clip-path="url(#clip240)" d="M2140.19 566.008 Q2136.58 566.008 2134.75 569.573 Q2132.95 573.115 2132.95 580.244 Q2132.95 587.351 2134.75 590.916 Q2136.58 594.457 2140.19 594.457 Q2143.83 594.457 2145.63 590.916 Q2147.46 587.351 2147.46 580.244 Q2147.46 573.115 2145.63 569.573 Q2143.83 566.008 2140.19 566.008 M2140.19 562.305 Q2146 562.305 2149.06 566.911 Q2152.14 571.494 2152.14 580.244 Q2152.14 588.971 2149.06 593.578 Q2146 598.161 2140.19 598.161 Q2134.38 598.161 2131.3 593.578 Q2128.25 588.971 2128.25 580.244 Q2128.25 571.494 2131.3 566.911 Q2134.38 562.305 2140.19 562.305 Z" fill="#000000" fill-rule="evenodd" fill-opacity="1" /><path clip-path="url(#clip240)" d="M2160.35 591.61 L2165.24 591.61 L2165.24 597.49 L2160.35 597.49 L2160.35 591.61 Z" fill="#000000" fill-rule="evenodd" fill-opacity="1" /><path clip-path="url(#clip240)" d="M2189.59 578.855 Q2192.95 579.573 2194.82 581.841 Q2196.72 584.11 2196.72 587.443 Q2196.72 592.559 2193.2 595.36 Q2189.68 598.161 2183.2 598.161 Q2181.02 598.161 2178.71 597.721 Q2176.42 597.304 2173.96 596.448 L2173.96 591.934 Q2175.91 593.068 2178.22 593.647 Q2180.54 594.226 2183.06 594.226 Q2187.46 594.226 2189.75 592.49 Q2192.07 590.753 2192.07 587.443 Q2192.07 584.388 2189.91 582.675 Q2187.78 580.939 2183.96 580.939 L2179.94 580.939 L2179.94 577.096 L2184.15 577.096 Q2187.6 577.096 2189.43 575.73 Q2191.26 574.342 2191.26 571.749 Q2191.26 569.087 2189.36 567.675 Q2187.48 566.24 2183.96 566.24 Q2182.04 566.24 2179.84 566.656 Q2177.64 567.073 2175.01 567.953 L2175.01 563.786 Q2177.67 563.045 2179.98 562.675 Q2182.32 562.305 2184.38 562.305 Q2189.7 562.305 2192.81 564.735 Q2195.91 567.142 2195.91 571.263 Q2195.91 574.133 2194.26 576.124 Q2192.62 578.092 2189.59 578.855 Z" fill="#000000" fill-rule="evenodd" fill-opacity="1" /><polyline clip-path="url(#clip240)" style="stroke:#00a98d; stroke-linecap:butt; stroke-linejoin:round; stroke-width:4; stroke-opacity:1; fill:none" points="
  1952.02,640.69 2103.07,640.69 
  "/>
<path clip-path="url(#clip240)" d="M2140.19 626.488 Q2136.58 626.488 2134.75 630.053 Q2132.95 633.595 2132.95 640.724 Q2132.95 647.831 2134.75 651.396 Q2136.58 654.937 2140.19 654.937 Q2143.83 654.937 2145.63 651.396 Q2147.46 647.831 2147.46 640.724 Q2147.46 633.595 2145.63 630.053 Q2143.83 626.488 2140.19 626.488 M2140.19 622.785 Q2146 622.785 2149.06 627.391 Q2152.14 631.974 2152.14 640.724 Q2152.14 649.451 2149.06 654.058 Q2146 658.641 2140.19 658.641 Q2134.38 658.641 2131.3 654.058 Q2128.25 649.451 2128.25 640.724 Q2128.25 631.974 2131.3 627.391 Q2134.38 622.785 2140.19 622.785 Z" fill="#000000" fill-rule="evenodd" fill-opacity="1" /><path clip-path="url(#clip240)" d="M2160.35 652.09 L2165.24 652.09 L2165.24 657.97 L2160.35 657.97 L2160.35 652.09 Z" fill="#000000" fill-rule="evenodd" fill-opacity="1" /><path clip-path="url(#clip240)" d="M2185.42 641.558 Q2182.09 641.558 2180.17 643.34 Q2178.27 645.122 2178.27 648.247 Q2178.27 651.372 2180.17 653.155 Q2182.09 654.937 2185.42 654.937 Q2188.76 654.937 2190.68 653.155 Q2192.6 651.349 2192.6 648.247 Q2192.6 645.122 2190.68 643.34 Q2188.78 641.558 2185.42 641.558 M2180.75 639.567 Q2177.74 638.826 2176.05 636.766 Q2174.38 634.706 2174.38 631.743 Q2174.38 627.599 2177.32 625.192 Q2180.28 622.785 2185.42 622.785 Q2190.58 622.785 2193.52 625.192 Q2196.46 627.599 2196.46 631.743 Q2196.46 634.706 2194.77 636.766 Q2193.11 638.826 2190.12 639.567 Q2193.5 640.354 2195.38 642.646 Q2197.27 644.937 2197.27 648.247 Q2197.27 653.271 2194.2 655.956 Q2191.14 658.641 2185.42 658.641 Q2179.7 658.641 2176.63 655.956 Q2173.57 653.271 2173.57 648.247 Q2173.57 644.937 2175.47 642.646 Q2177.37 640.354 2180.75 639.567 M2179.03 632.183 Q2179.03 634.868 2180.7 636.372 Q2182.39 637.877 2185.42 637.877 Q2188.43 637.877 2190.12 636.372 Q2191.83 634.868 2191.83 632.183 Q2191.83 629.497 2190.12 627.993 Q2188.43 626.488 2185.42 626.488 Q2182.39 626.488 2180.7 627.993 Q2179.03 629.497 2179.03 632.183 Z" fill="#000000" fill-rule="evenodd" fill-opacity="1" /><path clip-path="url(#clip240)" d="M2219.75 639.335 Q2223.11 640.053 2224.98 642.321 Q2226.88 644.59 2226.88 647.923 Q2226.88 653.039 2223.36 655.84 Q2219.84 658.641 2213.36 658.641 Q2211.19 658.641 2208.87 658.201 Q2206.58 657.784 2204.13 656.928 L2204.13 652.414 Q2206.07 653.548 2208.38 654.127 Q2210.7 654.706 2213.22 654.706 Q2217.62 654.706 2219.91 652.97 Q2222.23 651.233 2222.23 647.923 Q2222.23 644.868 2220.07 643.155 Q2217.95 641.419 2214.13 641.419 L2210.1 641.419 L2210.1 637.576 L2214.31 637.576 Q2217.76 637.576 2219.59 636.21 Q2221.42 634.822 2221.42 632.229 Q2221.42 629.567 2219.52 628.155 Q2217.64 626.72 2214.13 626.72 Q2212.2 626.72 2210.01 627.136 Q2207.81 627.553 2205.17 628.433 L2205.17 624.266 Q2207.83 623.525 2210.14 623.155 Q2212.48 622.785 2214.54 622.785 Q2219.87 622.785 2222.97 625.215 Q2226.07 627.622 2226.07 631.743 Q2226.07 634.613 2224.43 636.604 Q2222.78 638.572 2219.75 639.335 Z" fill="#000000" fill-rule="evenodd" fill-opacity="1" /></svg>
